<svg xmlns="http://www.w3.org/2000/svg" version="1.0" viewBox="0 0 3844 3156">
    <path
        d="M1518.3 701.7c-.7.2-1.3 1.1-1.3 1.9 0 .8-.9 1.4-2 1.4s-2-.7-2-1.5-.9-1.5-2-1.5-2 .7-2 1.5-.9 1.5-2 1.5-2-.7-2-1.5-.9-1.5-2-1.5-2 .7-2 1.5c0 1.2-1.6 1.5-8 1.5s-8-.3-8-1.5c0-.8-.9-1.5-2-1.5s-2 .7-2 1.5c0 1.3-2.4 1.5-16 1.5-15.3 0-16 .1-16 2s-.7 2-12 2-12 .1-12 2c0 1.8-.7 2-8 2s-8 .2-8 2-.7 2-6 2-6 .2-6 2c0 1.7-.7 2-4 2s-4 .3-4 2-.7 2-4 2-4 .3-4 2-.7 2-4 2-4 .3-4 2-.7 2-5 2c-3.9 0-5.3.4-6.2 2-.7 1.1-1.6 2-2 2-1 0-14.2 10-14.6 11.1-.2.5-.8.9-1.4.9-.5 0-4.6 2.9-9.1 6.5-4.5 3.5-8.7 6.8-9.2 7.2-.6.5-4.5 3.4-8.8 6.7-4.2 3.2-7.7 6.2-7.7 6.7s-.7.9-1.6.9c-.9 0-1.8.9-2.1 2-.3 1.1-1.2 2-2 2s-1.7.9-2 2c-.3 1.1-.9 2-1.2 2-1.2 0-7.1 8.7-7.1 10.4 0 .9-.7 1.6-1.5 1.6-.9 0-1.8.7-2.1 1.5-.3.8-2.1 3.1-3.9 5.1-1.8 1.9-5.2 7.2-7.6 11.6-2.4 4.5-4.9 8.6-5.4 9.2-4.3 4.4-7.6 11.4-10.9 23.1-4.2 14.9-7 22.4-10.4 27.9-1.4 2.2-3.1 5.6-3.9 7.5-2.6 6.2-6.3 23-6.3 28.7 0 3.9-.4 5.4-1.4 5.4-.7 0-1.6 1-2 2.2-.3 1.3-.6 300.1-.6 664 0 661.1 0 661.8 2 661.8 1.8 0 2 .7 2 8.1 0 8.1 1.5 15.9 3.2 15.9.4 0 .8.9.8 2.1 0 3 6 21.9 7 21.9.4 0 1 2.3 1.2 5.2.3 3.1 1.2 5.6 2.2 6.3 1 .8 1.6 2.6 1.6 4.9 0 2.9.4 3.6 2 3.6s2 .7 2 3.6c0 2.7.5 3.7 2 4.1 1.1.3 2 1.2 2 2.1 0 .8 1.8 3.9 4.1 6.9 2.2 3 6.8 9.8 10.2 15.2 7.2 11.4 22.4 28 42.5 46.3 14.9 13.7 21.6 19 28.2 22.3 2.5 1.3 6.7 4.1 9.3 6.2 8.4 7 31.9 18 46.5 21.7 3.3.9 9.2 3 13 4.6 3.9 1.7 8.5 3 10.2 3 1.7 0 5.6 1 8.8 2.2l5.7 2.2 314.5 1c421.7 1.3 434.3 1.3 434.8-.2.4-1.4 4.2-1.6 4.2-.2 0 .5.9 1 2 1s2-.5 2-1c0-.6 4.7-1 12-1 11.3 0 12-.1 12-2s.7-2 12-2 12-.1 12-2c0-1.8.7-2 8-2s8-.2 8-2 .7-2 7.6-2c6.6 0 7.7-.2 8.1-1.9.4-1.4 1.7-2 5.6-2.4 3-.2 5.5-1.1 6.2-2.1.7-.9 2.1-1.6 3.1-1.6 2.2 0 16.7-6.1 17.2-7.3.2-.4 1.2-.7 2.2-.7 1 0 5.6-1.7 10.2-3.8 4.6-2.2 10-4.4 12.1-5.1 2-.7 3.7-1.7 3.7-2.2 0-.5.7-.9 1.5-.9 2.8 0 14.5-5.4 14.5-6.7 0-.8 1.3-1.3 3.6-1.3 2.7 0 3.7-.5 4.1-2 .3-1.2 1.4-2 2.7-2 1.2 0 3.1-.8 4.2-1.7 1.1-1 3.7-2.7 5.7-3.7 2.1-1.1 4.9-3 6.3-4.3 1.4-1.3 3.1-2.3 3.8-2.3.8 0 1.9-.6 2.5-1.4.6-.8 2.5-1.9 4.1-2.6 1.7-.7 3-1.9 3-2.6 0-.8.6-1.4 1.4-1.4 2.2 0 10.5-5.3 10.6-6.8 0-.6.9-1.2 2-1.2 1.3 0 2-.7 2-2 0-1.6.7-2 3.6-2 2.7 0 3.7-.5 4.1-2 .3-1.1 1.4-2 2.4-2 1.2 0 1.9-.7 1.9-2s.7-2 2-2 2-.7 2-2 .7-2 2-2 2-.7 2-2c0-1.7.7-2 4-2s4-.4 4-1.9c0-1 .9-2.1 2-2.4 1.1-.3 2-1.2 2-2s.9-1.7 2-2c1.1-.3 2-1.2 2-2s.9-1.7 2-2c1.1-.3 2-1.2 2-2s.9-1.7 2-2c1.1-.3 2-1.2 2-2.1 0-.9.7-1.6 1.5-1.6s1.5-.4 1.5-.8c0-.5 3.9-4.9 8.8-9.8 17.5-18 43.7-46.5 44-47.9.2-.8.8-1.5 1.3-1.5 1.2 0 22.9-33.1 22.9-35 0-.6.4-1 .9-1 .7 0 7.1-9.5 7.1-10.6 0-.3.9-1.4 2-2.6 1.1-1.2 2-3.2 2-4.4 0-1.3.8-2.4 2-2.7 1.5-.4 2-1.4 2-4.1 0-2.9.4-3.6 2-3.6 1.7 0 2-.7 2-4s.3-4 2-4c1.3 0 2-.7 2-2s.7-2 2-2c1.7 0 2-.7 2-4s.3-4 2-4c1.8 0 2-.7 2-6s.2-6 2-6c1.7 0 2-.7 2-4 0-2.8.4-4 1.5-4 .8 0 1.7-1.4 2.1-3.7.4-2.1 1-4.3 1.4-4.8.4-.6 1.3-3 2-5.5s2.1-6.4 3.1-8.7c1.1-2.4 1.9-6.3 1.9-8.8 0-3.2.4-4.5 1.4-4.5 1.8 0 2.6-2.2 2.6-7.6 0-3.1.4-4.4 1.4-4.4 1.8 0 2.6-2.2 2.6-7.5 0-3.4.4-4.4 2-4.8 1.8-.5 2-1.4 2-10.1 0-7.5.3-9.6 1.4-9.6 2.2 0 2.6-2.4 2.6-15.6 0-9.8.3-12.4 1.4-12.4 1.6 0 2.6-6.2 2.6-16.2 0-3.7.6-7.8 1.3-8.9 1-1.7 1-2.3 0-2.6-1.7-.6-1.6-3.3.1-4.7 1.1-.9 1.1-6 0-33.1-.8-17.6-2.1-39.7-3-49-.8-9.4-1.8-22.5-2-29.3-.5-11.2-.7-12.2-2.5-12.2-1.7 0-1.9-.7-1.9-7.8 0-9-.7-12.2-2.6-12.2-.9 0-1.4-1.2-1.4-3.4 0-3.9-5.5-19.9-7-20.4-.5-.2-1-1.5-1-2.9 0-5.2-5.7-17.9-25.7-57.3-18.5-36.4-22.2-42.8-36.1-63.5-16.1-23.9-24.2-35.6-25.2-36.5-.4-.3-.9-1.3-1.3-2.3-.3-.9-1.3-1.7-2.2-1.7-.8 0-1.5-.9-1.5-2 0-1.3-.7-2-2-2-1.4 0-2-.7-2-2.4 0-1.5-1.2-3.3-3.2-4.9-1.8-1.5-5.8-4.9-8.8-7.6-3-2.8-6.1-5.1-6.7-5.1-.7 0-1.3-.7-1.3-1.5 0-.9-.7-1.8-1.6-2.2-1-.3-2.9-1.8-4.3-3.3-1.4-1.5-8.7-8-16.1-14.5-7.4-6.4-15.5-13.4-17.9-15.5-2.3-2.1-16.7-11.6-32-21.1-15.2-9.4-30.6-19.2-34.3-21.6-3.7-2.3-7.2-4.3-7.8-4.3-.5 0-1.9-.9-3-2s-3.1-2-4.4-2c-1.3 0-2.6-.5-2.8-1-.3-1-11.9-5.6-16.8-6.7-1.4-.3-2.9-.9-3.5-1.3-.5-.4-7.5-3.1-15.5-6-8-2.8-16.1-5.8-18-6.5-1.9-.8-4.6-1.7-6-2-1.4-.4-4.4-1.5-6.7-2.6-2.4-1-5.1-1.9-6.1-1.9s-3.7-.9-6-2c-2.2-1.1-6.1-2-8.5-2-2.3 0-4.7-.4-5.2-.9-.6-.4-4.4-1.3-8.5-1.9-37.2-5.5-52.3-7.9-54.9-8.8-1.1-.3-.8-1.1 1.2-3.2 1.5-1.6 2.7-3.3 2.7-3.9 0-.6.9-1.3 2-1.6 1.1-.3 2-1.2 2-2.1 0-.9.6-1.6 1.3-1.6.6 0 2.8-1.5 4.7-3.3 8.8-8.1 27.9-26.5 56.5-54.3 17.1-16.6 35.2-34.2 40.3-39.1 5-4.8 9.2-9.4 9.2-10.1 0-.6.7-1.2 1.6-1.2.9 0 1.8-.9 2.1-1.9.3-1.1 1.3-2.1 2.4-2.4 1.4-.4 1.9-1.4 1.9-4.1 0-2.9.4-3.6 2-3.6 1.7 0 2-.7 2-4s.3-4 2-4c1.3 0 2-.7 2-2 0-1.1.6-2 1.4-2 1.6 0 2.6-2.1 2.6-5.6 0-1.5.6-2.4 1.5-2.4s1.8-.8 2.2-1.8c.3-.9 1.5-2.9 2.5-4.4 1-1.4 1.8-3.1 1.8-3.8 0-.6.7-1.8 1.5-2.7.9-.8 1.9-2.8 2.2-4.4.3-1.6.9-2.9 1.3-2.9.8 0 3.7-4.9 11.4-19.3 2-3.7 3.6-8.1 3.6-9.7 0-2.3.4-3 2-3 1.7 0 2-.7 2-4s.3-4 2-4 2-.7 2-4 .3-4 2-4c1.8 0 2-.7 2-6s.2-6 2-6 2-.7 2-6c0-4.4.4-6 1.4-6 1.8 0 2.6-3.1 2.6-10.3 0-4.2.4-5.7 1.4-5.7 1.6 0 2.6-3 2.6-8.3 0-2 .4-3.7.8-3.7 1.1 0 3.2-8.3 3.2-12.5 0-1.9.4-3.5.8-3.5 1.4 0 3.2-9.7 3.2-17.1 0-5.3.3-6.9 1.4-6.9 2.4 0 3-14.5 3.1-77 0-45.8-.3-60.8-1.3-65.3-.7-3.1-1.8-5.7-2.3-5.7-.5 0-.9-3.5-.9-7.7 0-8.7-1.8-20.3-3.1-20.3-.5 0-.9-2.7-.9-6 0-5.3-.2-6-2-6-1.7 0-2-.7-2-4.9 0-5.2-1.6-11.1-3.1-11.1-.5 0-.9-1-.9-2.3 0-2.4-5.5-19.4-6.9-21.1-.5-.6-1.1-2.8-1.5-4.9-.4-2.1-1.3-3.7-2-3.7-.9 0-1.5-1.8-1.8-5.2-.3-3.1-1.2-5.6-2.2-6.3-.9-.7-1.6-2.4-1.6-3.9 0-2.2-8.2-19.2-11.1-23.1-.4-.6-2.1-3.8-3.9-7.3-1.7-3.4-3.5-6.2-3.9-6.2-.5 0-1.1-1.3-1.4-2.9-.3-1.6-1.2-3.5-1.9-4.2-.7-.8-2.6-4-4.1-7.2-1.6-3.1-3.5-5.7-4.3-5.7-.9 0-1.4-1.1-1.4-2.9 0-1.9-1.7-5.1-5.2-9.7-2.9-3.8-5.6-7.1-6-7.2-.5-.2-.8-.8-.8-1.3 0-1-10.1-14.2-11.2-14.7-.5-.2-.8-.8-.8-1.3 0-1-10.1-14.2-11.2-14.7-.5-.2-.8-.8-.8-1.3 0-.6-2.5-4.1-5.5-8-4.2-5.2-6.2-6.9-8-6.9-1.9 0-2.5-.5-2.5-2.3 0-3.3-26.3-29.7-29.6-29.7-1.9 0-2.4-.5-2.4-2.6 0-3.7-5.6-9.4-9.2-9.4-2.1 0-2.8-.5-2.8-2 0-1.3-.7-2-2-2s-2-.7-2-2c0-1.7-.7-2-4-2s-4-.3-4-2c0-1.3-.7-2-2-2s-2-.7-2-2c0-1.7-.7-2-4-2s-4-.3-4-2c0-1.3-.7-2-2-2s-2-.7-2-2-.7-2-2-2-2-.7-2-2-.7-2-2-2-2-.7-2-2c0-1.7-.7-2-4-2s-4-.3-4-2-.7-2-4-2-4-.3-4-2-.7-2-4-2-4-.3-4-2c0-1.3-.7-2-2-2s-2-.7-2-2c0-1.7-.7-2-4-2s-4-.3-4-2-.7-2-4-2-4-.3-4-2-.7-2-4-2-4-.3-4-2-.7-2-4-2-4-.3-4-2c0-1.8-.7-2-6-2s-6-.2-6-2c0-1.3-.7-2-2-2-1.1 0-2-.6-2-1.4 0-1.8-2.2-2.6-7.6-2.6-3.7 0-4.4-.3-4.4-2 0-1.8-.7-2-8-2s-8-.2-8-2c0-1.7-.7-2-4-2s-4-.3-4-2c0-1.8-.7-2-6-2s-6-.2-6-2-.7-2-8-2-8-.2-8-2c0-1.9-.7-2-10-2s-10-.1-10-2c0-1.8-.7-2-8-2s-8-.2-8-2c0-1.9-.7-2-22-2s-22-.1-22-2c0-2-.7-2-28-2s-28 0-28-2c0-1.3-.7-2-2-2s-2 .7-2 2c0 1.7-.7 2-4 2s-4-.3-4-2c0-1.9-.7-2-22-2s-22 .1-22 2-.7 2-20 2-20-.1-20-2c0-2-.7-2-44-2s-44 0-44 2c0 1.8-.7 2-6 2s-6-.2-6-2c0-1.3-.7-2-2-2s-2 .7-2 2c0 1.9-.7 2-12 2s-12-.1-12-2c0-1.3-.7-2-2-2s-2 .7-2 2c0 1.8-.7 2-8 2s-8-.2-8-2c0-1.3-.7-2-2-2s-2 .7-2 2-.7 2-2 2-2-.7-2-2-.7-2-2-2-2 .7-2 2-.7 2-2 2-2-.7-2-2-.7-2-2-2-2 .7-2 2-.7 2-2 2-2-.7-2-2c0-2-.7-2-44-2s-44 0-44 2c0 1.9-.7 2-22 2s-22-.1-22-2c0-2-.5-2.3-2.7-1.3zm2.7 79.3c0 3.3.3 4 2 4 1.8 0 2 .7 2 6s.2 6 2 6c1.3 0 2 .7 2 2s.7 2 2 2 2 .7 2 2 .7 2 2 2c1.7 0 2 .7 2 4s.3 4 2 4c1.9 0 2 .7 2 14s-.1 14-2 14c-1.7 0-2 .7-2 4s-.3 4-2 4-2 .7-2 4-.3 4-2 4c-1.3 0-2 .7-2 2s-.7 2-2 2c-1.9 0-2 .7-2 12s.1 12 2 12c1.3 0 2 .7 2 2s.7 2 2 2c1.8 0 2 .7 2 6v6h-4c-3.3 0-4-.3-4-2 0-1.8-.7-2-6-2s-6-.2-6-2-.7-2-6-2-6-.2-6-2c0-1.7-.7-2-4-2s-4 .3-4 2c0 1.3-.7 2-2 2s-2 .7-2 2c0 1.7-.7 2-4 2s-4 .3-4 2-.7 2-4 2-4 .3-4 2c0 1.8-.7 2-6 2s-6 .2-6 2c0 1.9-.7 2-14 2s-14-.1-14-2c0-1.7-.7-2-4-2s-4-.3-4-2c0-1.3-.7-2-2-2s-2-.7-2-2-.7-2-2-2-2-.7-2-2-.7-2-2-2-2-.7-2-2c0-1.7-.7-2-4-2s-4-.3-4-2c0-1.3-.7-2-2-2s-2-.7-2-2c0-1.7-.7-2-4-2s-4-.3-4-2c0-1.8-.7-2-6-2h-6v-16h4c3.3 0 4-.3 4-2 0-1.3.7-2 2-2s2-.7 2-2c0-1.7.7-2 4-2s4-.3 4-2 .7-2 4-2 4-.3 4-2 .7-2 4-2 4-.3 4-2c0-1.8.7-2 8-2s8-.2 8-2c0-1.9.7-2 16-2s16 .1 16 2c0 1.7.7 2 4 2s4 .3 4 2c0 1.3.7 2 2 2s2 .7 2 2 .7 2 2 2 2 .7 2 2 .7 2 2 2 2 .7 2 2 .7 2 2 2 2 .7 2 2 .7 2 2 2 2 .7 2 2-.7 2-2 2-2 .7-2 2 .7 2 2 2 2 .7 2 2c0 1.7.7 2 4 2s4 .3 4 2c0 1.8.7 2 6 2h6v-4c0-3.3-.3-4-2-4s-2-.7-2-4v-4h-4c-3.3 0-4-.3-4-2 0-1.3-.7-2-2-2s-2-.7-2-2-.7-2-2-2c-1.7 0-2-.7-2-4s-.3-4-2-4-2-.7-2-4-.3-4-2-4c-1.9 0-2-.7-2-10s.1-10 2-10c1.8 0 2-.7 2-6s.2-6 2-6c1.7 0 2-.7 2-4s.3-4 2-4c1.3 0 2-.7 2-2s.7-2 2-2 2-.7 2-2 .7-2 2-2c1.7 0 2-.7 2-4s.3-4 2-4c1.3 0 2-.7 2-2 0-1.8.7-2 6-2h6v4zm148 14c0 1.7.7 2 4 2s4 .3 4 2c0 1.3.7 2 2 2s2 .7 2 2 .7 2 2 2 2 .7 2 2 .7 2 2 2c1.8 0 2 .7 2 6s.2 6 2 6c1.7 0 2 .7 2 4s-.3 4-2 4-2 .7-2 4 .3 4 2 4c1.3 0 2 .7 2 2s.7 2 2 2 2-.7 2-2c0-1.9.7-2 10-2s10 .1 10 2c0 1.7.7 2 4 2s4 .3 4 2c0 1.3.7 2 2 2s2 .7 2 2 .7 2 2 2c1.7 0 2 .7 2 4s.3 4 2 4c1.9 0 2 .7 2 16s-.1 16-2 16c-1.3 0-2 .7-2 2s-.7 2-2 2-2 .7-2 2-.7 2-2 2-2 .7-2 2-.7 2-2 2-2 .7-2 2c0 1.8-.7 2-8 2s-8 .2-8 2c0 1.3-.7 2-2 2s-2 .7-2 2 .7 2 2 2 2 .7 2 2 .7 2 2 2c1.9 0 2 .7 2 12s-.1 12-2 12c-1.3 0-2 .7-2 2s-.7 2-2 2-2 .7-2 2-.7 2-2 2-2 .7-2 2-.7 2-2 2-2 .7-2 2c0 1.7-.7 2-4 2s-4 .3-4 2c0 1.9-.7 2-14 2s-14-.1-14-2c0-1.7-.7-2-4-2s-4-.3-4-2c0-1.3-.7-2-2-2-1.7 0-2-.7-2-4s-.3-4-2-4-2-.7-2-4-.3-4-2-4-2 .7-2 4-.3 4-2 4c-1.3 0-2 .7-2 2s-.7 2-2 2-2 .7-2 2-.7 2-2 2-2 .7-2 2c0 1.9-.7 2-14 2s-14-.1-14-2c0-1.3-.7-2-2-2s-2-.7-2-2c0-1.7-.7-2-4-2s-4-.3-4-2c0-1.3-.7-2-2-2s-2-.7-2-2-.7-2-2-2-2-.7-2-2-.7-2-2-2c-1.8 0-2-.7-2-8s-.2-8-2-8c-1.3 0-2-.7-2-2s.7-2 2-2c1.8 0 2-.7 2-6s.2-6 2-6c1.3 0 2-.7 2-2s.7-2 2-2 2-.7 2-2c0-1.7.7-2 4-2s4-.3 4-2c0-1.3-.7-2-2-2s-2-.7-2-2c0-1.7-.7-2-4-2s-4-.3-4-2-.7-2-4-2-4-.3-4-2c0-1.3-.7-2-2-2-1.7 0-2-.7-2-4s-.3-4-2-4-2-.7-2-4-.3-4-2-4-2-.7-2-4 .3-4 2-4c1.8 0 2-.7 2-8s.2-8 2-8c1.7 0 2-.7 2-4s.3-4 2-4c1.3 0 2-.7 2-2s.7-2 2-2 2-.7 2-2 .7-2 2-2 2-.7 2-2c0-1.9.7-2 14-2s14 .1 14 2c0 1.7.7 2 4 2s4 .3 4 2 .7 2 4 2h4v-8c0-7.3.2-8 2-8 1.7 0 2-.7 2-4s.3-4 2-4c1.3 0 2-.7 2-2s.7-2 2-2 2-.7 2-2c0-1.7.7-2 4-2s4-.3 4-2c0-1.9.7-2 14-2s14 .1 14 2zm204 0c0 1.7.7 2 4 2s4 .3 4 2 .7 2 4 2 4 .3 4 2c0 1.3.7 2 2 2s2 .7 2 2 .7 2 2 2c1.8 0 2 .7 2 6s.2 6 2 6 2 .7 2 8-.2 8-2 8-2 .7-2 6v6h4c3.3 0 4-.3 4-2 0-1.9.7-2 12-2s12 .1 12 2c0 1.7.7 2 4 2s4 .3 4 2 .7 2 4 2 4 .3 4 2c0 1.3.7 2 2 2 1.7 0 2 .7 2 4s.3 4 2 4c1.8 0 2 .7 2 8s.2 8 2 8 2 .7 2 6-.2 6-2 6-2 .7-2 8 .2 8 2 8c1.3 0 2-.7 2-2s.7-2 2-2 2-.7 2-2c0-1.7.7-2 4-2s4-.3 4-2 .7-2 4-2 4-.3 4-2c0-1.8.7-2 8-2s8 .2 8 2 .7 2 8 2 8 .2 8 2c0 1.7.7 2 4 2s4 .3 4 2c0 1.3.7 2 2 2s2 .7 2 2 .7 2 2 2 2 .7 2 2 .7 2 2 2 2 .7 2 2 .7 2 2 2 2 .7 2 2 .7 2 2 2c1.7 0 2-.7 2-4s-.3-4-2-4c-1.3 0-2-.7-2-2s.7-2 2-2 2-.7 2-2-.7-2-2-2c-1.8 0-2-.7-2-8s.2-8 2-8 2-.7 2-6 .2-6 2-6c1.7 0 2-.7 2-4s.3-4 2-4c1.3 0 2-.7 2-2s.7-2 2-2 2-.7 2-2c0-1.7.7-2 4-2s4-.3 4-2 .7-2 4-2 4-.3 4-2c0-1.8.7-2 8-2s8-.2 8-2c0-1.3.7-2 2-2s2 .7 2 2c0 1.9.7 2 10 2s10 .1 10 2c0 1.8.7 2 6 2s6 .2 6 2c0 1.7.7 2 4 2h4v4c0 3.3.3 4 2 4 1.3 0 2 .7 2 2s.7 2 2 2 2 .7 2 2 .7 2 2 2c1.7 0 2 .7 2 4s.3 4 2 4c1.9 0 2 .7 2 12s-.1 12-2 12c-1.8 0-2 .7-2 6s-.2 6-2 6c-1.7 0-2 .7-2 4s-.3 4-2 4c-1.3 0-2 .7-2 2 0 1.7.7 2 4 2s4-.3 4-2 .7-2 4-2 4-.3 4-2c0-1.8.7-2 8-2s8-.2 8-2c0-1.9.7-2 10-2s10 .1 10 2c0 1.7.7 2 4 2s4 .3 4 2c0 1.3.7 2 2 2s2 .7 2 2c0 1.7.7 2 4 2s4 .3 4 2c0 1.3.7 2 2 2s2 .7 2 2 .7 2 2 2c1.8 0 2 .7 2 6s.2 6 2 6 2 .7 2 8 .2 8 2 8 2 .7 2 8-.2 8-2 8-2 .7-2 8-.2 8-2 8c-1.7 0-2 .7-2 4s-.3 4-2 4c-1.3 0-2 .7-2 2s-.7 2-2 2-2 .7-2 2-.7 2-2 2-2 .7-2 2-.7 2-2 2-2 .7-2 2c0 1.9-.7 2-14 2s-14 .1-14 2c0 1.8-.7 2-6 2s-6 .2-6 2c0 1.3.7 2 2 2s2 .7 2 2 .7 2 2 2 2 .7 2 2 .7 2 2 2c1.7 0 2 .7 2 4s.3 4 2 4c1.8 0 2 .7 2 6s.2 6 2 6c1.3 0 2 .7 2 2s-.7 2-2 2-2 .7-2 2 .7 2 2 2 2 .7 2 2-.7 2-2 2c-1.8 0-2 .7-2 6s-.2 6-2 6c-1.3 0-2 .7-2 2s-.7 2-2 2c-1.7 0-2 .7-2 4s-.3 4-2 4c-1.3 0-2 .7-2 2s-.7 2-2 2-2 .7-2 2c0 1.7-.7 2-4 2s-4 .3-4 2c0 1.3-.7 2-2 2s-2 .7-2 2c0 1.8-.7 2-6 2s-6 .2-6 2c0 1.9-.7 2-18 2s-18-.1-18-2c0-1.7-.7-2-4-2s-4-.3-4-2-.7-2-4-2h-4v-4c0-3.3-.3-4-2-4-1.3 0-2-.7-2-2s-.7-2-2-2c-1.7 0-2-.7-2-4s-.3-4-2-4-2-.7-2-4v-4h-8v4c0 3.3-.3 4-2 4-1.3 0-2 .7-2 2s-.7 2-2 2-2 .7-2 2-.7 2-2 2-2 .7-2 2-.7 2-2 2-2 .7-2 2-.7 2-2 2-2 .7-2 2c0 1.8-.7 2-6 2s-6 .2-6 2c0 1.3-.7 2-2 2s-2-.7-2-2c0-1.9-.7-2-10-2s-10-.1-10-2c0-1.8-.7-2-6-2s-6-.2-6-2c0-1.3-.7-2-2-2s-2-.7-2-2c0-1.7-.7-2-4-2s-4-.3-4-2c0-1.3-.7-2-2-2-1.7 0-2-.7-2-4s-.3-4-2-4c-1.3 0-2-.7-2-2s-.7-2-2-2-2-.7-2-2-.7-2-2-2-2-.7-2-2-.7-2-2-2c-1.8 0-2-.7-2-8s-.2-8-2-8c-1.3 0-2-.7-2-2s.7-2 2-2c1.9 0 2-.7 2-12s.1-12 2-12c1.3 0 2-.7 2-2s.7-2 2-2 2-.7 2-2 .7-2 2-2 2-.7 2-2 .7-2 2-2 2-.7 2-2c0-1.7.7-2 4-2s4-.3 4-2 .7-2 4-2 4-.3 4-2c0-1.8-.7-2-6-2s-6-.2-6-2-.7-2-6-2-6-.2-6-2c0-1.7-.7-2-4-2s-4-.3-4-2c0-1.3-.7-2-2-2s-2-.7-2-2-.7-2-2-2-2-.7-2-2-.7-2-2-2-2-.7-2-2-.7-2-2-2c-1.7 0-2-.7-2-4s-.3-4-2-4c-1.9 0-2-.7-2-20s.1-20 2-20c1.7 0 2-.7 2-4s.3-4 2-4 2-.7 2-4v-4h-4c-3.3 0-4 .3-4 2 0 1.9-.7 2-12 2s-12 .1-12 2c0 1.3-.7 2-2 2s-2 .7-2 2 .7 2 2 2 2 .7 2 2 .7 2 2 2 2 .7 2 2 .7 2 2 2c1.9 0 2 .7 2 14s-.1 14-2 14c-1.7 0-2 .7-2 4v4h-4c-3.3 0-4 .3-4 2 0 1.3-.7 2-2 2s-2 .7-2 2-.7 2-2 2-2 .7-2 2c0 1.7-.7 2-4 2s-4 .3-4 2c0 1.9-.7 2-12 2s-12-.1-12-2c0-1.8-.7-2-6-2s-6-.2-6-2c0-1.3-.7-2-2-2s-2-.7-2-2-.7-2-2-2c-1.7 0-2-.7-2-4s-.3-4-2-4-2-.7-2-4-.3-4-2-4c-1.3 0-2 .7-2 2s-.7 2-2 2-2 .7-2 2-.7 2-2 2c-1.7 0-2 .7-2 4v4h-4c-3.3 0-4 .3-4 2s-.7 2-4 2-4 .3-4 2c0 1.8-.7 2-8 2s-8-.2-8-2c0-1.7-.7-2-4-2s-4-.3-4-2-.7-2-4-2-4-.3-4-2c0-1.3-.7-2-2-2s-2-.7-2-2-.7-2-2-2-2-.7-2-2-.7-2-2-2-2-.7-2-2-.7-2-2-2c-1.7 0-2-.7-2-4s-.3-4-2-4c-1.9 0-2-.7-2-14s.1-14 2-14c1.3 0 2-.7 2-2s.7-2 2-2 2-.7 2-2 .7-2 2-2 2-.7 2-2 .7-2 2-2 2-.7 2-2 .7-2 2-2 2-.7 2-2c0-1.8-.7-2-6-2s-6-.2-6-2c0-1.3-.7-2-2-2s-2-.7-2-2c0-1.7-.7-2-4-2s-4-.3-4-2c0-1.3-.7-2-2-2s-2-.7-2-2-.7-2-2-2c-1.8 0-2-.7-2-6s-.2-6-2-6c-1.9 0-2-.7-2-10s.1-10 2-10c1.7 0 2-.7 2-4s.3-4 2-4 2-.7 2-4 .3-4 2-4c1.3 0 2-.7 2-2s.7-2 2-2 2-.7 2-2 .7-2 2-2 2-.7 2-2c0-1.7.7-2 4-2s4-.3 4-2c0-1.9.7-2 12-2s12 .1 12 2c0 1.7.7 2 4 2s4 .3 4 2c0 1.3.7 2 2 2s2 .7 2 2c0 1.7.7 2 4 2h4v-10c0-9.3.1-10 2-10 1.7 0 2-.7 2-4s.3-4 2-4c1.3 0 2-.7 2-2s.7-2 2-2 2-.7 2-2 .7-2 2-2 2-.7 2-2c0-1.7.7-2 4-2s4-.3 4-2c0-1.9.7-2 14-2s14 .1 14 2zm-428 120c0 1.7.7 2 4 2s4 .3 4 2c0 1.3.7 2 2 2s2 .7 2 2 .7 2 2 2c1.7 0 2 .7 2 4s.3 4 2 4c1.8 0 2 .7 2 6s-.2 6-2 6-2 .7-2 6v6h8c7.3 0 8 .2 8 2s.7 2 6 2 6 .2 6 2c0 1.3.7 2 2 2s2 .7 2 2 .7 2 2 2c1.7 0 2 .7 2 4s.3 4 2 4c1.3 0 2 .7 2 2s-.7 2-2 2-2 .7-2 2 .7 2 2 2 2 .7 2 2-.7 2-2 2c-1.8 0-2 .7-2 6s-.2 6-2 6c-1.7 0-2 .7-2 4s-.3 4-2 4c-1.3 0-2 .7-2 2 0 1.7-.7 2-4 2s-4 .3-4 2c0 1.8-.7 2-8 2h-8v6c0 5.3.2 6 2 6s2 .7 2 6-.2 6-2 6c-1.7 0-2 .7-2 4s-.3 4-2 4c-1.3 0-2 .7-2 2s-.7 2-2 2-2 .7-2 2c0 1.7-.7 2-4 2s-4 .3-4 2c0 1.8-.7 2-6 2s-6 .2-6 2c0 1.3-.7 2-2 2s-2-.7-2-2-.7-2-2-2-2 .7-2 2-.7 2-2 2-2-.7-2-2c0-1.7-.7-2-4-2s-4-.3-4-2c0-1.3-.7-2-2-2-1.7 0-2-.7-2-4s-.3-4-2-4c-1.3 0-2-.7-2-2s-.7-2-2-2-2-.7-2-2-.7-2-2-2-2 .7-2 2-.7 2-2 2-2 .7-2 2c0 1.9-.7 2-12 2s-12-.1-12-2c0-1.7-.7-2-4-2s-4-.3-4-2c0-1.3-.7-2-2-2s-2-.7-2-2-.7-2-2-2-2-.7-2-2-.7-2-2-2c-1.7 0-2-.7-2-4s-.3-4-2-4c-1.8 0-2-.7-2-8s.2-8 2-8 2-.7 2-6v-6h4c3.3 0 4-.3 4-2 0-1.3.7-2 2-2s2-.7 2-2-.7-2-2-2-2-.7-2-2c0-1.7-.7-2-4-2h-4v-4c0-3.3-.3-4-2-4s-2-.7-2-4-.3-4-2-4c-1.8 0-2-.7-2-6s.2-6 2-6c1.7 0 2-.7 2-4s.3-4 2-4 2-.7 2-4 .3-4 2-4c1.3 0 2-.7 2-2s.7-2 2-2 2-.7 2-2 .7-2 2-2 2-.7 2-2c0-1.9.7-2 10-2s10 .1 10 2c0 1.7.7 2 4 2s4 .3 4 2c0 1.3.7 2 2 2s2 .7 2 2 .7 2 2 2c1.7 0 2-.7 2-4s.3-4 2-4 2-.7 2-4 .3-4 2-4c1.3 0 2-.7 2-2s.7-2 2-2 2-.7 2-2 .7-2 2-2 2-.7 2-2c0-1.9.7-2 14-2s14 .1 14 2zm116 48c0 1.7.7 2 4 2s4 .3 4 2 .7 2 4 2 4 .3 4 2c0 1.3.7 2 2 2s2 .7 2 2 .7 2 2 2c1.7 0 2 .7 2 4s.3 4 2 4c1.3 0 2 .7 2 2s-.7 2-2 2-2 .7-2 2c0 1.7.7 2 4 2h4v4c0 3.3.3 4 2 4 1.3 0 2 .7 2 2s.7 2 2 2 2 .7 2 2 .7 2 2 2 2 .7 2 2-.7 2-2 2-2-.7-2-2c0-1.7-.7-2-4-2s-4-.3-4-2-.7-2-4-2-4 .3-4 2c0 1.8-.7 2-8 2s-8 .2-8 2c0 1.9-.7 2-10 2s-10-.1-10-2c0-1.7-.7-2-4-2s-4-.3-4-2c0-1.3-.7-2-2-2s-2-.7-2-2-.7-2-2-2-2-.7-2-2-.7-2-2-2-2-.7-2-2-.7-2-2-2c-1.7 0-2-.7-2-4v-4h-8v-6c0-5.3.2-6 2-6 1.3 0 2-.7 2-2s.7-2 2-2 2-.7 2-2c0-1.8.7-2 8-2s8-.2 8-2c0-1.9.7-2 10-2s10 .1 10 2zm180 40c0 1.7.7 2 4 2s4 .3 4 2 .7 2 4 2 4 .3 4 2c0 1.3.7 2 2 2s2 .7 2 2 .7 2 2 2 2 .7 2 2 .7 2 2 2 2 .7 2 2 .7 2 2 2c1.7 0 2 .7 2 4s.3 4 2 4c1.8 0 2 .7 2 6s.2 6 2 6 2 .7 2 8-.2 8-2 8-2 .7-2 6-.2 6-2 6c-1.7 0-2 .7-2 4s-.3 4-2 4c-1.3 0-2 .7-2 2s-.7 2-2 2c-1.7 0-2 .7-2 4v4h4c3.3 0 4-.3 4-2 0-1.3.7-2 2-2s2-.7 2-2c0-1.8.7-2 8-2s8-.2 8-2c0-1.9.7-2 16-2s16 .1 16 2c0 1.8.7 2 6 2s6 .2 6 2c0 1.3.7 2 2 2s2 .7 2 2 .7 2 2 2 2 .7 2 2 .7 2 2 2 2 .7 2 2 .7 2 2 2 2 .7 2 2 .7 2 2 2c1.7 0 2 .7 2 4s.3 4 2 4c1.8 0 2 .7 2 8s.2 8 2 8c1.9 0 2 .7 2 16s-.1 16-2 16c-1.7 0-2 .7-2 4s-.3 4-2 4-2 .7-2 4-.3 4-2 4c-1.3 0-2 .7-2 2s-.7 2-2 2c-1.7 0-2 .7-2 4s-.3 4-2 4c-1.3 0-2 .7-2 2 0 1.7-.7 2-4 2s-4 .3-4 2c0 1.8-.7 2-8 2s-8 .2-8 2c0 1.9-.7 2-14 2s-14-.1-14-2c0-1.3-.7-2-2-2-1.7 0-2 .7-2 4s.3 4 2 4c1.3 0 2 .7 2 2s.7 2 2 2 2 .7 2 2 .7 2 2 2 2 .7 2 2 .7 2 2 2 2 .7 2 2 .7 2 2 2c1.7 0 2 .7 2 4s.3 4 2 4c1.9 0 2 .7 2 16s-.1 16-2 16c-1.7 0-2 .7-2 4s-.3 4-2 4c-1.3 0-2 .7-2 2s-.7 2-2 2-2 .7-2 2-.7 2-2 2-2 .7-2 2-.7 2-2 2-2 .7-2 2-.7 2-2 2-2 .7-2 2-.7 2-2 2-2 .7-2 2-.7 2-2 2-2 .7-2 2c0 1.8-.7 2-6 2s-6 .2-6 2-.7 2-8 2-8 .2-8 2c0 1.9-.7 2-12 2s-12-.1-12-2c0-1.7-.7-2-4-2s-4-.3-4-2-.7-2-4-2-4-.3-4-2c0-1.3-.7-2-2-2s-2-.7-2-2-.7-2-2-2-2-.7-2-2-.7-2-2-2c-1.7 0-2-.7-2-4s-.3-4-2-4-2-.7-2-4-.3-4-2-4c-1.8 0-2-.7-2-6v-6h-8v4c0 3.3-.3 4-2 4s-2 .7-2 4-.3 4-2 4-2 .7-2 4-.3 4-2 4c-1.3 0-2 .7-2 2 0 1.7-.7 2-4 2s-4 .3-4 2c0 1.3-.7 2-2 2s-2 .7-2 2c0 1.8-.7 2-8 2s-8 .2-8 2-.7 2-6 2-6-.2-6-2-.7-2-8-2-8-.2-8-2c0-1.3-.7-2-2-2s-2-.7-2-2c0-1.7-.7-2-4-2s-4-.3-4-2-.7-2-4-2-4-.3-4-2c0-1.3-.7-2-2-2s-2-.7-2-2-.7-2-2-2-2-.7-2-2-.7-2-2-2-2-.7-2-2-.7-2-2-2-2-.7-2-2-.7-2-2-2c-1.7 0-2-.7-2-4s-.3-4-2-4-2-.7-2-4-.3-4-2-4c-1.8 0-2-.7-2-6s-.2-6-2-6-2-.7-2-6 .2-6 2-6 2-.7 2-6 .2-6 2-6c1.7 0 2-.7 2-4s.3-4 2-4c1.3 0 2-.7 2-2s.7-2 2-2 2-.7 2-2 .7-2 2-2 2-.7 2-2 .7-2 2-2 2-.7 2-2c0-1.7.7-2 4-2s4-.3 4-2 .7-2 4-2 4-.3 4-2c0-1.3-.7-2-2-2s-2-.7-2-2c0-1.8-.7-2-6-2s-6-.2-6-2-.7-2-6-2-6-.2-6-2c0-1.7-.7-2-4-2s-4-.3-4-2c0-1.3-.7-2-2-2s-2-.7-2-2-.7-2-2-2-2-.7-2-2-.7-2-2-2-2-.7-2-2-.7-2-2-2-2-.7-2-2-.7-2-2-2c-1.7 0-2-.7-2-4s-.3-4-2-4c-1.9 0-2-.7-2-18s.1-18 2-18c1.7 0 2-.7 2-4s.3-4 2-4c1.8 0 2-.7 2-6s.2-6 2-6c1.3 0 2-.7 2-2s.7-2 2-2c1.7 0 2-.7 2-4s.3-4 2-4c1.3 0 2-.7 2-2s.7-2 2-2 2-.7 2-2 .7-2 2-2 2-.7 2-2c0-1.7.7-2 4-2s4-.3 4-2c0-1.8.7-2 6-2s6-.2 6-2c0-1.9.7-2 14-2s14 .1 14 2c0 1.7.7 2 4 2s4 .3 4 2 .7 2 4 2 4 .3 4 2c0 1.3.7 2 2 2s2 .7 2 2 .7 2 2 2 2 .7 2 2 .7 2 2 2 2 .7 2 2 .7 2 2 2 2 .7 2 2 .7 2 2 2c1.9 0 2-.7 2-20s.1-20 2-20c1.7 0 2-.7 2-4s.3-4 2-4 2-.7 2-4 .3-4 2-4c1.3 0 2-.7 2-2s.7-2 2-2 2-.7 2-2 .7-2 2-2 2-.7 2-2c0-1.7.7-2 4-2s4-.3 4-2c0-1.3.7-2 2-2s2-.7 2-2c0-1.9.7-2 26-2s26 .1 26 2zm112 4c0 1.9.7 2 10 2s10 .1 10 2c0 1.7.7 2 4 2s4 .3 4 2c0 1.3.7 2 2 2 1.7 0 2 .7 2 4s.3 4 2 4c1.3 0 2 .7 2 2s.7 2 2 2c1.9 0 2 .7 2 14s.1 14 2 14c1.3 0 2 .7 2 2s.7 2 2 2 2-.7 2-2 .7-2 2-2c1.7 0 2-.7 2-4s-.3-4-2-4c-1.3 0-2-.7-2-2s-.7-2-2-2c-1.8 0-2-.7-2-6s.2-6 2-6 2-.7 2-6 .2-6 2-6c1.3 0 2-.7 2-2s.7-2 2-2 2-.7 2-2c0-1.7.7-2 4-2s4-.3 4-2c0-1.3.7-2 2-2s2-.7 2-2c0-1.9.7-2 12-2h12v8c0 7.3-.2 8-2 8-1.3 0-2 .7-2 2s.7 2 2 2 2 .7 2 2-.7 2-2 2c-1.8 0-2 .7-2 6s-.2 6-2 6c-1.7 0-2 .7-2 4s-.3 4-2 4c-1.3 0-2 .7-2 2 0 1.7-.7 2-4 2s-4 .3-4 2-.7 2-4 2-4 .3-4 2c0 1.3-.7 2-2 2s-2 .7-2 2-.7 2-2 2c-1.8 0-2 .7-2 8v8h-4c-3.3 0-4-.3-4-2 0-1.3-.7-2-2-2s-2-.7-2-2-.7-2-2-2-2-.7-2-2-.7-2-2-2-2-.7-2-2c0-1.9-.7-2-14-2s-14-.1-14-2c0-1.8-.7-2-6-2s-6-.2-6-2c0-1.3-.7-2-2-2s-2-.7-2-2-.7-2-2-2c-1.7 0-2-.7-2-4s-.3-4-2-4-2-.7-2-4-.3-4-2-4-2-.7-2-4-.3-4-2-4-2-.7-2-4-.3-4-2-4c-1.8 0-2-.7-2-6v-6h10c9.3 0 10-.1 10-2 0-1.7.7-2 4-2s4 .3 4 2zm396 36c0 1.3.7 2 2 2 1.9 0 2 .7 2 20s-.1 20-2 20c-1.7 0-2 .7-2 4s-.3 4-2 4-2 .7-2 4v4h-4c-3.3 0-4 .3-4 2 0 1.3-.7 2-2 2s-2 .7-2 2-.7 2-2 2c-1.7 0-2 .7-2 4v4h4c3.3 0 4 .3 4 2 0 1.3.7 2 2 2s2 .7 2 2c0 1.7.7 2 4 2h4v4c0 3.3.3 4 2 4s2 .7 2 4 .3 4 2 4c1.8 0 2 .7 2 8v8h-20c-19.3 0-20-.1-20-2 0-1.3-.7-2-2-2s-2-.7-2-2-.7-2-2-2-2-.7-2-2-.7-2-2-2c-1.8 0-2-.7-2-6s-.2-6-2-6c-1.3 0-2-.7-2-2s-.7-2-2-2-2-.7-2-2c0-1.8-.7-2-8-2s-8-.2-8-2c0-1.3-.7-2-2-2s-2-.7-2-2 .7-2 2-2 2-.7 2-2c0-1.7.7-2 4-2s4-.3 4-2c0-1.3.7-2 2-2 1.7 0 2-.7 2-4s.3-4 2-4c1.9 0 2-.7 2-16s.1-16 2-16c1.7 0 2-.7 2-4s.3-4 2-4c1.3 0 2-.7 2-2 0-1.7.7-2 4-2s4-.3 4-2 .7-2 4-2 4-.3 4-2 .7-2 4-2 4-.3 4-2 .7-2 4-2 4-.3 4-2c0-1.8.7-2 6-2s6 .2 6 2zm-828 24c0 1.8.7 2 6 2s6 .2 6 2c0 1.3.7 2 2 2 1.8 0 2 .7 2 6s.2 6 2 6c1.7 0 2 .7 2 4s-.3 4-2 4c-1.3 0-2 .7-2 2s.7 2 2 2 2 .7 2 2c0 1.9.7 2 12 2s12 .1 12 2c0 1.3.7 2 2 2s2 .7 2 2 .7 2 2 2c1.8 0 2 .7 2 6s.2 6 2 6 2 .7 2 8-.2 8-2 8c-1.7 0-2 .7-2 4s-.3 4-2 4c-1.3 0-2 .7-2 2s-.7 2-2 2-2 .7-2 2c0 1.8-.7 2-6 2s-6 .2-6 2c0 1.3-.7 2-2 2s-2 .7-2 2 .7 2 2 2c1.9 0 2 .7 2 10s-.1 10-2 10c-1.7 0-2 .7-2 4s-.3 4-2 4c-1.3 0-2 .7-2 2 0 1.7-.7 2-4 2s-4 .3-4 2c0 1.9-.7 2-12 2s-12-.1-12-2c0-1.7-.7-2-4-2h-4v-4c0-3.3-.3-4-2-4-1.3 0-2-.7-2-2s-.7-2-2-2c-1.7 0-2 .7-2 4v4h-4c-3.3 0-4 .3-4 2s-.7 2-4 2-4 .3-4 2c0 1.3-.7 2-2 2s-2-.7-2-2c0-1.8-.7-2-6-2s-6-.2-6-2c0-1.3-.7-2-2-2s-2-.7-2-2-.7-2-2-2-2-.7-2-2-.7-2-2-2-2-.7-2-2-.7-2-2-2c-1.7 0-2-.7-2-4s-.3-4-2-4-2-.7-2-4 .3-4 2-4 2-.7 2-4 .3-4 2-4c1.8 0 2-.7 2-8v-8h-4c-3.3 0-4-.3-4-2 0-1.3-.7-2-2-2s-2-.7-2-2-.7-2-2-2c-1.9 0-2-.7-2-12s.1-12 2-12c1.7 0 2-.7 2-4s.3-4 2-4c1.3 0 2-.7 2-2s.7-2 2-2 2-.7 2-2c0-1.7.7-2 4-2s4-.3 4-2c0-1.8.7-2 6-2s6 .2 6 2 .7 2 6 2 6 .2 6 2c0 1.3.7 2 2 2 1.8 0 2-.7 2-8s.2-8 2-8c1.3 0 2-.7 2-2s.7-2 2-2 2-.7 2-2c0-1.7.7-2 4-2s4-.3 4-2c0-1.9.7-2 10-2s10 .1 10 2zm92 48c0 1.3.7 2 2 2s2 .7 2 2c0 1.7.7 2 4 2s4 .3 4 2c0 1.3.7 2 2 2s2 .7 2 2 .7 2 2 2 2 .7 2 2 .7 2 2 2 2 .7 2 2 .7 2 2 2c1.9 0 2 .7 2 16s-.1 16-2 16c-1.7 0-2 .7-2 4s-.3 4-2 4c-1.9 0-2 .7-2 10s-.1 10-2 10c-1.3 0-2 .7-2 2s-.7 2-2 2-2-.7-2-2 .7-2 2-2 2-.7 2-2-.7-2-2-2c-1.7 0-2-.7-2-4s-.3-4-2-4c-1.3 0-2-.7-2-2 0-1.7-.7-2-4-2s-4-.3-4-2c0-1.3-.7-2-2-2s-2-.7-2-2c0-1.7-.7-2-4-2s-4-.3-4-2c0-1.3-.7-2-2-2-1.7 0-2-.7-2-4s-.3-4-2-4c-1.9 0-2-.7-2-24v-24h10c9.3 0 10 .1 10 2zm632 16c0 1.8.7 2 8 2s8 .2 8 2c0 1.7.7 2 4 2s4 .3 4 2 .7 2 4 2 4 .3 4 2c0 1.3.7 2 2 2s2 .7 2 2 .7 2 2 2c1.7 0 2 .7 2 4s.3 4 2 4 2 .7 2 4 .3 4 2 4c1.9 0 2 .7 2 10s-.1 10-2 10c-1.8 0-2 .7-2 6s-.2 6-2 6c-1.7 0-2 .7-2 4v4h6c5.3 0 6-.2 6-2s.7-2 6-2 6-.2 6-2c0-1.9.7-2 10-2s10 .1 10 2c0 1.7.7 2 4 2s4 .3 4 2 .7 2 4 2 4 .3 4 2c0 1.3.7 2 2 2 1.7 0 2 .7 2 4s.3 4 2 4c1.3 0 2 .7 2 2s.7 2 2 2 2 .7 2 2 .7 2 2 2c1.7 0 2 .7 2 4s.3 4 2 4c1.9 0 2 .7 2 18s-.1 18-2 18c-1.7 0-2 .7-2 4s-.3 4-2 4-2 .7-2 4-.3 4-2 4c-1.3 0-2 .7-2 2s-.7 2-2 2-2 .7-2 2c0 1.7-.7 2-4 2s-4 .3-4 2c0 1.8-.7 2-6 2s-6 .2-6 2c0 1.9-.7 2-10 2s-10 .1-10 2c0 1.3-.7 2-2 2s-2 .7-2 2 .7 2 2 2 2 .7 2 2 .7 2 2 2c1.7 0 2 .7 2 4s.3 4 2 4 2 .7 2 4 .3 4 2 4c1.9 0 2 .7 2 12s-.1 12-2 12c-1.7 0-2 .7-2 4s-.3 4-2 4c-1.3 0-2 .7-2 2s-.7 2-2 2-2 .7-2 2-.7 2-2 2-2 .7-2 2-.7 2-2 2-2 .7-2 2c0 1.7-.7 2-4 2s-4 .3-4 2-.7 2-4 2-4 .3-4 2-.7 2-4 2-4 .3-4 2c0 1.9-.7 2-14 2s-14-.1-14-2c0-1.7-.7-2-4-2s-4-.3-4-2-.7-2-4-2-4-.3-4-2c0-1.3-.7-2-2-2-1.7 0-2-.7-2-4s-.3-4-2-4c-1.3 0-2-.7-2-2s-.7-2-2-2c-1.8 0-2-.7-2-6s-.2-6-2-6c-1.3 0-2-.7-2-2s-.7-2-2-2c-1.7 0-2 .7-2 4s-.3 4-2 4-2 .7-2 4-.3 4-2 4c-1.3 0-2 .7-2 2s-.7 2-2 2-2 .7-2 2c0 1.7-.7 2-4 2s-4 .3-4 2c0 1.3-.7 2-2 2s-2 .7-2 2c0 1.9-.7 2-14 2s-14-.1-14-2c0-1.7-.7-2-4-2s-4-.3-4-2-.7-2-4-2-4-.3-4-2-.7-2-4-2-4-.3-4-2c0-1.3-.7-2-2-2s-2-.7-2-2-.7-2-2-2-2-.7-2-2-.7-2-2-2-2-.7-2-2-.7-2-2-2c-1.7 0-2-.7-2-4s-.3-4-2-4c-1.3 0-2-.7-2-2s-.7-2-2-2c-1.9 0-2-.7-2-16s.1-16 2-16c1.7 0 2-.7 2-4s.3-4 2-4c1.3 0 2-.7 2-2s.7-2 2-2 2-.7 2-2 .7-2 2-2 2-.7 2-2c0-1.7.7-2 4-2s4-.3 4-2c0-1.3.7-2 2-2s2-.7 2-2c0-1.7.7-2 4-2s4-.3 4-2c0-1.9-.7-2-12-2s-12-.1-12-2c0-1.7-.7-2-4-2s-4-.3-4-2-.7-2-4-2-4-.3-4-2c0-1.3-.7-2-2-2s-2-.7-2-2-.7-2-2-2c-1.7 0-2-.7-2-4s-.3-4-2-4c-1.8 0-2-.7-2-6s-.2-6-2-6c-1.9 0-2-.7-2-10s.1-10 2-10c1.8 0 2-.7 2-6s.2-6 2-6 2-.7 2-6 .2-6 2-6c1.3 0 2-.7 2-2s.7-2 2-2 2-.7 2-2 .7-2 2-2c1.7 0 2-.7 2-4v-4h4c3.3 0 4-.3 4-2s.7-2 4-2 4-.3 4-2c0-1.9.7-2 14-2s14 .1 14 2c0 1.8.7 2 6 2s6 .2 6 2c0 1.3.7 2 2 2s2 .7 2 2 .7 2 2 2 2 .7 2 2c0 1.7.7 2 4 2s4 .3 4 2c0 1.3.7 2 2 2 1.9 0 2-.7 2-14s.1-14 2-14c1.8 0 2-.7 2-6s.2-6 2-6c1.3 0 2-.7 2-2s.7-2 2-2 2-.7 2-2 .7-2 2-2 2-.7 2-2 .7-2 2-2 2-.7 2-2c0-1.7.7-2 4-2s4-.3 4-2c0-1.8.7-2 8-2s8-.2 8-2 .7-2 6-2 6 .2 6 2zm-148 10c0 7.3-.2 8-2 8-1.7 0-2 .7-2 4s-.3 4-2 4-2 .7-2 4-.3 4-2 4c-1.3 0-2 .7-2 2s-.7 2-2 2-2 .7-2 2-.7 2-2 2-2 .7-2 2c0 1.7-.7 2-4 2s-4 .3-4 2c0 1.9-.7 2-14 2s-14-.1-14-2c0-1.7-.7-2-4-2s-4-.3-4-2c0-1.8-.7-2-6-2h-6v-4c0-3.3.3-4 2-4 1.3 0 2-.7 2-2s.7-2 2-2c1.7 0 2-.7 2-4s.3-4 2-4 2-.7 2-4 .3-4 2-4c1.3 0 2-.7 2-2s.7-2 2-2 2-.7 2-2 .7-2 2-2 2-.7 2-2c0-1.9.7-2 26-2h26v8zm-544 58c0 1.3.7 2 2 2s2-.7 2-2 .7-2 2-2 2 .7 2 2c0 1.9.7 2 10 2s10 .1 10 2c0 1.7.7 2 4 2s4 .3 4 2c0 1.3.7 2 2 2s2 .7 2 2 .7 2 2 2c1.7 0 2 .7 2 4s.3 4 2 4c1.8 0 2 .7 2 6s.2 6 2 6c1.3 0 2 .7 2 2s-.7 2-2 2c-1.8 0-2 .7-2 8s-.2 8-2 8c-1.7 0-2 .7-2 4v4h6c5.3 0 6-.2 6-2 0-1.9.7-2 16-2s16 .1 16 2c0 1.7.7 2 4 2s4 .3 4 2c0 1.3.7 2 2 2 1.7 0 2 .7 2 4s.3 4 2 4c1.3 0 2 .7 2 2s.7 2 2 2c1.8 0 2 .7 2 8s.2 8 2 8c1.7 0 2 .7 2 4s-.3 4-2 4c-1.9 0-2 .7-2 10s-.1 10-2 10c-1.3 0-2 .7-2 2s-.7 2-2 2-2 .7-2 2-.7 2-2 2-2 .7-2 2-.7 2-2 2-2 .7-2 2c0 1.7-.7 2-4 2s-4 .3-4 2c0 1.9-.7 2-12 2s-12 .1-12 2c0 1.3.7 2 2 2s2 .7 2 2 .7 2 2 2 2 .7 2 2 .7 2 2 2c1.9 0 2 .7 2 18s-.1 18-2 18c-1.3 0-2 .7-2 2s-.7 2-2 2-2 .7-2 2-.7 2-2 2-2 .7-2 2-.7 2-2 2-2 .7-2 2c0 1.7-.7 2-4 2s-4 .3-4 2-.7 2-4 2-4 .3-4 2c0 1.9-.7 2-12 2s-12-.1-12-2c0-1.8-.7-2-6-2s-6-.2-6-2c0-1.3-.7-2-2-2s-2-.7-2-2-.7-2-2-2-2-.7-2-2-.7-2-2-2c-1.7 0-2-.7-2-4s-.3-4-2-4c-1.3 0-2-.7-2-2s-.7-2-2-2-2 .7-2 2-.7 2-2 2-2 .7-2 2-.7 2-2 2-2 .7-2 2-.7 2-2 2-2 .7-2 2c0 1.7-.7 2-4 2s-4 .3-4 2-.7 2-4 2-4 .3-4 2c0 1.3-.7 2-2 2s-2-.7-2-2c0-1.9-.7-2-10-2s-10-.1-10-2c0-1.3-.7-2-2-2s-2-.7-2-2c0-1.7-.7-2-4-2s-4-.3-4-2c0-1.3-.7-2-2-2s-2-.7-2-2-.7-2-2-2-2-.7-2-2-.7-2-2-2c-1.7 0-2-.7-2-4s-.3-4-2-4c-1.3 0-2-.7-2-2s-.7-2-2-2c-1.9 0-2-.7-2-12s.1-12 2-12c1.7 0 2-.7 2-4s.3-4 2-4c1.3 0 2-.7 2-2s.7-2 2-2 2-.7 2-2 .7-2 2-2 2-.7 2-2c0-1.7.7-2 4-2s4-.3 4-2c0-1.3.7-2 2-2s2-.7 2-2c0-1.8-.7-2-8-2s-8-.2-8-2c0-1.7-.7-2-4-2s-4-.3-4-2c0-1.3-.7-2-2-2s-2-.7-2-2-.7-2-2-2-2-.7-2-2-.7-2-2-2-2-.7-2-2-.7-2-2-2c-1.7 0-2-.7-2-4s-.3-4-2-4c-1.9 0-2-.7-2-10s.1-10 2-10c1.8 0 2-.7 2-6s.2-6 2-6c1.7 0 2-.7 2-4s.3-4 2-4c1.3 0 2-.7 2-2s.7-2 2-2 2-.7 2-2 .7-2 2-2 2-.7 2-2 .7-2 2-2 2-.7 2-2c0-1.7.7-2 4-2s4-.3 4-2c0-1.9.7-2 10-2s10 .1 10 2c0 1.8.7 2 6 2s6 .2 6 2c0 1.3.7 2 2 2s2 .7 2 2c0 1.8.7 2 6 2h6v-12c0-11.3.1-12 2-12 1.7 0 2-.7 2-4s.3-4 2-4c1.3 0 2-.7 2-2s.7-2 2-2 2-.7 2-2c0-1.7.7-2 4-2s4-.3 4-2c0-1.8.7-2 6-2s6-.2 6-2c0-1.3.7-2 2-2s2 .7 2 2zm464 8c0 1.8.7 2 8 2s8 .2 8 2c0 1.7.7 2 4 2s4 .3 4 2c0 1.3.7 2 2 2s2 .7 2 2 .7 2 2 2c1.9 0 2 .7 2 16v16h16c15.3 0 16 .1 16 2 0 1.7.7 2 4 2h4v4c0 3.3.3 4 2 4 1.3 0 2 .7 2 2s.7 2 2 2c1.8 0 2 .7 2 6s.2 6 2 6c1.3 0 2 .7 2 2s-.7 2-2 2c-1.9 0-2 .7-2 10s-.1 10-2 10c-1.3 0-2 .7-2 2s-.7 2-2 2-2 .7-2 2-.7 2-2 2-2 .7-2 2c0 1.7-.7 2-4 2s-4 .3-4 2c0 1.8-.7 2-6 2s-6 .2-6 2c0 1.3-.7 2-2 2s-2 .7-2 2 .7 2 2 2 2 .7 2 2 .7 2 2 2c1.9 0 2 .7 2 12s-.1 12-2 12c-1.7 0-2 .7-2 4v4h-4c-3.3 0-4 .3-4 2 0 1.3-.7 2-2 2s-2 .7-2 2-.7 2-2 2-2 .7-2 2c0 1.8-.7 2-8 2s-8 .2-8 2c0 1.3-.7 2-2 2s-2-.7-2-2c0-1.8-.7-2-6-2s-6-.2-6-2c0-1.7-.7-2-4-2s-4-.3-4-2c0-1.3-.7-2-2-2-1.7 0-2-.7-2-4s-.3-4-2-4c-1.3 0-2-.7-2-2s-.7-2-2-2-2 .7-2 2-.7 2-2 2-2 .7-2 2-.7 2-2 2-2 .7-2 2c0 1.7-.7 2-4 2s-4 .3-4 2c0 1.9-.7 2-12 2s-12-.1-12-2c0-1.7-.7-2-4-2s-4-.3-4-2c0-1.3-.7-2-2-2s-2-.7-2-2-.7-2-2-2-2-.7-2-2-.7-2-2-2-2-.7-2-2-.7-2-2-2c-1.7 0-2-.7-2-4s-.3-4-2-4c-1.9 0-2-.7-2-10s.1-10 2-10c1.3 0 2-.7 2-2s.7-2 2-2 2-.7 2-2 .7-2 2-2 2-.7 2-2 .7-2 2-2c1.7 0 2-.7 2-4v-4h-4c-3.3 0-4-.3-4-2 0-1.3-.7-2-2-2s-2-.7-2-2c0-1.7-.7-2-4-2h-4v-4c0-3.3-.3-4-2-4s-2-.7-2-4-.3-4-2-4c-1.9 0-2-.7-2-10s.1-10 2-10c1.3 0 2-.7 2-2s.7-2 2-2c1.7 0 2-.7 2-4s.3-4 2-4 2-.7 2-4v-4h4c3.3 0 4-.3 4-2s.7-2 4-2 4-.3 4-2 .7-2 4-2 4 .3 4 2c0 1.8.7 2 8 2s8 .2 8 2c0 1.7.7 2 4 2s4 .3 4 2c0 1.3.7 2 2 2 1.9 0 2-.7 2-10s.1-10 2-10c1.7 0 2-.7 2-4v-4h4c3.3 0 4-.3 4-2 0-1.3.7-2 2-2s2-.7 2-2c0-1.8.7-2 8-2s8-.2 8-2c0-1.3.7-2 2-2s2 .7 2 2zm-324 96c0 1.7.7 2 4 2s4 .3 4 2c0 1.3.7 2 2 2s2 .7 2 2 .7 2 2 2 2 .7 2 2 .7 2 2 2 2 .7 2 2 .7 2 2 2c1.7 0 2 .7 2 4s.3 4 2 4c1.9 0 2 .7 2 12s-.1 12-2 12c-1.7 0-2 .7-2 4s-.3 4-2 4c-1.3 0-2 .7-2 2s-.7 2-2 2c-1.7 0-2 .7-2 4s-.3 4-2 4c-1.8 0-2 .7-2 6s-.2 6-2 6c-1.7 0-2 .7-2 4s-.3 4-2 4c-1.8 0-2-.7-2-8s-.2-8-2-8c-1.7 0-2-.7-2-4v-4h-4c-3.3 0-4-.3-4-2 0-1.3-.7-2-2-2s-2-.7-2-2-.7-2-2-2c-1.7 0-2-.7-2-4s-.3-4-2-4c-1.9 0-2-.7-2-14s.1-14 2-14c1.8 0 2-.7 2-6s.2-6 2-6 2-.7 2-6v-6h6c5.3 0 6 .2 6 2zm148 16c0 1.7.7 2 4 2s4 .3 4 2c0 1.3.7 2 2 2s2 .7 2 2 .7 2 2 2 2 .7 2 2 .7 2 2 2 2 .7 2 2 .7 2 2 2c1.9 0 2 .7 2 12s-.1 12-2 12c-1.7 0-2 .7-2 4v4h8c7.3 0 8-.2 8-2 0-1.7.7-2 4-2s4 .3 4 2c0 1.3.7 2 2 2s2-.7 2-2 .7-2 2-2 2 .7 2 2c0 1.8.7 2 6 2s6 .2 6 2c0 1.3.7 2 2 2 1.7 0 2 .7 2 4s.3 4 2 4 2 .7 2 4 .3 4 2 4c1.8 0 2 .7 2 8s.2 8 2 8c1.3 0 2 .7 2 2s-.7 2-2 2c-1.8 0-2 .7-2 8s-.2 8-2 8c-1.7 0-2 .7-2 4s-.3 4-2 4c-1.3 0-2 .7-2 2 0 1.7-.7 2-4 2s-4 .3-4 2c0 1.8-.7 2-8 2s-8 .2-8 2c0 1.7-.7 2-4 2s-4 .3-4 2c0 1.3.7 2 2 2 1.7 0 2 .7 2 4s.3 4 2 4c1.9 0 2 .7 2 14s-.1 14-2 14c-1.3 0-2 .7-2 2s-.7 2-2 2-2 .7-2 2-.7 2-2 2-2 .7-2 2-.7 2-2 2-2 .7-2 2c0 1.7-.7 2-4 2s-4 .3-4 2c0 1.9-.7 2-16 2s-16-.1-16-2c0-1.7-.7-2-4-2s-4-.3-4-2c0-1.3-.7-2-2-2-1.7 0-2-.7-2-4s-.3-4-2-4c-1.3 0-2-.7-2-2s-.7-2-2-2-2-.7-2-2-.7-2-2-2-2 .7-2 2-.7 2-2 2c-1.7 0-2 .7-2 4s-.3 4-2 4c-1.3 0-2 .7-2 2 0 1.7-.7 2-4 2s-4 .3-4 2c0 1.9-.7 2-12 2s-12-.1-12-2c0-1.7-.7-2-4-2s-4-.3-4-2-.7-2-4-2h-4v-4c0-3.3-.3-4-2-4-1.3 0-2-.7-2-2s-.7-2-2-2-2-.7-2-2-.7-2-2-2-2-.7-2-2-.7-2-2-2c-1.9 0-2-.7-2-14s.1-14 2-14c1.3 0 2-.7 2-2s.7-2 2-2c1.7 0 2-.7 2-4v-4h8v-8h-4c-3.3 0-4-.3-4-2 0-1.3-.7-2-2-2s-2-.7-2-2c0-1.7-.7-2-4-2s-4-.3-4-2c0-1.3-.7-2-2-2s-2-.7-2-2-.7-2-2-2c-1.8 0-2-.7-2-6s-.2-6-2-6-2-.7-2-6 .2-6 2-6 2-.7 2-6 .2-6 2-6c1.7 0 2-.7 2-4s.3-4 2-4 2-.7 2-4v-4h4c3.3 0 4-.3 4-2 0-1.3.7-2 2-2s2-.7 2-2c0-1.8.7-2 6-2s6-.2 6-2c0-1.7.7-2 4-2s4 .3 4 2c0 1.8.7 2 6 2s6 .2 6 2c0 1.7.7 2 4 2s4 .3 4 2 .7 2 4 2h4v-10c0-9.3.1-10 2-10 1.7 0 2-.7 2-4s.3-4 2-4c1.3 0 2-.7 2-2s.7-2 2-2 2-.7 2-2c0-1.7.7-2 4-2s4-.3 4-2c0-1.9.7-2 16-2s16 .1 16 2zm180 68c0 1.7.7 2 4 2s4 .3 4 2c0 1.3.7 2 2 2s2 .7 2 2 .7 2 2 2c1.8 0 2 .7 2 6s.2 6 2 6c1.3 0 2 .7 2 2 0 1.8.7 2 6 2s6 .2 6 2c0 1.7.7 2 4 2h4v4c0 3.3.3 4 2 4 1.9 0 2 .7 2 12s-.1 12-2 12c-1.3 0-2 .7-2 2 0 1.8-.7 2-8 2h-8v4c0 3.3.3 4 2 4 1.8 0 2 .7 2 8s-.2 8-2 8c-1.7 0-2 .7-2 4v4h-4c-3.3 0-4 .3-4 2 0 1.9-.7 2-10 2s-10-.1-10-2c0-1.3-.7-2-2-2s-2-.7-2-2-.7-2-2-2-2-.7-2-2-.7-2-2-2-2 .7-2 2-.7 2-2 2-2 .7-2 2c0 1.9-.7 2-12 2s-12-.1-12-2c0-1.3-.7-2-2-2s-2-.7-2-2-.7-2-2-2-2-.7-2-2-.7-2-2-2c-1.9 0-2-.7-2-10s.1-10 2-10c1.3 0 2-.7 2-2s.7-2 2-2 2-.7 2-2-.7-2-2-2-2-.7-2-2-.7-2-2-2-2-.7-2-2-.7-2-2-2c-1.7 0-2-.7-2-4s-.3-4-2-4-2-.7-2-4 .3-4 2-4 2-.7 2-4 .3-4 2-4 2-.7 2-4v-4h6c5.3 0 6-.2 6-2 0-1.7.7-2 4-2s4 .3 4 2 .7 2 4 2 4-.3 4-2c0-1.3.7-2 2-2 1.7 0 2-.7 2-4s.3-4 2-4c1.3 0 2-.7 2-2 0-1.7.7-2 4-2s4-.3 4-2c0-1.8.7-2 6-2s6 .2 6 2zm-556 16c0 1.8.7 2 6 2s6 .2 6 2c0 1.3.7 2 2 2s2 .7 2 2 .7 2 2 2 2 .7 2 2 .7 2 2 2 2 .7 2 2 .7 2 2 2c1.8 0 2 .7 2 6s.2 6 2 6c1.3 0 2 .7 2 2s.7 2 2 2 2 .7 2 2 .7 2 2 2c1.7 0 2 .7 2 4v4h-12c-11.3 0-12 .1-12 2s-.7 2-14 2-14-.1-14-2c0-1.3-.7-2-2-2s-2-.7-2-2-.7-2-2-2-2-.7-2-2-.7-2-2-2-2-.7-2-2-.7-2-2-2-2-.7-2-2-.7-2-2-2-2-.7-2-2-.7-2-2-2-2-.7-2-2-.7-2-2-2-2-.7-2-2-.7-2-2-2-2-.7-2-2 .7-2 2-2 2-.7 2-2 .7-2 2-2 2-.7 2-2c0-1.8.7-2 6-2s6-.2 6-2c0-1.9.7-2 10-2s10-.1 10-2c0-1.3.7-2 2-2s2 .7 2 2zm160 8c0 1.9.7 2 10 2s10 .1 10 2c0 1.8.7 2 8 2s8 .2 8 2c0 1.7.7 2 4 2s4 .3 4 2c0 1.3.7 2 2 2s2 .7 2 2c0 1.7.7 2 4 2s4 .3 4 2c0 1.3.7 2 2 2s2 .7 2 2 .7 2 2 2 2 .7 2 2 .7 2 2 2c1.7 0 2 .7 2 4s.3 4 2 4c1.3 0 2 .7 2 2s.7 2 2 2c1.8 0 2 .7 2 6s.2 6 2 6c1.9 0 2 .7 2 12s-.1 12-2 12c-1.8 0-2 .7-2 8s-.2 8-2 8-2 .7-2 6-.2 6-2 6c-1.3 0-2 .7-2 2s-.7 2-2 2c-1.7 0-2 .7-2 4s-.3 4-2 4c-1.3 0-2 .7-2 2s-.7 2-2 2-2 .7-2 2c0 1.7.7 2 4 2s4-.3 4-2c0-1.3.7-2 2-2s2-.7 2-2c0-1.7.7-2 4-2s4-.3 4-2 .7-2 4-2 4-.3 4-2c0-1.8.7-2 6-2s6-.2 6-2c0-1.9.7-2 14-2s14-.1 14-2c0-1.3.7-2 2-2s2 .7 2 2c0 1.8.7 2 8 2s8 .2 8 2c0 1.7.7 2 4 2s4 .3 4 2 .7 2 4 2 4 .3 4 2c0 1.3.7 2 2 2s2 .7 2 2 .7 2 2 2 2 .7 2 2 .7 2 2 2c1.7 0 2 .7 2 4s.3 4 2 4 2 .7 2 4 .3 4 2 4 2 .7 2 4 .3 4 2 4 2 .7 2 4 .3 4 2 4c1.9 0 2 .7 2 22s-.1 22-2 22c-1.8 0-2 .7-2 8s-.2 8-2 8c-1.7 0-2 .7-2 4s-.3 4-2 4c-1.3 0-2 .7-2 2s-.7 2-2 2-2 .7-2 2-.7 2-2 2-2 .7-2 2-.7 2-2 2-2 .7-2 2-.7 2-2 2-2 .7-2 2c0 1.7-.7 2-4 2s-4 .3-4 2c0 1.8-.7 2-6 2s-6 .2-6 2c0 2-.7 2-28 2s-28 0-28 2c0 1.7.7 2 4 2s4 .3 4 2c0 1.3.7 2 2 2s2 .7 2 2 .7 2 2 2 2 .7 2 2 .7 2 2 2 2 .7 2 2 .7 2 2 2 2 .7 2 2 .7 2 2 2 2 .7 2 2 .7 2 2 2c1.7 0 2 .7 2 4s.3 4 2 4c1.8 0 2 .7 2 6s.2 6 2 6c1.9 0 2 .7 2 14s-.1 14-2 14c-1.7 0-2 .7-2 4s-.3 4-2 4c-1.3 0-2 .7-2 2s-.7 2-2 2c-1.7 0-2 .7-2 4s-.3 4-2 4c-1.3 0-2 .7-2 2s-.7 2-2 2-2 .7-2 2-.7 2-2 2-2 .7-2 2-.7 2-2 2-2 .7-2 2c0 1.7-.7 2-4 2s-4 .3-4 2c0 1.3-.7 2-2 2s-2 .7-2 2c0 1.7-.7 2-4 2s-4 .3-4 2-.7 2-4 2-4 .3-4 2c0 1.8-.7 2-8 2s-8 .2-8 2c0 1.9-.7 2-16 2s-16-.1-16-2c0-1.8-.7-2-8-2s-8-.2-8-2c0-1.3-.7-2-2-2s-2-.7-2-2c0-1.7-.7-2-4-2s-4-.3-4-2c0-1.3-.7-2-2-2-1.7 0-2-.7-2-4s-.3-4-2-4c-1.3 0-2-.7-2-2s-.7-2-2-2c-1.7 0-2-.7-2-4s-.3-4-2-4-2-.7-2-4-.3-4-2-4c-1.8 0-2-.7-2-8s-.2-8-2-8c-1.7 0-2-.7-2-4s-.3-4-2-4c-1.8 0-2 .7-2 6s-.2 6-2 6c-1.7 0-2 .7-2 4s-.3 4-2 4-2 .7-2 4-.3 4-2 4c-1.3 0-2 .7-2 2s-.7 2-2 2c-1.7 0-2 .7-2 4v4h-4c-3.3 0-4 .3-4 2 0 1.3-.7 2-2 2s-2 .7-2 2-.7 2-2 2-2 .7-2 2c0 1.8-.7 2-6 2s-6 .2-6 2c0 1.9-.7 2-18 2s-18-.1-18-2c0-1.8-.7-2-6-2s-6-.2-6-2c0-1.7-.7-2-4-2s-4-.3-4-2-.7-2-4-2-4-.3-4-2c0-1.3-.7-2-2-2s-2-.7-2-2c0-1.7-.7-2-4-2s-4-.3-4-2c0-1.3-.7-2-2-2s-2-.7-2-2-.7-2-2-2-2-.7-2-2-.7-2-2-2-2-.7-2-2-.7-2-2-2c-1.7 0-2-.7-2-4s-.3-4-2-4c-1.3 0-2-.7-2-2s-.7-2-2-2c-1.7 0-2-.7-2-4s-.3-4-2-4-2-.7-2-4-.3-4-2-4c-1.9 0-2-.7-2-22s.1-22 2-22c1.3 0 2-.7 2-2s.7-2 2-2c1.7 0 2-.7 2-4s.3-4 2-4c1.3 0 2-.7 2-2s.7-2 2-2 2-.7 2-2 .7-2 2-2 2-.7 2-2c0-1.7.7-2 4-2s4-.3 4-2c0-1.3.7-2 2-2s2-.7 2-2c0-1.7.7-2 4-2s4-.3 4-2 .7-2 4-2 4-.3 4-2c0-1.8.7-2 6-2s6-.2 6-2c0-1.7-.7-2-4-2s-4-.3-4-2c0-1.9-.7-2-14-2s-14-.1-14-2c0-1.8-.7-2-8-2s-8-.2-8-2c0-1.3-.7-2-2-2s-2-.7-2-2c0-1.7-.7-2-4-2s-4-.3-4-2c0-1.3-.7-2-2-2s-2-.7-2-2-.7-2-2-2c-1.7 0-2-.7-2-4s-.3-4-2-4c-1.3 0-2-.7-2-2s-.7-2-2-2-2-.7-2-2-.7-2-2-2c-1.8 0-2-.7-2-6s-.2-6-2-6c-1.9 0-2-.7-2-20s.1-20 2-20c1.8 0 2-.7 2-6s.2-6 2-6 2-.7 2-6 .2-6 2-6c1.3 0 2-.7 2-2s.7-2 2-2c1.7 0 2-.7 2-4s.3-4 2-4c1.3 0 2-.7 2-2s.7-2 2-2 2-.7 2-2 .7-2 2-2 2-.7 2-2 .7-2 2-2 2-.7 2-2 .7-2 2-2 2-.7 2-2c0-1.7.7-2 4-2s4-.3 4-2 .7-2 4-2 4-.3 4-2c0-1.8.7-2 6-2s6-.2 6-2c0-1.9.7-2 12-2s12 .1 12 2c0 1.8.7 2 6 2s6 .2 6 2c0 1.7.7 2 4 2s4 .3 4 2c0 1.3.7 2 2 2s2 .7 2 2c0 1.7.7 2 4 2s4 .3 4 2c0 1.3.7 2 2 2s2 .7 2 2 .7 2 2 2 2 .7 2 2 .7 2 2 2 2 .7 2 2 .7 2 2 2 2 .7 2 2 .7 2 2 2c1.7 0 2 .7 2 4s.3 4 2 4c2 0 2-.7 2-32s0-32 2-32c1.7 0 2-.7 2-4s.3-4 2-4c1.3 0 2-.7 2-2s.7-2 2-2c1.7 0 2-.7 2-4s.3-4 2-4c1.3 0 2-.7 2-2 0-1.7.7-2 4-2s4-.3 4-2c0-1.3.7-2 2-2s2-.7 2-2c0-1.7.7-2 4-2s4-.3 4-2 .7-2 4-2 4-.3 4-2c0-1.9.7-2 12-2s12-.1 12-2c0-1.3.7-2 2-2s2 .7 2 2zm532 0c0 1.3.7 2 2 2 1.9 0 2 .7 2 14s-.1 14-2 14c-1.8 0-2 .7-2 8s-.2 8-2 8c-1.3 0-2 .7-2 2s-.7 2-2 2-2 .7-2 2-.7 2-2 2-2 .7-2 2c0 1.7-.7 2-4 2s-4 .3-4 2c0 1.9-.7 2-12 2s-12 .1-12 2c0 1.7-.7 2-4 2s-4 .3-4 2-.7 2-4 2-4 .3-4 2-.7 2-4 2-4-.3-4-2c0-1.3.7-2 2-2s2-.7 2-2 .7-2 2-2 2-.7 2-2c0-1.7.7-2 4-2h4v-14c0-13.3.1-14 2-14 1.8 0 2-.7 2-6s.2-6 2-6c1.3 0 2-.7 2-2s.7-2 2-2 2-.7 2-2 .7-2 2-2 2-.7 2-2 .7-2 2-2 2-.7 2-2c0-1.8.7-2 6-2s6-.2 6-2c0-1.7.7-2 4-2s4-.3 4-2c0-1.8.7-2 6-2s6 .2 6 2zm-204 72c0 1.7.7 2 4 2s4 .3 4 2 .7 2 4 2 4 .3 4 2c0 1.3.7 2 2 2s2 .7 2 2 .7 2 2 2c1.7 0 2 .7 2 4s.3 4 2 4 2 .7 2 4 .3 4 2 4c1.8 0 2 .7 2 8s.2 8 2 8c1.7 0 2 .7 2 4s.3 4 2 4c1.3 0 2-.7 2-2s.7-2 2-2c1.7 0 2-.7 2-4s.3-4 2-4 2-.7 2-4 .3-4 2-4c1.3 0 2-.7 2-2s.7-2 2-2 2-.7 2-2 .7-2 2-2 2-.7 2-2c0-1.7.7-2 4-2s4-.3 4-2c0-1.8.7-2 6-2s6-.2 6-2 .7-2 8-2 8 .2 8 2 .7 2 8 2 8 .2 8 2c0 1.3.7 2 2 2s2 .7 2 2c0 1.7.7 2 4 2s4 .3 4 2c0 1.3.7 2 2 2s2 .7 2 2 .7 2 2 2 2 .7 2 2 .7 2 2 2 2 .7 2 2 .7 2 2 2 2 .7 2 2 .7 2 2 2c1.7 0 2 .7 2 4s.3 4 2 4c1.8 0 2 .7 2 6s.2 6 2 6c1.9 0 2 .7 2 10s-.1 10-2 10c-1.7 0-2 .7-2 4s-.3 4-2 4c-1.3 0-2 .7-2 2s-.7 2-2 2-2 .7-2 2-.7 2-2 2c-1.7 0-2 .7-2 4s-.3 4-2 4c-1.3 0-2 .7-2 2 0 1.7-.7 2-4 2s-4 .3-4 2-.7 2-4 2-4 .3-4 2-.7 2-4 2-4 .3-4 2 .7 2 4 2 4 .3 4 2c0 1.3.7 2 2 2s2-.7 2-2c0-1.7.7-2 4-2s4 .3 4 2c0 1.3.7 2 2 2s2 .7 2 2c0 1.8.7 2 6 2s6 .2 6 2c0 1.7.7 2 4 2s4 .3 4 2 .7 2 4 2h4v4c0 3.3.3 4 2 4 1.3 0 2 .7 2 2s.7 2 2 2c1.9 0 2 .7 2 24s-.1 24-2 24c-1.7 0-2 .7-2 4s-.3 4-2 4c-1.3 0-2 .7-2 2s-.7 2-2 2c-1.7 0-2 .7-2 4s-.3 4-2 4c-1.3 0-2 .7-2 2s-.7 2-2 2-2 .7-2 2c0 1.7-.7 2-4 2s-4 .3-4 2-.7 2-4 2-4 .3-4 2c0 1.9-.7 2-16 2s-16-.1-16-2c0-1.8-.7-2-6-2s-6-.2-6-2c0-1.3-.7-2-2-2s-2-.7-2-2c0-1.7-.7-2-4-2h-4v-8h-8v4c0 3.3.3 4 2 4 1.9 0 2 .7 2 14s-.1 14-2 14c-1.8 0-2 .7-2 6s-.2 6-2 6c-1.3 0-2 .7-2 2s-.7 2-2 2-2 .7-2 2c0 1.7-.7 2-4 2s-4 .3-4 2-.7 2-4 2-4 .3-4 2c0 1.8-.7 2-6 2s-6 .2-6 2c0 1.3-.7 2-2 2s-2-.7-2-2-.7-2-2-2-2 .7-2 2-.7 2-2 2-2-.7-2-2-.7-2-2-2-2 .7-2 2-.7 2-2 2-2-.7-2-2c0-1.8-.7-2-8-2s-8-.2-8-2-.7-2-6-2-6-.2-6-2c0-1.3-.7-2-2-2s-2-.7-2-2-.7-2-2-2-2-.7-2-2-.7-2-2-2-2-.7-2-2-.7-2-2-2c-1.7 0-2-.7-2-4s-.3-4-2-4-2-.7-2-4-.3-4-2-4c-1.9 0-2-.7-2-10s.1-10 2-10c1.8 0 2-.7 2-8v-8h-6c-5.3 0-6 .2-6 2s-.7 2-6 2-6 .2-6 2c0 1.9-.7 2-10 2s-10-.1-10-2c0-1.8-.7-2-6-2s-6-.2-6-2c0-1.3-.7-2-2-2s-2-.7-2-2-.7-2-2-2-2-.7-2-2-.7-2-2-2-2-.7-2-2-.7-2-2-2-2-.7-2-2-.7-2-2-2c-1.7 0-2-.7-2-4s-.3-4-2-4c-1.8 0-2-.7-2-6s-.2-6-2-6c-1.9 0-2-.7-2-22s.1-22 2-22c1.7 0 2-.7 2-4s.3-4 2-4c1.3 0 2-.7 2-2s.7-2 2-2 2-.7 2-2 .7-2 2-2 2-.7 2-2 .7-2 2-2 2-.7 2-2c0-1.8.7-2 6-2s6-.2 6-2c0-1.9.7-2 16-2s16-.1 16-2c0-1.3-.7-2-2-2s-2-.7-2-2-.7-2-2-2-2-.7-2-2-.7-2-2-2c-1.7 0-2-.7-2-4s-.3-4-2-4-2-.7-2-4-.3-4-2-4c-1.8 0-2-.7-2-6s-.2-6-2-6-2-.7-2-6 .2-6 2-6 2-.7 2-8 .2-8 2-8c1.7 0 2-.7 2-4s.3-4 2-4c1.3 0 2-.7 2-2s.7-2 2-2 2-.7 2-2 .7-2 2-2 2-.7 2-2 .7-2 2-2 2-.7 2-2 .7-2 2-2 2-.7 2-2c0-1.7.7-2 4-2s4-.3 4-2c0-1.8.7-2 6-2s6-.2 6-2c0-1.9.7-2 16-2s16 .1 16 2zm264 18c0 11.3.1 12 2 12 1.3 0 2 .7 2 2s-.7 2-2 2c-1.9 0-2 .7-2 14s-.1 14-2 14c-1.3 0-2 .7-2 2s-.7 2-2 2c-1.7 0-2 .7-2 4s-.3 4-2 4c-1.3 0-2 .7-2 2 0 1.7-.7 2-4 2s-4 .3-4 2-.7 2-4 2-4 .3-4 2c0 1.3-.7 2-2 2s-2 .7-2 2c0 1.8.7 2 6 2s6 .2 6 2c0 1.7.7 2 4 2s4 .3 4 2c0 1.3.7 2 2 2s2 .7 2 2c0 1.7.7 2 4 2h4v4c0 3.3.3 4 2 4s2 .7 2 4 .3 4 2 4 2 .7 2 4 .3 4 2 4 2 .7 2 4-.3 4-2 4c-1.3 0-2 .7-2 2 0 1.9-.7 2-20 2s-20-.1-20-2c0-1.7-.7-2-4-2s-4-.3-4-2c0-1.3-.7-2-2-2s-2-.7-2-2-.7-2-2-2c-1.7 0-2-.7-2-4s-.3-4-2-4-2-.7-2-4-.3-4-2-4c-1.3 0-2-.7-2-2 0-1.9-.7-2-12-2s-12-.1-12-2c0-1.3-.7-2-2-2s-2-.7-2-2c0-1.7.7-2 4-2s4-.3 4-2c0-1.3.7-2 2-2s2-.7 2-2c0-1.7.7-2 4-2h4v-4c0-3.3.3-4 2-4 1.8 0 2-.7 2-6s-.2-6-2-6-2-.7-2-6 .2-6 2-6 2-.7 2-8 .2-8 2-8c1.7 0 2-.7 2-4s.3-4 2-4c1.3 0 2-.7 2-2s.7-2 2-2 2-.7 2-2c0-1.7.7-2 4-2s4-.3 4-2c0-1.8.7-2 6-2s6-.2 6-2c0-1.3.7-2 2-2s2-.7 2-2c0-1.7.7-2 4-2s4-.3 4-2c0-1.3.7-2 2-2s2-.7 2-2c0-1.8.7-2 6-2h6v12zm0 146c0 1.7.7 2 4 2s4 .3 4 2 .7 2 4 2 4 .3 4 2c0 1.3.7 2 2 2s2 .7 2 2 .7 2 2 2 2 .7 2 2c0 1.7.7 2 4 2s4 .3 4 2c0 1.3.7 2 2 2s2 .7 2 2 .7 2 2 2c1.7 0 2 .7 2 4s-.3 4-2 4c-1.3 0-2 .7-2 2s-.7 2-2 2-2 .7-2 2c0 1.7-.7 2-4 2s-4 .3-4 2-.7 2-4 2-4 .3-4 2c0 1.8-.7 2-6 2s-6 .2-6 2c0 1.9-.7 2-12 2s-12-.1-12-2c0-1.7-.7-2-4-2s-4-.3-4-2c0-1.3-.7-2-2-2s-2-.7-2-2c0-1.7-.7-2-4-2h-4v-6c0-5.3-.2-6-2-6-1.3 0-2-.7-2-2s-.7-2-2-2-2-.7-2-2c0-1.7-.7-2-4-2s-4-.3-4-2c0-1.3-.7-2-2-2s-2-.7-2-2-.7-2-2-2-2-.7-2-2-.7-2-2-2-2-.7-2-2 .7-2 2-2 2 .7 2 2c0 1.8.7 2 6 2s6 .2 6 2c0 1.3.7 2 2 2s2-.7 2-2c0-1.8.7-2 6-2s6-.2 6-2c0-1.3.7-2 2-2s2-.7 2-2c0-1.8.7-2 8-2s8-.2 8-2 .7-2 8-2 8 .2 8 2zm128 36c0 1.8.7 2 6 2s6 .2 6 2c0 1.7.7 2 4 2s4 .3 4 2c0 1.3.7 2 2 2s2 .7 2 2 .7 2 2 2 2 .7 2 2 .7 2 2 2c1.7 0 2 .7 2 4s.3 4 2 4c1.8 0 2 .7 2 8s-.2 8-2 8-2 .7-2 6-.2 6-2 6c-1.7 0-2 .7-2 4v4h4c3.3 0 4-.3 4-2 0-1.9.7-2 14-2s14 .1 14 2c0 1.3.7 2 2 2s2 .7 2 2c0 1.7.7 2 4 2h4v4c0 3.3.3 4 2 4s2 .7 2 4 .3 4 2 4c1.9 0 2 .7 2 14s-.1 14-2 14c-1.7 0-2 .7-2 4s-.3 4-2 4-2 .7-2 4v4h-4c-3.3 0-4 .3-4 2 0 1.3-.7 2-2 2s-2 .7-2 2c0 1.9-.7 2-12 2s-12 .1-12 2c0 1.3-.7 2-2 2s-2 .7-2 2 .7 2 2 2c1.7 0 2 .7 2 4s.3 4 2 4 2 .7 2 4 .3 4 2 4 2 .7 2 4-.3 4-2 4-2 .7-2 4-.3 4-2 4c-1.3 0-2 .7-2 2s-.7 2-2 2-2 .7-2 2-.7 2-2 2-2 .7-2 2-.7 2-2 2-2 .7-2 2c0 1.7-.7 2-4 2s-4 .3-4 2c0 1.8-.7 2-6 2s-6 .2-6 2-.7 2-8 2-8-.2-8-2-.7-2-6-2-6-.2-6-2c0-1.3-.7-2-2-2s-2-.7-2-2-.7-2-2-2c-1.7 0-2-.7-2-4s-.3-4-2-4c-1.3 0-2-.7-2-2s-.7-2-2-2-2-.7-2-2c0-1.7-.7-2-4-2s-4 .3-4 2c0 1.3-.7 2-2 2s-2 .7-2 2c0 1.7-.7 2-4 2s-4 .3-4 2c0 1.9-.7 2-14 2s-14-.1-14-2c0-1.3-.7-2-2-2s-2-.7-2-2c0-1.7-.7-2-4-2s-4-.3-4-2c0-1.3-.7-2-2-2s-2-.7-2-2-.7-2-2-2c-1.7 0-2-.7-2-4s-.3-4-2-4c-1.3 0-2-.7-2-2s-.7-2-2-2c-1.9 0-2-.7-2-14s.1-14 2-14c1.7 0 2-.7 2-4s.3-4 2-4c1.3 0 2-.7 2-2s.7-2 2-2 2-.7 2-2c0-1.8.7-2 6-2s6-.2 6-2c0-1.3-.7-2-2-2s-2-.7-2-2-.7-2-2-2-2-.7-2-2c0-1.7-.7-2-4-2s-4-.3-4-2c0-1.3-.7-2-2-2s-2-.7-2-2-.7-2-2-2-2-.7-2-2-.7-2-2-2-2-.7-2-2-.7-2-2-2c-1.9 0-2-.7-2-14s.1-14 2-14c1.7 0 2-.7 2-4s.3-4 2-4c1.3 0 2-.7 2-2s.7-2 2-2 2-.7 2-2 .7-2 2-2c1.7 0 2-.7 2-4v-4h4c3.3 0 4-.3 4-2 0-1.9.7-2 16-2s16 .1 16 2c0 1.7.7 2 4 2s4 .3 4 2c0 1.3.7 2 2 2s2 .7 2 2c0 1.7.7 2 4 2h4v-8c0-7.3.2-8 2-8 1.7 0 2-.7 2-4s.3-4 2-4c1.3 0 2-.7 2-2s.7-2 2-2 2-.7 2-2 .7-2 2-2 2-.7 2-2c0-1.8.7-2 6-2s6-.2 6-2 .7-2 8-2 8 .2 8 2zm-516 36c0 1.3.7 2 2 2s2-.7 2-2 .7-2 2-2 2 .7 2 2c0 1.8.7 2 6 2s6 .2 6 2c0 1.3.7 2 2 2s2 .7 2 2 .7 2 2 2 2 .7 2 2c0 1.7.7 2 4 2h4v4c0 3.3.3 4 2 4 1.3 0 2 .7 2 2s.7 2 2 2 2 .7 2 2 .7 2 2 2c1.7 0 2 .7 2 4s.3 4 2 4 2 .7 2 4-.3 4-2 4c-1.3 0-2 .7-2 2s.7 2 2 2 2 .7 2 2 .7 2 2 2 2 .7 2 2 .7 2 2 2 2 .7 2 2 .7 2 2 2 2 .7 2 2 .7 2 2 2 2 .7 2 2 .7 2 2 2 2 .7 2 2 .7 2 2 2 2 .7 2 2 .7 2 2 2c1.7 0 2 .7 2 4s.3 4 2 4c1.3 0 2 .7 2 2s-.7 2-2 2-2-.7-2-2-.7-2-2-2-2-.7-2-2c0-1.7-.7-2-4-2s-4-.3-4-2c0-1.3-.7-2-2-2s-2-.7-2-2c0-1.7-.7-2-4-2s-4-.3-4-2c0-1.8-.7-2-6-2s-6 .2-6 2-.7 2-6 2-6 .2-6 2-.7 2-8 2-8 .2-8 2c0 1.9-.7 2-12 2s-12-.1-12-2c0-1.8-.7-2-6-2s-6-.2-6-2c0-1.7-.7-2-4-2s-4-.3-4-2c0-1.3-.7-2-2-2s-2-.7-2-2-.7-2-2-2c-1.7 0-2-.7-2-4s-.3-4-2-4c-1.3 0-2-.7-2-2s-.7-2-2-2-2-.7-2-2-.7-2-2-2c-1.7 0-2-.7-2-4s-.3-4-2-4c-1.3 0-2-.7-2-2 0-1.7-.7-2-4-2s-4-.3-4-2c0-1.3-.7-2-2-2s-2-.7-2-2-.7-2-2-2-2-.7-2-2-.7-2-2-2-2-.7-2-2 .7-2 2-2c1.7 0 2-.7 2-4v-4h6c5.3 0 6-.2 6-2 0-1.7.7-2 4-2s4-.3 4-2c0-1.8.7-2 8-2s8-.2 8-2c0-1.9.7-2 12-2s12-.1 12-2c0-1.7.7-2 4-2s4 .3 4 2zm308 16c0 1.7.7 2 4 2s4 .3 4 2 .7 2 4 2 4 .3 4 2c0 1.3.7 2 2 2 1.7 0 2 .7 2 4s.3 4 2 4c1.3 0 2 .7 2 2s.7 2 2 2c1.7 0 2 .7 2 4s.3 4 2 4c1.8 0 2-.7 2-8s.2-8 2-8c1.3 0 2-.7 2-2s.7-2 2-2 2-.7 2-2 .7-2 2-2 2-.7 2-2c0-1.7.7-2 4-2s4-.3 4-2c0-1.9.7-2 10-2h10v16c0 15.3-.1 16-2 16-1.7 0-2 .7-2 4s-.3 4-2 4c-1.3 0-2 .7-2 2 0 1.7-.7 2-4 2s-4 .3-4 2-.7 2-4 2-4 .3-4 2-.7 2-4 2h-4v8c0 7.3-.2 8-2 8-1.3 0-2 .7-2 2s-.7 2-2 2-2-.7-2-2-.7-2-2-2c-1.7 0-2-.7-2-4s-.3-4-2-4c-1.3 0-2-.7-2-2 0-1.9-.7-2-12-2s-12-.1-12-2c0-1.8-.7-2-8-2s-8-.2-8-2c0-1.3-.7-2-2-2s-2-.7-2-2-.7-2-2-2c-1.7 0-2-.7-2-4s-.3-4-2-4c-1.8 0-2-.7-2-6s-.2-6-2-6c-1.7 0-2-.7-2-4s-.3-4-2-4c-1.8 0-2-.7-2-6s.2-6 2-6c1.3 0 2-.7 2-2 0-1.9.7-2 16-2s16 .1 16 2zm340 6c0 3.3.3 4 2 4 1.3 0 2 .7 2 2s.7 2 2 2c1.7 0 2 .7 2 4s.3 4 2 4c1.3 0 2 .7 2 2s.7 2 2 2c1.8 0 2 .7 2 6s.2 6 2 6c1.9 0 2 .7 2 12s-.1 12-2 12c-1.7 0-2 .7-2 4s-.3 4-2 4-2 .7-2 4v4h-4c-3.3 0-4 .3-4 2 0 1.3-.7 2-2 2s-2 .7-2 2c0 1.7-.7 2-4 2s-4 .3-4 2c0 1.3-.7 2-2 2s-2 .7-2 2-.7 2-2 2c-1.7 0-2 .7-2 4s-.3 4-2 4-2 .7-2 4v4h-4c-3.3 0-4-.3-4-2 0-1.3.7-2 2-2 1.9 0 2-.7 2-10s-.1-10-2-10c-1.7 0-2-.7-2-4s-.3-4-2-4-2-.7-2-4-.3-4-2-4c-1.9 0-2-.7-2-16s.1-16 2-16c1.7 0 2-.7 2-4s.3-4 2-4c1.3 0 2-.7 2-2s.7-2 2-2 2-.7 2-2 .7-2 2-2 2-.7 2-2 .7-2 2-2c1.7 0 2-.7 2-4s.3-4 2-4c1.3 0 2-.7 2-2s.7-2 2-2 2-.7 2-2c0-1.7.7-2 4-2h4v4zm-404 30c0 1.7.7 2 4 2s4 .3 4 2c0 1.3.7 2 2 2 1.7 0 2 .7 2 4s.3 4 2 4c1.3 0 2 .7 2 2s-.7 2-2 2-2 .7-2 2 .7 2 2 2 2 .7 2 2c0 1.8.7 2 6 2s6 .2 6 2c0 1.3.7 2 2 2s2 .7 2 2 .7 2 2 2c1.8 0 2 .7 2 6s.2 6 2 6c1.3 0 2 .7 2 2s-.7 2-2 2c-1.7 0-2 .7-2 4s-.3 4-2 4c-1.3 0-2 .7-2 2s-.7 2-2 2-2 .7-2 2c0 1.7-.7 2-4 2s-4 .3-4 2c0 1.3-.7 2-2 2-1.9 0-2 .7-2 10s-.1 10-2 10c-1.3 0-2 .7-2 2 0 1.7-.7 2-4 2s-4 .3-4 2c0 1.8-.7 2-6 2s-6-.2-6-2-.7-2-6-2h-6v-8h-4c-3.3 0-4 .3-4 2 0 1.9-.7 2-10 2s-10-.1-10-2c0-1.3-.7-2-2-2s-2-.7-2-2-.7-2-2-2-2-.7-2-2-.7-2-2-2c-1.9 0-2-.7-2-10s.1-10 2-10c1.3 0 2-.7 2-2s.7-2 2-2 2-.7 2-2-.7-2-2-2-2-.7-2-2-.7-2-2-2-2-.7-2-2-.7-2-2-2c-1.9 0-2-.7-2-10s.1-10 2-10c1.3 0 2-.7 2-2s.7-2 2-2 2-.7 2-2 .7-2 2-2 2-.7 2-2c0-1.9.7-2 10-2s10 .1 10 2c0 1.3.7 2 2 2s2-.7 2-2 .7-2 2-2c1.7 0 2-.7 2-4v-4h4c3.3 0 4-.3 4-2 0-1.8.7-2 8-2s8 .2 8 2zm-528 24c0 1.7.7 2 4 2s4 .3 4 2c0 1.8.7 2 6 2s6 .2 6 2c0 1.3.7 2 2 2s2 .7 2 2 .7 2 2 2c1.8 0 2 .7 2 6s.2 6 2 6c1.9 0 2 .7 2 12s-.1 12-2 12c-1.7 0-2 .7-2 4v4h4c3.3 0 4-.3 4-2 0-1.9.7-2 14-2s14 .1 14 2c0 1.7.7 2 4 2s4 .3 4 2 .7 2 4 2h4v4c0 3.3.3 4 2 4s2 .7 2 4 .3 4 2 4 2 .7 2 4 .3 4 2 4c1.8 0 2 .7 2 8s-.2 8-2 8-2 .7-2 6-.2 6-2 6c-1.7 0-2 .7-2 4s-.3 4-2 4c-1.3 0-2 .7-2 2s-.7 2-2 2-2 .7-2 2c0 1.7-.7 2-4 2s-4 .3-4 2c0 1.9-.7 2-12 2h-12v4c0 3.3.3 4 2 4s2 .7 2 4 .3 4 2 4c1.3 0 2 .7 2 2s.7 2 2 2c1.9 0 2 .7 2 10s-.1 10-2 10c-1.7 0-2 .7-2 4s-.3 4-2 4-2 .7-2 4v4h-4c-3.3 0-4 .3-4 2 0 1.3-.7 2-2 2s-2 .7-2 2c0 1.7-.7 2-4 2s-4 .3-4 2c0 1.8-.7 2-6 2s-6 .2-6 2-.7 2-6 2-6 .2-6 2c0 1.7.7 2 4 2s4 .3 4 2c0 1.3.7 2 2 2s2 .7 2 2 .7 2 2 2 2 .7 2 2 .7 2 2 2 2 .7 2 2 .7 2 2 2c1.7 0 2 .7 2 4s.3 4 2 4c1.3 0 2 .7 2 2s-.7 2-2 2c-1.9 0-2 .7-2 12s.1 12 2 12c1.3 0 2-.7 2-2 0-1.8.7-2 6-2s6-.2 6-2 .7-2 6-2 6 .2 6 2c0 1.7.7 2 4 2s4 .3 4 2c0 1.3.7 2 2 2s2 .7 2 2 .7 2 2 2 2 .7 2 2 .7 2 2 2 2 .7 2 2 .7 2 2 2c1.8 0 2 .7 2 8s.2 8 2 8c1.7 0 2 .7 2 4s-.3 4-2 4c-1.8 0-2 .7-2 8s-.2 8-2 8c-1.3 0-2 .7-2 2s-.7 2-2 2-2 .7-2 2-.7 2-2 2-2 .7-2 2c0 1.7-.7 2-4 2s-4 .3-4 2c0 1.8-.7 2-8 2h-8v6c0 5.3.2 6 2 6 1.7 0 2 .7 2 4s.3 4 2 4c1.8 0 2 .7 2 8s-.2 8-2 8c-1.7 0-2 .7-2 4s-.3 4-2 4c-1.3 0-2 .7-2 2s-.7 2-2 2-2 .7-2 2-.7 2-2 2-2 .7-2 2-.7 2-2 2-2 .7-2 2c0 1.8-.7 2-6 2s-6 .2-6 2c0 1.9-.7 2-12 2s-12-.1-12-2c0-1.7-.7-2-4-2s-4-.3-4-2c0-1.3-.7-2-2-2s-2-.7-2-2-.7-2-2-2c-1.7 0-2-.7-2-4s-.3-4-2-4c-1.3 0-2-.7-2-2s-.7-2-2-2-2 .7-2 2-.7 2-2 2-2 .7-2 2-.7 2-2 2-2 .7-2 2-.7 2-2 2-2 .7-2 2c0 1.8-.7 2-6 2s-6 .2-6 2-.7 2-6 2-6-.2-6-2c0-1.7-.7-2-4-2s-4-.3-4-2-.7-2-4-2-4-.3-4-2c0-1.3-.7-2-2-2s-2-.7-2-2-.7-2-2-2-2-.7-2-2-.7-2-2-2-2-.7-2-2-.7-2-2-2c-1.7 0-2-.7-2-4s-.3-4-2-4c-1.9 0-2-.7-2-12s.1-12 2-12c1.3 0 2-.7 2-2s.7-2 2-2 2-.7 2-2 .7-2 2-2 2-.7 2-2 .7-2 2-2 2-.7 2-2 .7-2 2-2 2-.7 2-2c0-1.8-.7-2-6-2s-6-.2-6-2c0-1.7-.7-2-4-2s-4-.3-4-2c0-1.3-.7-2-2-2s-2-.7-2-2-.7-2-2-2c-1.7 0-2-.7-2-4s-.3-4-2-4c-1.8 0-2-.7-2-6s-.2-6-2-6c-1.7 0-2-.7-2-4s.3-4 2-4c1.8 0 2-.7 2-6s.2-6 2-6c1.7 0 2-.7 2-4s.3-4 2-4c1.3 0 2-.7 2-2s.7-2 2-2 2-.7 2-2c0-1.7.7-2 4-2s4-.3 4-2c0-1.3.7-2 2-2s2-.7 2-2c0-1.9.7-2 12-2s12 .1 12 2c0 1.3.7 2 2 2s2 .7 2 2c0 1.7.7 2 4 2s4 .3 4 2c0 1.3.7 2 2 2s2-.7 2-2 .7-2 2-2c1.9 0 2-.7 2-10s.1-10 2-10c1.7 0 2-.7 2-4s.3-4 2-4c1.3 0 2-.7 2-2 0-1.7.7-2 4-2s4-.3 4-2 .7-2 4-2 4-.3 4-2c0-1.8.7-2 6-2s6-.2 6-2c0-1.3-.7-2-2-2s-2-.7-2-2-.7-2-2-2-2-.7-2-2-.7-2-2-2c-1.7 0-2-.7-2-4s-.3-4-2-4-2-.7-2-4v-4h-4c-3.3 0-4 .3-4 2 0 1.3-.7 2-2 2-1.7 0-2 .7-2 4s-.3 4-2 4c-1.3 0-2 .7-2 2 0 1.7-.7 2-4 2s-4 .3-4 2c0 1.9-.7 2-14 2s-14-.1-14-2c0-1.7-.7-2-4-2s-4-.3-4-2-.7-2-4-2-4-.3-4-2c0-1.3-.7-2-2-2s-2-.7-2-2-.7-2-2-2c-1.7 0-2-.7-2-4s-.3-4-2-4c-1.3 0-2-.7-2-2s-.7-2-2-2c-1.7 0-2-.7-2-4s-.3-4-2-4c-1.8 0-2-.7-2-8s.2-8 2-8 2-.7 2-6 .2-6 2-6c1.3 0 2-.7 2-2s.7-2 2-2 2-.7 2-2c0-1.7.7-2 4-2s4-.3 4-2c0-1.3.7-2 2-2s2-.7 2-2-.7-2-2-2-2-.7-2-2c0-1.8-.7-2-6-2s-6-.2-6-2c0-1.7-.7-2-4-2s-4-.3-4-2c0-1.3-.7-2-2-2s-2-.7-2-2-.7-2-2-2-2-.7-2-2-.7-2-2-2c-1.8 0-2-.7-2-6s-.2-6-2-6c-1.3 0-2-.7-2-2s.7-2 2-2 2-.7 2-2-.7-2-2-2-2-.7-2-2 .7-2 2-2c1.8 0 2-.7 2-6s.2-6 2-6 2-.7 2-6 .2-6 2-6c1.3 0 2-.7 2-2s.7-2 2-2 2-.7 2-2 .7-2 2-2 2-.7 2-2c0-1.7.7-2 4-2s4-.3 4-2c0-1.8.7-2 6-2s6-.2 6-2c0-1.3.7-2 2-2s2 .7 2 2c0 1.8.7 2 8 2s8 .2 8 2c0 1.3.7 2 2 2s2 .7 2 2c0 1.7.7 2 4 2s4 .3 4 2c0 1.3.7 2 2 2 1.9 0 2-.7 2-10s.1-10 2-10c1.7 0 2-.7 2-4s.3-4 2-4 2-.7 2-4 .3-4 2-4c1.3 0 2-.7 2-2 0-1.7.7-2 4-2s4-.3 4-2 .7-2 4-2 4-.3 4-2c0-1.9.7-2 12-2s12 .1 12 2zm284 28c0 1.8.7 2 6 2s6 .2 6 2c0 1.7.7 2 4 2s4 .3 4 2 .7 2 4 2 4 .3 4 2c0 1.3.7 2 2 2s2 .7 2 2 .7 2 2 2 2 .7 2 2 .7 2 2 2c1.7 0 2 .7 2 4s.3 4 2 4 2 .7 2 4 .3 4 2 4c1.9 0 2 .7 2 14s-.1 14-2 14c-1.7 0-2 .7-2 4s-.3 4-2 4-2 .7-2 4-.3 4-2 4-2 .7-2 4-.3 4-2 4c-1.3 0-2 .7-2 2s-.7 2-2 2-2 .7-2 2c0 1.7.7 2 4 2s4-.3 4-2c0-1.3.7-2 2-2s2-.7 2-2c0-1.8.7-2 6-2s6-.2 6-2c0-1.9.7-2 16-2s16 .1 16 2c0 1.8.7 2 6 2s6 .2 6 2c0 1.3.7 2 2 2s2 .7 2 2 .7 2 2 2 2 .7 2 2 .7 2 2 2 2 .7 2 2 .7 2 2 2c1.7 0 2 .7 2 4s.3 4 2 4c1.8 0 2 .7 2 6s.2 6 2 6c1.3 0 2 .7 2 2s.7 2 2 2 2 .7 2 2-.7 2-2 2-2 .7-2 2 .7 2 2 2c1.8 0 2 .7 2 6s-.2 6-2 6c-1.3 0-2 .7-2 2s.7 2 2 2 2 .7 2 2-.7 2-2 2c-1.8 0-2 .7-2 6s-.2 6-2 6c-1.7 0-2 .7-2 4s-.3 4-2 4-2 .7-2 4-.3 4-2 4c-1.3 0-2 .7-2 2s-.7 2-2 2-2 .7-2 2c0 1.7-.7 2-4 2s-4 .3-4 2-.7 2-4 2-4 .3-4 2c0 1.9-.7 2-10 2s-10 .1-10 2c0 1.7-.7 2-4 2s-4-.3-4-2c0-1.8-.7-2-8-2h-8v4c0 3.3.3 4 2 4 1.3 0 2 .7 2 2s.7 2 2 2 2 .7 2 2 .7 2 2 2c1.7 0 2 .7 2 4s.3 4 2 4c1.9 0 2 .7 2 16s-.1 16-2 16c-1.7 0-2 .7-2 4s-.3 4-2 4-2 .7-2 4-.3 4-2 4c-1.3 0-2 .7-2 2s-.7 2-2 2-2 .7-2 2c0 1.7-.7 2-4 2s-4 .3-4 2-.7 2-4 2-4 .3-4 2-.7 2-4 2-4 .3-4 2-.7 2-4 2-4 .3-4 2c0 1.9-.7 2-14 2s-14-.1-14-2c0-1.8-.7-2-8-2s-8-.2-8-2c0-1.3-.7-2-2-2s-2-.7-2-2c0-1.7-.7-2-4-2s-4-.3-4-2c0-1.3-.7-2-2-2-1.7 0-2-.7-2-4s-.3-4-2-4c-1.3 0-2-.7-2-2s-.7-2-2-2c-1.9 0-2-.7-2-12v-12h-4c-3.3 0-4 .3-4 2 0 1.3-.7 2-2 2s-2 .7-2 2-.7 2-2 2c-1.7 0-2 .7-2 4s-.3 4-2 4c-1.3 0-2 .7-2 2s-.7 2-2 2-2 .7-2 2-.7 2-2 2-2 .7-2 2c0 1.7-.7 2-4 2s-4 .3-4 2c0 1.9-.7 2-16 2s-16-.1-16-2c0-1.7-.7-2-4-2s-4-.3-4-2-.7-2-4-2-4-.3-4-2c0-1.3-.7-2-2-2s-2-.7-2-2c0-1.7-.7-2-4-2s-4-.3-4-2c0-1.3-.7-2-2-2s-2-.7-2-2-.7-2-2-2c-1.7 0-2-.7-2-4s-.3-4-2-4c-1.3 0-2-.7-2-2s-.7-2-2-2c-1.7 0-2-.7-2-4s-.3-4-2-4-2-.7-2-4-.3-4-2-4c-1.9 0-2-.7-2-18s.1-18 2-18c1.7 0 2-.7 2-4s.3-4 2-4c1.3 0 2-.7 2-2s.7-2 2-2 2-.7 2-2c0-1.7.7-2 4-2s4-.3 4-2c0-1.3.7-2 2-2s2-.7 2-2c0-1.7.7-2 4-2s4-.3 4-2c0-1.8.7-2 8-2s8-.2 8-2c0-1.7-.7-2-4-2s-4-.3-4-2c0-1.8-.7-2-6-2s-6-.2-6-2c0-1.7-.7-2-4-2s-4-.3-4-2-.7-2-4-2-4-.3-4-2-.7-2-4-2-4-.3-4-2c0-1.3-.7-2-2-2-1.7 0-2-.7-2-4s-.3-4-2-4-2-.7-2-4-.3-4-2-4-2-.7-2-4-.3-4-2-4c-1.9 0-2-.7-2-12s.1-12 2-12c1.8 0 2-.7 2-6s.2-6 2-6c1.7 0 2-.7 2-4s.3-4 2-4c1.3 0 2-.7 2-2s.7-2 2-2c1.7 0 2-.7 2-4s.3-4 2-4c1.3 0 2-.7 2-2s.7-2 2-2 2-.7 2-2 .7-2 2-2 2-.7 2-2c0-1.7.7-2 4-2s4-.3 4-2c0-1.3.7-2 2-2s2-.7 2-2c0-1.8.7-2 6-2s6-.2 6-2c0-1.9.7-2 10-2s10 .1 10 2c0 1.8.7 2 6 2s6 .2 6 2c0 1.3.7 2 2 2s2 .7 2 2c0 1.7.7 2 4 2s4 .3 4 2c0 1.3.7 2 2 2s2 .7 2 2 .7 2 2 2 2 .7 2 2 .7 2 2 2 2 .7 2 2 .7 2 2 2c1.7 0 2 .7 2 4s.3 4 2 4c1.9 0 2-.7 2-16s.1-16 2-16c1.8 0 2-.7 2-6s.2-6 2-6c1.7 0 2-.7 2-4s.3-4 2-4c1.3 0 2-.7 2-2s.7-2 2-2 2-.7 2-2 .7-2 2-2 2-.7 2-2c0-1.7.7-2 4-2s4-.3 4-2c0-1.8.7-2 6-2s6-.2 6-2c0-1.9.7-2 16-2s16 .1 16 2zm368 12c0 1.8.7 2 8 2s8 .2 8 2c0 1.7.7 2 4 2s4 .3 4 2 .7 2 4 2 4 .3 4 2c0 1.3.7 2 2 2s2 .7 2 2 .7 2 2 2 2 .7 2 2 .7 2 2 2 2 .7 2 2 .7 2 2 2 2 .7 2 2 .7 2 2 2c1.7 0 2 .7 2 4s.3 4 2 4 2 .7 2 4 .3 4 2 4c1.9 0 2 .7 2 18s-.1 18-2 18c-1.8 0-2 .7-2 6s-.2 6-2 6c-1.7 0-2 .7-2 4s-.3 4-2 4-2 .7-2 4-.3 4-2 4-2 .7-2 4v4h4c3.3 0 4-.3 4-2s.7-2 4-2 4-.3 4-2c0-1.3.7-2 2-2s2-.7 2-2c0-1.8.7-2 8-2s8-.2 8-2c0-1.9.7-2 10-2s10-.1 10-2c0-1.3.7-2 2-2s2 .7 2 2c0 1.9.7 2 12 2s12 .1 12 2c0 1.3.7 2 2 2s2 .7 2 2c0 1.7.7 2 4 2s4 .3 4 2c0 1.3.7 2 2 2s2 .7 2 2 .7 2 2 2 2 .7 2 2 .7 2 2 2c1.7 0 2 .7 2 4s.3 4 2 4c1.3 0 2 .7 2 2s.7 2 2 2c1.7 0 2 .7 2 4s.3 4 2 4 2 .7 2 4 .3 4 2 4c1.9 0 2 .7 2 12s.1 12 2 12c1.3 0 2 .7 2 2s-.7 2-2 2c-1.9 0-2 .7-2 16s-.1 16-2 16c-1.7 0-2 .7-2 4s-.3 4-2 4c-1.3 0-2 .7-2 2s-.7 2-2 2-2 .7-2 2-.7 2-2 2c-1.7 0-2 .7-2 4s-.3 4-2 4c-1.3 0-2 .7-2 2 0 1.7-.7 2-4 2s-4 .3-4 2c0 1.3-.7 2-2 2s-2 .7-2 2c0 1.8-.7 2-6 2s-6 .2-6 2c0 1.9-.7 2-14 2s-14 .1-14 2c0 1.8-.7 2-6 2s-6-.2-6-2c0-1.3-.7-2-2-2s-2 .7-2 2-.7 2-2 2-2-.7-2-2-.7-2-2-2c-1.7 0-2 .7-2 4v4h4c3.3 0 4 .3 4 2 0 1.3.7 2 2 2s2 .7 2 2 .7 2 2 2c1.7 0 2 .7 2 4s.3 4 2 4c1.3 0 2 .7 2 2s.7 2 2 2c1.7 0 2 .7 2 4s.3 4 2 4c1.3 0 2 .7 2 2s.7 2 2 2c1.9 0 2 .7 2 20s-.1 20-2 20c-1.3 0-2 .7-2 2s-.7 2-2 2c-1.7 0-2 .7-2 4s-.3 4-2 4-2 .7-2 4-.3 4-2 4c-1.3 0-2 .7-2 2s-.7 2-2 2-2 .7-2 2c0 1.7-.7 2-4 2s-4 .3-4 2c0 1.3-.7 2-2 2s-2 .7-2 2-.7 2-2 2-2 .7-2 2c0 1.7-.7 2-4 2s-4 .3-4 2-.7 2-4 2-4 .3-4 2c0 1.8-.7 2-6 2s-6 .2-6 2c0 1.9-.7 2-22 2s-22-.1-22-2c0-1.7-.7-2-4-2s-4-.3-4-2-.7-2-4-2-4-.3-4-2c0-1.3-.7-2-2-2s-2-.7-2-2-.7-2-2-2-2-.7-2-2-.7-2-2-2-2-.7-2-2-.7-2-2-2-2-.7-2-2-.7-2-2-2c-1.8 0-2-.7-2-6s-.2-6-2-6c-1.7 0-2-.7-2-4s-.3-4-2-4c-1.8 0-2-.7-2-8s-.2-8-2-8c-1.3 0-2 .7-2 2s-.7 2-2 2c-1.7 0-2 .7-2 4s-.3 4-2 4-2 .7-2 4-.3 4-2 4-2 .7-2 4-.3 4-2 4c-1.3 0-2 .7-2 2s-.7 2-2 2-2 .7-2 2-.7 2-2 2-2 .7-2 2-.7 2-2 2-2 .7-2 2c0 1.7-.7 2-4 2s-4 .3-4 2-.7 2-4 2-4 .3-4 2c0 1.9-.7 2-22 2s-22-.1-22-2c0-1.7-.7-2-4-2s-4-.3-4-2-.7-2-4-2-4-.3-4-2-.7-2-4-2-4-.3-4-2c0-1.3-.7-2-2-2s-2-.7-2-2-.7-2-2-2-2-.7-2-2-.7-2-2-2-2-.7-2-2-.7-2-2-2-2-.7-2-2-.7-2-2-2-2-.7-2-2-.7-2-2-2-2-.7-2-2-.7-2-2-2-2-.7-2-2-.7-2-2-2c-1.7 0-2-.7-2-4s-.3-4-2-4-2-.7-2-4-.3-4-2-4c-1.8 0-2-.7-2-6s-.2-6-2-6c-1.9 0-2-.7-2-14s.1-14 2-14c1.8 0 2-.7 2-6s.2-6 2-6c1.3 0 2-.7 2-2s.7-2 2-2 2-.7 2-2 .7-2 2-2 2-.7 2-2 .7-2 2-2 2-.7 2-2 .7-2 2-2 2-.7 2-2 .7-2 2-2 2-.7 2-2 .7-2 2-2 2-.7 2-2c0-1.8.7-2 6-2s6-.2 6-2c0-1.7.7-2 4-2s4-.3 4-2 .7-2 4-2 4-.3 4-2c0-1.9-.7-2-12-2s-12-.1-12-2c0-1.8-.7-2-8-2s-8-.2-8-2-.7-2-6-2-6-.2-6-2c0-1.3-.7-2-2-2s-2-.7-2-2-.7-2-2-2-2-.7-2-2-.7-2-2-2-2-.7-2-2c0-1.7-.7-2-4-2h-4v-4c0-3.3-.3-4-2-4-1.3 0-2-.7-2-2s-.7-2-2-2c-1.7 0-2-.7-2-4s-.3-4-2-4c-2 0-2-.7-2-28s0-28 2-28c1.7 0 2-.7 2-4s.3-4 2-4 2-.7 2-4 .3-4 2-4c1.3 0 2-.7 2-2s.7-2 2-2c1.7 0 2-.7 2-4s.3-4 2-4c1.3 0 2-.7 2-2s.7-2 2-2 2-.7 2-2 .7-2 2-2c1.7 0 2-.7 2-4v-4h4c3.3 0 4-.3 4-2s.7-2 4-2 4-.3 4-2 .7-2 4-2 4-.3 4-2c0-1.8.7-2 8-2s8-.2 8-2c0-1.7.7-2 4-2s4 .3 4 2c0 1.3.7 2 2 2s2-.7 2-2 .7-2 2-2 2 .7 2 2c0 1.8.7 2 6 2s6 .2 6 2c0 1.7.7 2 4 2s4 .3 4 2c0 1.3.7 2 2 2s2 .7 2 2c0 1.7.7 2 4 2s4 .3 4 2c0 1.3.7 2 2 2s2 .7 2 2 .7 2 2 2 2 .7 2 2 .7 2 2 2 2 .7 2 2 .7 2 2 2 2 .7 2 2 .7 2 2 2 2 .7 2 2 .7 2 2 2 2 .7 2 2 .7 2 2 2c1.8 0 2-.7 2-6s-.2-6-2-6c-1.9 0-2-.7-2-22s.1-22 2-22c1.8 0 2-.7 2-6s.2-6 2-6c1.3 0 2-.7 2-2s.7-2 2-2c1.7 0 2-.7 2-4s.3-4 2-4c1.3 0 2-.7 2-2s.7-2 2-2 2-.7 2-2 .7-2 2-2 2-.7 2-2c0-1.7.7-2 4-2s4-.3 4-2 .7-2 4-2 4-.3 4-2c0-1.8.7-2 6-2s6-.2 6-2c0-1.9.7-2 20-2s20 .1 20 2zm288 8c0 1.8.7 2 8 2s8 .2 8 2c0 1.7.7 2 4 2s4 .3 4 2c0 1.3.7 2 2 2s2 .7 2 2 .7 2 2 2 2 .7 2 2 .7 2 2 2c1.8 0 2 .7 2 6s.2 6 2 6 2 .7 2 6-.2 6-2 6-2 .7-2 6-.2 6-2 6c-1.7 0-2 .7-2 4s.3 4 2 4c1.3 0 2-.7 2-2 0-1.9.7-2 14-2s14 .1 14 2c0 1.7.7 2 4 2s4 .3 4 2c0 1.3.7 2 2 2s2 .7 2 2 .7 2 2 2c1.7 0 2 .7 2 4s.3 4 2 4c1.8 0 2 .7 2 6s.2 6 2 6 2 .7 2 8-.2 8-2 8-2 .7-2 6-.2 6-2 6c-1.7 0-2 .7-2 4s-.3 4-2 4c-1.3 0-2 .7-2 2 0 1.7-.7 2-4 2s-4 .3-4 2-.7 2-4 2-4 .3-4 2-.7 2-4 2-4-.3-4-2c0-1.8-.7-2-6-2s-6 .2-6 2c0 1.3-.7 2-2 2s-2 .7-2 2 .7 2 2 2 2 .7 2 2 .7 2 2 2 2 .7 2 2 .7 2 2 2c1.9 0 2 .7 2 10s-.1 10-2 10c-1.7 0-2 .7-2 4s-.3 4-2 4-2 .7-2 4v4h-4c-3.3 0-4 .3-4 2 0 1.3-.7 2-2 2s-2 .7-2 2c0 1.7-.7 2-4 2s-4 .3-4 2c0 1.9-.7 2-12 2s-12-.1-12-2c0-1.8-.7-2-6-2s-6-.2-6-2c0-1.3-.7-2-2-2s-2-.7-2-2-.7-2-2-2-2-.7-2-2-.7-2-2-2c-1.7 0-2-.7-2-4s-.3-4-2-4c-1.3 0-2-.7-2-2 0-1.7-.7-2-4-2s-4 .3-4 2c0 1.3-.7 2-2 2s-2 .7-2 2-.7 2-2 2-2 .7-2 2c0 1.7-.7 2-4 2s-4 .3-4 2c0 1.8-.7 2-8 2s-8-.2-8-2-.7-2-6-2-6-.2-6-2c0-1.3-.7-2-2-2s-2-.7-2-2-.7-2-2-2-2-.7-2-2-.7-2-2-2-2-.7-2-2-.7-2-2-2-2-.7-2-2-.7-2-2-2c-1.7 0-2-.7-2-4s-.3-4-2-4c-1.8 0-2-.7-2-6s-.2-6-2-6c-1.3 0-2-.7-2-2s.7-2 2-2c1.8 0 2-.7 2-8s.2-8 2-8c1.3 0 2-.7 2-2s.7-2 2-2 2-.7 2-2c0-1.7.7-2 4-2s4-.3 4-2 .7-2 4-2 4-.3 4-2c0-1.3-.7-2-2-2s-2-.7-2-2c0-1.7-.7-2-4-2s-4-.3-4-2-.7-2-4-2-4-.3-4-2c0-1.3-.7-2-2-2-1.7 0-2-.7-2-4s-.3-4-2-4c-1.3 0-2-.7-2-2s-.7-2-2-2c-1.9 0-2-.7-2-14s.1-14 2-14c1.7 0 2-.7 2-4s.3-4 2-4c1.3 0 2-.7 2-2s.7-2 2-2 2-.7 2-2 .7-2 2-2 2-.7 2-2 .7-2 2-2 2-.7 2-2 .7-2 2-2 2-.7 2-2c0-1.7.7-2 4-2s4-.3 4-2c0-1.8.7-2 6-2s6 .2 6 2 .7 2 6 2 6 .2 6 2c0 1.7.7 2 4 2s4 .3 4 2c0 1.3.7 2 2 2s2 .7 2 2c0 1.7.7 2 4 2h4v-8c0-7.3.2-8 2-8 1.7 0 2-.7 2-4s.3-4 2-4 2-.7 2-4v-4h4c3.3 0 4-.3 4-2 0-1.9.7-2 10-2s10-.1 10-2c0-1.3.7-2 2-2s2 .7 2 2zm-548 4c0 1.3.7 2 2 2s2 .7 2 2c0 1.7.7 2 4 2s4 .3 4 2c0 1.3.7 2 2 2s2 .7 2 2 .7 2 2 2 2 .7 2 2 .7 2 2 2 2 .7 2 2 .7 2 2 2c1.7 0 2 .7 2 4s.3 4 2 4c1.9 0 2 .7 2 12s-.1 12-2 12c-1.8 0-2 .7-2 6s-.2 6-2 6c-1.9 0-2 .7-2 14s-.1 14-2 14c-1.8 0-2-.7-2-8s-.2-8-2-8c-1.3 0-2-.7-2-2s-.7-2-2-2-2-.7-2-2c0-1.8-.7-2-8-2s-8-.2-8-2c0-1.3-.7-2-2-2s-2-.7-2-2-.7-2-2-2-2-.7-2-2-.7-2-2-2-2-.7-2-2-.7-2-2-2c-1.9 0-2-.7-2-12s-.1-12-2-12c-1.3 0-2-.7-2-2s.7-2 2-2c1.9 0 2-.7 2-14v-14h10c9.3 0 10 .1 10 2zm632 172c0 1.3.7 2 2 2 1.8 0 2 .7 2 6s.2 6 2 6c1.9 0 2 .7 2 18s-.1 18-2 18c-1.7 0-2 .7-2 4s-.3 4-2 4c-1.3 0-2 .7-2 2s-.7 2-2 2-2 .7-2 2-.7 2-2 2-2 .7-2 2c0 1.8-.7 2-6 2s-6 .2-6 2-.7 2-6 2-6 .2-6 2c0 1.7-.7 2-4 2s-4 .3-4 2c0 1.3-.7 2-2 2s-2 .7-2 2-.7 2-2 2-2 .7-2 2-.7 2-2 2c-1.7 0-2-.7-2-4s.3-4 2-4c1.3 0 2-.7 2-2s.7-2 2-2c1.9 0 2-.7 2-14s-.1-14-2-14c-1.8 0-2-.7-2-6s.2-6 2-6 2-.7 2-6 .2-6 2-6c1.3 0 2-.7 2-2s.7-2 2-2 2-.7 2-2 .7-2 2-2 2-.7 2-2c0-1.7.7-2 4-2s4-.3 4-2 .7-2 4-2 4-.3 4-2c0-1.3.7-2 2-2s2-.7 2-2 .7-2 2-2 2-.7 2-2c0-1.7.7-2 4-2s4 .3 4 2zm-116 44c0 1.9.7 2 10 2s10 .1 10 2c0 1.3.7 2 2 2s2 .7 2 2 .7 2 2 2 2 .7 2 2c0 1.7.7 2 4 2h4v4c0 3.3.3 4 2 4s2 .7 2 4 .3 4 2 4c1.8 0 2 .7 2 8s-.2 8-2 8-2 .7-2 6-.2 6-2 6c-1.3 0-2 .7-2 2s-.7 2-2 2-2 .7-2 2c0 1.9.7 2 22 2s22 .1 22 2c0 1.7.7 2 4 2h4v4c0 3.3.3 4 2 4 1.3 0 2 .7 2 2s.7 2 2 2c1.7 0 2 .7 2 4s.3 4 2 4c1.9 0 2 .7 2 18s-.1 18-2 18c-1.7 0-2 .7-2 4s-.3 4-2 4c-1.3 0-2 .7-2 2s-.7 2-2 2-2 .7-2 2c0 1.7-.7 2-4 2s-4 .3-4 2c0 1.8-.7 2-6 2s-6 .2-6 2c0 1.9-.7 2-12 2s-12 .1-12 2c0 1.3.7 2 2 2s2 .7 2 2 .7 2 2 2c1.7 0 2 .7 2 4s.3 4 2 4c1.9 0 2 .7 2 12s-.1 12-2 12c-1.7 0-2 .7-2 4s-.3 4-2 4c-1.3 0-2 .7-2 2s-.7 2-2 2-2 .7-2 2-.7 2-2 2-2 .7-2 2c0 1.7-.7 2-4 2s-4 .3-4 2-.7 2-4 2-4 .3-4 2c0 1.9-.7 2-14 2s-14-.1-14-2c0-1.7-.7-2-4-2s-4-.3-4-2-.7-2-4-2-4-.3-4-2c0-1.3-.7-2-2-2s-2-.7-2-2-.7-2-2-2c-1.8 0-2-.7-2-6s-.2-6-2-6c-1.3 0-2-.7-2-2 0-1.7-.7-2-4-2s-4 .3-4 2c0 1.3-.7 2-2 2s-2 .7-2 2-.7 2-2 2-2 .7-2 2-.7 2-2 2-2 .7-2 2c0 1.8-.7 2-6 2s-6 .2-6 2c0 1.3-.7 2-2 2s-2-.7-2-2c0-1.9-.7-2-10-2s-10-.1-10-2c0-1.3-.7-2-2-2s-2-.7-2-2-.7-2-2-2-2-.7-2-2-.7-2-2-2-2-.7-2-2-.7-2-2-2-2-.7-2-2-.7-2-2-2-2-.7-2-2-.7-2-2-2c-1.7 0-2-.7-2-4s-.3-4-2-4-2-.7-2-4-.3-4-2-4c-1.8 0-2-.7-2-6s.2-6 2-6 2-.7 2-6 .2-6 2-6c1.3 0 2-.7 2-2s.7-2 2-2c1.7 0 2-.7 2-4v-4h4c3.3 0 4-.3 4-2s.7-2 4-2 4-.3 4-2c0-1.3.7-2 2-2s2-.7 2-2c0-1.7-.7-2-4-2s-4-.3-4-2c0-1.8-.7-2-6-2s-6-.2-6-2c0-1.3-.7-2-2-2s-2-.7-2-2-.7-2-2-2-2-.7-2-2-.7-2-2-2c-1.7 0-2-.7-2-4s-.3-4-2-4c-1.8 0-2-.7-2-8s-.2-8-2-8c-1.3 0-2-.7-2-2s.7-2 2-2c1.8 0 2-.7 2-6s.2-6 2-6c1.7 0 2-.7 2-4s.3-4 2-4 2-.7 2-4 .3-4 2-4c1.3 0 2-.7 2-2s.7-2 2-2 2-.7 2-2c0-1.7.7-2 4-2s4-.3 4-2c0-1.3.7-2 2-2s2-.7 2-2c0-1.9.7-2 14-2s14 .1 14 2c0 1.3.7 2 2 2s2 .7 2 2c0 1.7.7 2 4 2s4 .3 4 2c0 1.3.7 2 2 2s2 .7 2 2 .7 2 2 2 2 .7 2 2 .7 2 2 2c1.8 0 2-.7 2-6s.2-6 2-6 2-.7 2-8 .2-8 2-8c1.3 0 2-.7 2-2s.7-2 2-2 2-.7 2-2 .7-2 2-2 2-.7 2-2 .7-2 2-2 2-.7 2-2c0-1.8.7-2 6-2s6-.2 6-2 .7-2 8-2 8 .2 8 2zm-492 16c0 5.3.2 6 2 6 1.9 0 2 .7 2 22s-.1 22-2 22c-1.3 0-2 .7-2 2s-.7 2-2 2-2 .7-2 2c0 1.7-.7 2-4 2s-4 .3-4 2-.7 2-4 2-4 .3-4 2-.7 2-4 2-4 .3-4 2-.7 2-4 2h-4v8h-4c-3.3 0-4 .3-4 2 0 1.3-.7 2-2 2-1.7 0-2-.7-2-4s.3-4 2-4c1.3 0 2-.7 2-2s.7-2 2-2c1.8 0 2-.7 2-6s-.2-6-2-6c-1.9 0-2-.7-2-18s.1-18 2-18c1.3 0 2-.7 2-2s.7-2 2-2 2-.7 2-2 .7-2 2-2 2-.7 2-2 .7-2 2-2 2-.7 2-2 .7-2 2-2 2-.7 2-2c0-1.7.7-2 4-2s4-.3 4-2c0-1.3.7-2 2-2s2-.7 2-2c0-1.8.7-2 6-2h6v6zm-212 40c0 1.7.7 2 4 2s4 .3 4 2c0 1.3.7 2 2 2s2 .7 2 2 .7 2 2 2 2 .7 2 2c0 1.7.7 2 4 2s4 .3 4 2c0 1.3.7 2 2 2 1.8 0 2 .7 2 6s.2 6 2 6 2 .7 2 8-.2 8-2 8-2 .7-2 6-.2 6-2 6c-1.7 0-2 .7-2 4s-.3 4-2 4c-1.3 0-2 .7-2 2 0 1.8.7 2 8 2s8-.2 8-2c0-1.9.7-2 10-2s10 .1 10 2c0 1.8.7 2 6 2s6 .2 6 2c0 1.7.7 2 4 2s4 .3 4 2c0 1.3.7 2 2 2 1.7 0 2 .7 2 4s.3 4 2 4 2 .7 2 4 .3 4 2 4c1.9 0 2 .7 2 10s.1 10 2 10c1.3 0 2 .7 2 2s-.7 2-2 2c-1.9 0-2 .7-2 10s-.1 10-2 10c-1.7 0-2 .7-2 4s-.3 4-2 4c-1.3 0-2 .7-2 2s-.7 2-2 2-2 .7-2 2c0 1.7-.7 2-4 2s-4 .3-4 2-.7 2-4 2-4 .3-4 2c0 1.9-.7 2-16 2s-16 .1-16 2c0 1.3.7 2 2 2s2 .7 2 2 .7 2 2 2c1.7 0 2 .7 2 4s.3 4 2 4 2 .7 2 4 .3 4 2 4c1.8 0 2 .7 2 6s-.2 6-2 6-2 .7-2 6-.2 6-2 6c-1.3 0-2 .7-2 2s-.7 2-2 2-2 .7-2 2-.7 2-2 2-2 .7-2 2-.7 2-2 2-2 .7-2 2c0 1.7-.7 2-4 2s-4 .3-4 2c0 1.8-.7 2-6 2s-6 .2-6 2c0 1.9-.7 2-16 2s-16-.1-16-2c0-1.8-.7-2-6-2h-6v-4c0-3.3-.3-4-2-4-1.3 0-2-.7-2-2s-.7-2-2-2c-1.7 0-2-.7-2-4s-.3-4-2-4-2-.7-2-4-.3-4-2-4-2-.7-2-4-.3-4-2-4-2 .7-2 4-.3 4-2 4-2 .7-2 4-.3 4-2 4c-1.3 0-2 .7-2 2 0 1.7-.7 2-4 2s-4 .3-4 2c0 1.8-.7 2-6 2s-6 .2-6 2c0 1.3-.7 2-2 2s-2-.7-2-2-.7-2-2-2-2 .7-2 2-.7 2-2 2-2-.7-2-2c0-1.7-.7-2-4-2s-4-.3-4-2-.7-2-4-2-4-.3-4-2-.7-2-4-2-4-.3-4-2c0-1.3-.7-2-2-2s-2-.7-2-2-.7-2-2-2-2-.7-2-2-.7-2-2-2-2-.7-2-2-.7-2-2-2c-1.7 0-2-.7-2-4s-.3-4-2-4c-1.8 0-2-.7-2-6s-.2-6-2-6-2-.7-2-8 .2-8 2-8 2-.7 2-6 .2-6 2-6c1.3 0 2-.7 2-2s.7-2 2-2 2-.7 2-2 .7-2 2-2 2-.7 2-2c0-1.7.7-2 4-2s4-.3 4-2c0-1.3.7-2 2-2s2-.7 2-2 .7-2 2-2 2-.7 2-2c0-1.7-.7-2-4-2s-4-.3-4-2c0-1.8-.7-2-6-2s-6-.2-6-2c0-1.3-.7-2-2-2s-2-.7-2-2-.7-2-2-2-2-.7-2-2-.7-2-2-2-2-.7-2-2-.7-2-2-2c-1.7 0-2-.7-2-4s-.3-4-2-4c-1.9 0-2-.7-2-14s.1-14 2-14c1.7 0 2-.7 2-4s.3-4 2-4 2-.7 2-4 .3-4 2-4c1.3 0 2-.7 2-2s.7-2 2-2 2-.7 2-2 .7-2 2-2 2-.7 2-2 .7-2 2-2 2-.7 2-2c0-1.7.7-2 4-2s4-.3 4-2c0-1.3.7-2 2-2s2-.7 2-2c0-1.9.7-2 12-2s12 .1 12 2c0 1.7.7 2 4 2s4 .3 4 2 .7 2 4 2 4 .3 4 2c0 1.3.7 2 2 2s2 .7 2 2 .7 2 2 2 2 .7 2 2c0 1.7.7 2 4 2h4v-10c0-9.3.1-10 2-10 1.7 0 2-.7 2-4s.3-4 2-4c1.3 0 2-.7 2-2s.7-2 2-2c1.7 0 2-.7 2-4v-4h4c3.3 0 4-.3 4-2s.7-2 4-2 4-.3 4-2c0-1.9.7-2 18-2s18 .1 18 2zm220 44c0 1.7.7 2 4 2s4 .3 4 2c0 1.3.7 2 2 2s2 .7 2 2 .7 2 2 2 2 .7 2 2 .7 2 2 2c1.8 0 2 .7 2 6s.2 6 2 6c1.7 0 2 .7 2 4s-.3 4-2 4c-1.8 0-2 .7-2 6v6h6c5.3 0 6-.2 6-2 0-1.3.7-2 2-2s2 .7 2 2c0 1.8.7 2 6 2s6 .2 6 2c0 1.3.7 2 2 2s2 .7 2 2 .7 2 2 2 2 .7 2 2 .7 2 2 2c1.9 0 2 .7 2 18s-.1 18-2 18c-1.7 0-2 .7-2 4v4h-4c-3.3 0-4 .3-4 2 0 1.8-.7 2-6 2s-6 .2-6 2-.7 2-6 2-6 .2-6 2c0 1.3.7 2 2 2 1.9 0 2 .7 2 14s-.1 14-2 14c-1.3 0-2 .7-2 2s-.7 2-2 2-2 .7-2 2-.7 2-2 2-2 .7-2 2-.7 2-2 2-2 .7-2 2c0 1.8-.7 2-8 2s-8 .2-8 2c0 1.3-.7 2-2 2s-2-.7-2-2c0-1.8-.7-2-6-2s-6-.2-6-2c0-1.7-.7-2-4-2h-4v-4c0-3.3-.3-4-2-4-1.3 0-2-.7-2-2s-.7-2-2-2c-1.7 0-2-.7-2-4s-.3-4-2-4-2 .7-2 4v4h-4c-3.3 0-4 .3-4 2 0 1.3-.7 2-2 2s-2 .7-2 2c0 1.8-.7 2-8 2s-8-.2-8-2c0-1.7-.7-2-4-2s-4-.3-4-2-.7-2-4-2-4-.3-4-2c0-1.3-.7-2-2-2s-2-.7-2-2-.7-2-2-2c-1.7 0-2-.7-2-4s-.3-4-2-4c-1.3 0-2-.7-2-2s-.7-2-2-2c-1.9 0-2-.7-2-10s.1-10 2-10c1.3 0 2-.7 2-2s.7-2 2-2 2-.7 2-2 .7-2 2-2 2-.7 2-2 .7-2 2-2c1.7 0 2-.7 2-4s-.3-4-2-4c-1.3 0-2-.7-2-2s-.7-2-2-2-2-.7-2-2c0-1.7-.7-2-4-2h-4v-4c0-3.3-.3-4-2-4-1.9 0-2-.7-2-14s.1-14 2-14c1.3 0 2-.7 2-2s.7-2 2-2c1.7 0 2-.7 2-4s.3-4 2-4c1.3 0 2-.7 2-2 0-1.7.7-2 4-2s4-.3 4-2c0-1.9.7-2 12-2s12 .1 12 2c0 1.7.7 2 4 2s4 .3 4 2c0 1.3.7 2 2 2s2 .7 2 2 .7 2 2 2c1.7 0 2-.7 2-4s.3-4 2-4c1.8 0 2-.7 2-6s.2-6 2-6c1.3 0 2-.7 2-2s.7-2 2-2 2-.7 2-2c0-1.7.7-2 4-2s4-.3 4-2c0-1.9.7-2 12-2s12 .1 12 2zm176 44c0 1.8.7 2 8 2s8 .2 8 2c0 1.7.7 2 4 2s4 .3 4 2c0 1.3.7 2 2 2 1.7 0 2 .7 2 4s.3 4 2 4c1.9 0 2 .7 2 16v16h14c13.3 0 14 .1 14 2 0 1.3.7 2 2 2s2 .7 2 2 .7 2 2 2 2 .7 2 2 .7 2 2 2c1.9 0 2 .7 2 18s-.1 18-2 18c-1.3 0-2 .7-2 2s-.7 2-2 2-2 .7-2 2-.7 2-2 2-2 .7-2 2c0 1.7-.7 2-4 2s-4 .3-4 2c0 1.8-.7 2-8 2h-8v4c0 3.3.3 4 2 4 1.9 0 2 .7 2 10s-.1 10-2 10c-1.7 0-2 .7-2 4s-.3 4-2 4c-1.3 0-2 .7-2 2s-.7 2-2 2-2 .7-2 2c0 1.8-.7 2-6 2s-6 .2-6 2c0 1.9-.7 2-12 2s-12-.1-12-2c0-1.7-.7-2-4-2h-4v-4c0-3.3-.3-4-2-4-1.3 0-2-.7-2-2s-.7-2-2-2-2-.7-2-2c0-1.7-.7-2-4-2s-4 .3-4 2c0 1.3-.7 2-2 2s-2 .7-2 2c0 1.9-.7 2-16 2s-16-.1-16-2c0-1.3-.7-2-2-2s-2-.7-2-2-.7-2-2-2-2-.7-2-2-.7-2-2-2c-1.7 0-2-.7-2-4s-.3-4-2-4-2-.7-2-4-.3-4-2-4c-1.8 0-2-.7-2-8s.2-8 2-8c1.7 0 2-.7 2-4v-4h4c3.3 0 4-.3 4-2 0-1.3.7-2 2-2 1.8 0 2-.7 2-6v-6h-4c-3.3 0-4-.3-4-2 0-1.3-.7-2-2-2s-2-.7-2-2-.7-2-2-2-2-.7-2-2-.7-2-2-2c-1.9 0-2-.7-2-14s.1-14 2-14c1.7 0 2-.7 2-4s.3-4 2-4c1.3 0 2-.7 2-2s.7-2 2-2 2-.7 2-2c0-1.7.7-2 4-2s4-.3 4-2 .7-2 4-2 4-.3 4-2 .7-2 4-2 4 .3 4 2 .7 2 4 2 4 .3 4 2 .7 2 4 2 4 .3 4 2 .7 2 4 2h4v-4c0-3.3.3-4 2-4s2-.7 2-4 .3-4 2-4c1.3 0 2-.7 2-2s.7-2 2-2 2-.7 2-2 .7-2 2-2 2-.7 2-2c0-1.7.7-2 4-2s4-.3 4-2 .7-2 4-2 4 .3 4 2zm-636 4c0 1.7.7 2 4 2s4 .3 4 2 .7 2 4 2 4 .3 4 2 .7 2 4 2 4 .3 4 2 .7 2 4 2 4 .3 4 2c0 1.3.7 2 2 2s2-.7 2-2c0-1.8.7-2 6-2s6-.2 6-2c0-1.7.7-2 4-2s4-.3 4-2 .7-2 4-2 4 .3 4 2c0 1.3-.7 2-2 2-1.8 0-2 .7-2 6s-.2 6-2 6c-1.3 0-2 .7-2 2s-.7 2-2 2c-1.9 0-2 .7-2 10s.1 10 2 10c1.3 0 2 .7 2 2s.7 2 2 2c1.8 0 2 .7 2 6s.2 6 2 6c1.3 0 2 .7 2 2s.7 2 2 2c1.8 0 2 .7 2 6s.2 6 2 6 2 .7 2 8-.2 8-2 8-2 .7-2 6-.2 6-2 6c-1.3 0-2 .7-2 2s-.7 2-2 2c-1.7 0-2 .7-2 4s-.3 4-2 4c-1.3 0-2 .7-2 2s-.7 2-2 2-2 .7-2 2-.7 2-2 2c-1.7 0-2 .7-2 4s-.3 4-2 4-2 .7-2 4-.3 4-2 4-2 .7-2 4-.3 4-2 4c-1.3 0-2 .7-2 2s-.7 2-2 2-2-.7-2-2c0-1.7-.7-2-4-2s-4-.3-4-2c0-1.3-.7-2-2-2-1.7 0-2-.7-2-4s-.3-4-2-4-2-.7-2-4-.3-4-2-4-2-.7-2-4-.3-4-2-4c-1.8 0-2-.7-2-6s-.2-6-2-6-2-.7-2-8-.2-8-2-8-2-.7-2-6 .2-6 2-6 2-.7 2-6 .2-6 2-6c1.7 0 2-.7 2-4s.3-4 2-4c1.3 0 2-.7 2-2s.7-2 2-2c1.7 0 2-.7 2-4v-4h4c3.3 0 4-.3 4-2s.7-2 4-2 4-.3 4-2c0-1.3.7-2 2-2s2-.7 2-2 .7-2 2-2c1.7 0 2-.7 2-4v-4h-6c-5.3 0-6 .2-6 2 0 1.3-.7 2-2 2-1.7 0-2 .7-2 4v4h-4c-3.3 0-4 .3-4 2 0 1.3-.7 2-2 2s-2 .7-2 2c0 1.7-.7 2-4 2s-4 .3-4 2c0 1.9-.7 2-10 2s-10-.1-10-2c0-1.8-.7-2-6-2s-6-.2-6-2c0-1.7-.7-2-4-2s-4-.3-4-2c0-1.3-.7-2-2-2s-2-.7-2-2c0-1.7-.7-2-4-2s-4-.3-4-2c0-1.3-.7-2-2-2s-2-.7-2-2-.7-2-2-2c-1.7 0-2-.7-2-4s.3-4 2-4c1.3 0 2-.7 2-2 0-1.7.7-2 4-2s4-.3 4-2 .7-2 4-2 4-.3 4-2 .7-2 4-2 4-.3 4-2c0-1.3.7-2 2-2s2-.7 2-2c0-1.8.7-2 6-2s6-.2 6-2 .7-2 6-2 6 .2 6 2zm828 48c0 1.7.7 2 4 2s4 .3 4 2c0 1.3.7 2 2 2s2 .7 2 2 .7 2 2 2 2 .7 2 2 .7 2 2 2c1.7 0 2 .7 2 4s.3 4 2 4 2 .7 2 4 .3 4 2 4 2 .7 2 4 .3 4 2 4 2 .7 2 4v4h-4c-3.3 0-4 .3-4 2 0 1.8-.7 2-8 2h-8v4c0 3.3.3 4 2 4 1.3 0 2 .7 2 2s.7 2 2 2c1.7 0 2 .7 2 4s.3 4 2 4 2 .7 2 4 .3 4 2 4c1.9 0 2 .7 2 12s.1 12 2 12c1.3 0 2 .7 2 2s-.7 2-2 2-2 .7-2 2 .7 2 2 2c1.8 0 2 .7 2 8v8h-14c-13.3 0-14-.1-14-2 0-1.7-.7-2-4-2s-4-.3-4-2c0-1.3-.7-2-2-2s-2-.7-2-2c0-1.7-.7-2-4-2s-4-.3-4-2c0-1.3-.7-2-2-2s-2-.7-2-2-.7-2-2-2c-1.7 0-2-.7-2-4s-.3-4-2-4c-1.3 0-2-.7-2-2s-.7-2-2-2c-1.7 0-2-.7-2-4s-.3-4-2-4c-1.8 0-2-.7-2-6s-.2-6-2-6c-1.7 0-2-.7-2-4s.3-4 2-4c1.9 0 2-.7 2-10s-.1-10-2-10c-1.3 0-2 .7-2 2s-.7 2-2 2-2 .7-2 2-.7 2-2 2-2 .7-2 2c0 1.7-.7 2-4 2s-4 .3-4 2c0 1.3-.7 2-2 2s-2 .7-2 2c0 1.9-.7 2-20 2s-20-.1-20-2c0-1.3-.7-2-2-2s-2-.7-2-2 .7-2 2-2c1.7 0 2-.7 2-4s.3-4 2-4 2-.7 2-4 .3-4 2-4 2-.7 2-4 .3-4 2-4 2-.7 2-4 .3-4 2-4c1.3 0 2-.7 2-2s.7-2 2-2 2-.7 2-2 .7-2 2-2 2-.7 2-2 .7-2 2-2 2-.7 2-2c0-1.7.7-2 4-2s4-.3 4-2 .7-2 4-2 4-.3 4-2c0-1.9.7-2 12-2s12 .1 12 2c0 1.7.7 2 4 2h4v10c0 9.3-.1 10-2 10-1.8 0-2 .7-2 6v6h16v-4c0-3.3-.3-4-2-4-1.3 0-2-.7-2-2s-.7-2-2-2c-1.9 0-2-.7-2-12s.1-12 2-12c1.3 0 2-.7 2-2 0-1.9.7-2 10-2s10 .1 10 2zm-492 44c0 1.7.7 2 4 2s4 .3 4 2c0 1.3.7 2 2 2s2 .7 2 2c0 1.7.7 2 4 2s4 .3 4 2 .7 2 4 2 4 .3 4 2c0 1.3.7 2 2 2s2 .7 2 2 .7 2 2 2c1.7 0 2 .7 2 4s.3 4 2 4 2 .7 2 4 .3 4 2 4 2 .7 2 4-.3 4-2 4c-1.3 0-2 .7-2 2s.7 2 2 2 2 .7 2 2-.7 2-2 2c-1.9 0-2 .7-2 18v18h-6c-5.3 0-6-.2-6-2s-.7-2-6-2-6-.2-6-2c0-1.7-.7-2-4-2s-4-.3-4-2c0-1.3-.7-2-2-2s-2-.7-2-2-.7-2-2-2-2-.7-2-2-.7-2-2-2-2-.7-2-2-.7-2-2-2-2-.7-2-2-.7-2-2-2c-1.7 0-2-.7-2-4s-.3-4-2-4c-1.9 0-2-.7-2-16s.1-16 2-16c1.7 0 2-.7 2-4s.3-4 2-4c1.8 0 2-.7 2-8v-8h4c3.3 0 4 .3 4 2zm196 6c0 3.3-.3 4-2 4-1.9 0-2 .7-2 12s-.1 12-2 12c-1.7 0-2 .7-2 4s-.3 4-2 4c-1.3 0-2 .7-2 2s-.7 2-2 2-2 .7-2 2-.7 2-2 2-2 .7-2 2c0 1.8-.7 2-6 2s-6 .2-6 2c0 1.7-.7 2-4 2s-4 .3-4 2-.7 2-4 2h-4v-4c0-3.3-.3-4-2-4-1.9 0-2-.7-2-12s.1-12 2-12c1.7 0 2-.7 2-4s.3-4 2-4c1.3 0 2-.7 2-2s.7-2 2-2 2-.7 2-2 .7-2 2-2 2-.7 2-2c0-1.7.7-2 4-2s4-.3 4-2c0-1.9.7-2 12-2s12-.1 12-2c0-1.3.7-2 2-2 1.7 0 2 .7 2 4z" />
    <path
        d="M1649 859c0 1.8-.7 2-8 2h-8v6c0 5.3-.2 6-2 6-1.3 0-2 .7-2 2s-.7 2-2 2-2 .7-2 2 .7 2 2 2c1.8 0 2 .7 2 6v6h12v8h4c3.3 0 4-.3 4-2 0-1.8.7-2 6-2h6v-12h4c3.3 0 4-.3 4-2 0-1.3-.7-2-2-2s-2-.7-2-2-.7-2-2-2-2-.7-2-2 .7-2 2-2c1.7 0 2-.7 2-4v-4h-12v-4c0-3.3-.3-4-2-4-1.3 0-2 .7-2 2zm200 14v4h-4c-3.3 0-4-.3-4-2s-.7-2-4-2h-4v6c0 5.3-.2 6-2 6-1.3 0-2 .7-2 2s-.7 2-2 2-2 .7-2 2 .7 2 2 2c1.8 0 2 .7 2 6s-.2 6-2 6c-1.3 0-2 .7-2 2s.7 2 2 2 2 .7 2 2 .7 2 2 2 2-.7 2-2 .7-2 2-2 2 .7 2 2 .7 2 2 2 2 .7 2 2 .7 2 2 2 2 .7 2 2 .7 2 2 2 2-.7 2-2 .7-2 2-2 2-.7 2-2c0-1.7.7-2 4-2s4 .3 4 2c0 1.3.7 2 2 2 1.8 0 2-.7 2-6s.2-6 2-6c1.3 0 2-.7 2-2 0-1.7.7-2 4-2h4v-8h-8v-4c0-3.3.3-4 2-4s2-.7 2-4v-4h-6c-5.3 0-6 .2-6 2 0 1.3-.7 2-2 2-1.8 0-2-.7-2-6v-6h-8v4zm228 78c0 1.3-.7 2-2 2s-2 .7-2 2-.7 2-2 2-2 .7-2 2-.7 2-2 2-2 .7-2 2-.7 2-2 2-2-.7-2-2-.7-2-2-2-2-.7-2-2c0-1.7-.7-2-4-2s-4 .3-4 2c0 1.3-.7 2-2 2s-2 .7-2 2 .7 2 2 2c1.8 0 2 .7 2 6v6h-16v12h4c3.3 0 4 .3 4 2 0 1.3.7 2 2 2 1.8 0 2 .7 2 6s-.2 6-2 6c-1.7 0-2 .7-2 4v4h6c5.3 0 6-.2 6-2 0-1.7.7-2 4-2h4v8c0 7.3.2 8 2 8 1.3 0 2 .7 2 2s.7 2 2 2 2-.7 2-2 .7-2 2-2c1.7 0 2-.7 2-4s.3-4 2-4c1.3 0 2-.7 2-2 0-1.7.7-2 4-2s4 .3 4 2c0 1.3.7 2 2 2s2 .7 2 2 .7 2 2 2 2-.7 2-2 .7-2 2-2c1.7 0 2-.7 2-4s-.3-4-2-4-2-.7-2-4 .3-4 2-4c1.3 0 2-.7 2-2 0-1.8.7-2 6-2h6v-8h-4c-3.3 0-4-.3-4-2 0-1.3-.7-2-2-2-1.7 0-2-.7-2-4s.3-4 2-4 2-.7 2-4 .3-4 2-4c1.3 0 2-.7 2-2 0-1.8-.7-2-8-2s-8 .2-8 2c0 1.3-.7 2-2 2s-2-.7-2-2-.7-2-2-2c-1.8 0-2-.7-2-8s-.2-8-2-8c-1.3 0-2 .7-2 2zm-668 24c0 1.3-.7 2-2 2s-2 .7-2 2-.7 2-2 2c-1.7 0-2 .7-2 4s.3 4 2 4c1.8 0 2 .7 2 6v6h4c3.3 0 4 .3 4 2s.7 2 4 2 4-.3 4-2 .7-2 4-2 4-.3 4-2c0-1.3.7-2 2-2s2-.7 2-2 .7-2 2-2 2-.7 2-2-.7-2-2-2c-1.8 0-2-.7-2-6s-.2-6-2-6c-1.3 0-2-.7-2-2 0-1.9-.7-2-10-2s-10 .1-10 2zm292 140c0 1.3-.7 2-2 2-1.8 0-2 .7-2 6v6h-4c-3.3 0-4-.3-4-2 0-1.3-.7-2-2-2s-2-.7-2-2-.7-2-2-2-2-.7-2-2-.7-2-2-2-2 .7-2 2-.7 2-2 2c-1.8 0-2 .7-2 6s.2 6 2 6c1.7 0 2 .7 2 4s-.3 4-2 4c-1.3 0-2 .7-2 2 0 1.8-.7 2-8 2h-8v12h4c3.3 0 4 .3 4 2s.7 2 4 2h4v4c0 3.3-.3 4-2 4-1.3 0-2 .7-2 2s-.7 2-2 2-2 .7-2 2-.7 2-2 2-2 .7-2 2 .7 2 2 2 2 .7 2 2c0 1.7.7 2 4 2s4-.3 4-2c0-1.8.7-2 8-2h8v20h4c3.3 0 4-.3 4-2 0-1.3.7-2 2-2 1.7 0 2-.7 2-4s.3-4 2-4c1.3 0 2-.7 2-2 0-1.8.7-2 6-2h6v8h12v-6c0-5.3-.2-6-2-6s-2-.7-2-6v-6h20v-12h-4c-3.3 0-4-.3-4-2s-.7-2-4-2h-4v-6c0-5.3.2-6 2-6 1.3 0 2-.7 2-2s.7-2 2-2c1.7 0 2-.7 2-4v-4h-6c-5.3 0-6 .2-6 2s-.7 2-6 2h-6v-20h-6c-5.3 0-6 .2-6 2zm-304 8c0 1.3-.7 2-2 2-1.9 0-2 .7-2 10v10h10c9.3 0 10-.1 10-2 0-1.3.7-2 2-2 1.8 0 2-.7 2-8s-.2-8-2-8c-1.3 0-2-.7-2-2 0-1.8-.7-2-8-2s-8 .2-8 2zm732 104c0 1.3-.7 2-2 2-1.7 0-2 .7-2 4s-.3 4-2 4c-1.3 0-2 .7-2 2 0 1.7-.7 2-4 2s-4-.3-4-2c0-1.3-.7-2-2-2s-2-.7-2-2c0-1.7-.7-2-4-2h-4v4c0 3.3.3 4 2 4 1.8 0 2 .7 2 6v6h-16v12h12v6c0 5.3-.2 6-2 6-1.3 0-2 .7-2 2s-.7 2-2 2-2 .7-2 2 .7 2 2 2 2 .7 2 2 .7 2 2 2 2-.7 2-2c0-1.7.7-2 4-2s4-.3 4-2c0-1.3.7-2 2-2s2 .7 2 2 .7 2 2 2c1.8 0 2 .7 2 8v8h8v-4c0-3.3.3-4 2-4 1.3 0 2-.7 2-2s.7-2 2-2 2-.7 2-2 .7-2 2-2 2 .7 2 2 .7 2 2 2 2 .7 2 2c0 1.7.7 2 4 2h4v-6c0-5.3-.2-6-2-6-1.3 0-2-.7-2-2s.7-2 2-2 2-.7 2-2c0-1.8.7-2 6-2h6v-4c0-3.3-.3-4-2-4-1.3 0-2-.7-2-2s-.7-2-2-2-2-.7-2-2-.7-2-2-2-2-.7-2-2 .7-2 2-2 2-.7 2-2 .7-2 2-2c1.7 0 2-.7 2-4v-4h-8c-7.3 0-8 .2-8 2 0 1.3-.7 2-2 2-1.8 0-2-.7-2-8s-.2-8-2-8c-1.3 0-2-.7-2-2s-.7-2-2-2-2 .7-2 2zm-680 56c0 1.3-.7 2-2 2s-2 .7-2 2c0 1.7-.7 2-4 2s-4-.3-4-2-.7-2-4-2h-4v16h-4c-3.3 0-4 .3-4 2 0 1.3-.7 2-2 2s-2 .7-2 2c0 1.7.7 2 4 2s4 .3 4 2c0 1.3.7 2 2 2s2 .7 2 2-.7 2-2 2c-1.8 0-2 .7-2 6s.2 6 2 6c1.3 0 2-.7 2-2 0-1.8.7-2 6-2h6v12h4c3.3 0 4-.3 4-2 0-1.3.7-2 2-2s2-.7 2-2 .7-2 2-2 2 .7 2 2c0 1.7.7 2 4 2h4v-6c0-5.3.2-6 2-6 1.3 0 2-.7 2-2s.7-2 2-2 2-.7 2-2 .7-2 2-2 2-.7 2-2c0-1.7-.7-2-4-2h-4v-6c0-5.3.2-6 2-6 1.3 0 2-.7 2-2s-.7-2-2-2-2-.7-2-2-.7-2-2-2-2 .7-2 2-.7 2-2 2-2-.7-2-2-.7-2-2-2-2-.7-2-2-.7-2-2-2-2-.7-2-2-.7-2-2-2-2 .7-2 2zm460-8c0 1.3-.7 2-2 2s-2 .7-2 2c0 1.7-.7 2-4 2s-4-.3-4-2-.7-2-4-2-4 .3-4 2c0 1.3.7 2 2 2s2 .7 2 2-.7 2-2 2-2 .7-2 2-.7 2-2 2c-1.7 0-2 .7-2 4s.3 4 2 4c1.8 0 2 .7 2 8s.2 8 2 8c1.3 0 2-.7 2-2s.7-2 2-2 2 .7 2 2 .7 2 2 2 2 .7 2 2 .7 2 2 2 2-.7 2-2c0-1.8.7-2 8-2h8v-6c0-5.3.2-6 2-6 1.9 0 2-.7 2-10v-10h-12v-4c0-3.3-.3-4-2-4-1.3 0-2 .7-2 2zm-192 116c0 1.3-.7 2-2 2s-2 .7-2 2-.7 2-2 2-2-.7-2-2c0-1.7-.7-2-4-2h-4v6c0 5.3-.2 6-2 6-1.3 0-2 .7-2 2 0 1.7-.7 2-4 2s-4 .3-4 2c0 1.3.7 2 2 2s2 .7 2 2 .7 2 2 2c1.7 0 2 .7 2 4s-.3 4-2 4c-1.3 0-2 .7-2 2 0 1.8.7 2 8 2h8v4c0 3.3.3 4 2 4 1.3 0 2 .7 2 2s.7 2 2 2c1.7 0 2-.7 2-4v-4h6c5.3 0 6 .2 6 2 0 1.3.7 2 2 2 1.8 0 2-.7 2-8v-8h4c3.3 0 4-.3 4-2 0-1.3-.7-2-2-2-1.7 0-2-.7-2-4s-.3-4-2-4c-1.3 0-2-.7-2-2s.7-2 2-2c1.7 0 2-.7 2-4s-.3-4-2-4c-1.3 0-2 .7-2 2s-.7 2-2 2-2-.7-2-2-.7-2-2-2-2-.7-2-2-.7-2-2-2-2-.7-2-2-.7-2-2-2-2 .7-2 2zm188 40c0 1.3-.7 2-2 2-1.8 0-2 .7-2 6s.2 6 2 6c1.3 0 2 .7 2 2 0 1.8.7 2 6 2s6-.2 6-2c0-1.3.7-2 2-2 1.8 0 2-.7 2-6s-.2-6-2-6c-1.3 0-2-.7-2-2 0-1.8-.7-2-6-2s-6 .2-6 2zm-400 126c0 3.3-.3 4-2 4-1.8 0-2 .7-2 6s-.2 6-2 6c-1.3 0-2 .7-2 2s-.7 2-2 2-2-.7-2-2-.7-2-2-2-2-.7-2-2-.7-2-2-2-2-.7-2-2-.7-2-2-2-2-.7-2-2c0-1.8-.7-2-6-2h-6v10c0 9.3.1 10 2 10 1.3 0 2 .7 2 2s.7 2 2 2c1.7 0 2 .7 2 4s-.3 4-2 4c-1.3 0-2 .7-2 2 0 1.7-.7 2-4 2s-4-.3-4-2c0-1.8-.7-2-6-2s-6 .2-6 2c0 1.7-.7 2-4 2h-4v4c0 3.3.3 4 2 4 1.3 0 2 .7 2 2s.7 2 2 2 2 .7 2 2c0 1.8.7 2 8 2s8 .2 8 2c0 1.3.7 2 2 2s2 .7 2 2-.7 2-2 2c-1.7 0-2 .7-2 4v4h-4c-3.3 0-4 .3-4 2 0 1.3-.7 2-2 2-1.8 0-2 .7-2 6s.2 6 2 6c1.3 0 2 .7 2 2 0 1.7.7 2 4 2s4-.3 4-2c0-1.8.7-2 6-2s6-.2 6-2c0-1.7.7-2 4-2h4v12c0 11.3.1 12 2 12 1.3 0 2 .7 2 2 0 1.7.7 2 4 2s4-.3 4-2c0-1.3.7-2 2-2 1.7 0 2-.7 2-4s.3-4 2-4c1.8 0 2-.7 2-6v-6h6c5.3 0 6 .2 6 2 0 1.3.7 2 2 2s2 .7 2 2 .7 2 2 2 2 .7 2 2c0 1.8.7 2 6 2s6-.2 6-2c0-1.3.7-2 2-2s2-.7 2-2-.7-2-2-2c-1.7 0-2-.7-2-4s-.3-4-2-4c-1.3 0-2-.7-2-2s-.7-2-2-2c-1.7 0-2-.7-2-4s.3-4 2-4c1.3 0 2-.7 2-2 0-1.9.7-2 12-2s12-.1 12-2c0-1.3.7-2 2-2 1.7 0 2-.7 2-4s-.3-4-2-4c-1.3 0-2-.7-2-2 0-1.8-.7-2-8-2s-8-.2-8-2c0-1.3-.7-2-2-2s-2-.7-2-2-.7-2-2-2-2-.7-2-2 .7-2 2-2 2-.7 2-2 .7-2 2-2 2-.7 2-2c0-1.7.7-2 4-2h4v-16h-8c-7.3 0-8 .2-8 2 0 1.3-.7 2-2 2s-2 .7-2 2c0 1.8-.7 2-6 2h-6v-28h-16v4zm368 32v8h-6c-5.3 0-6-.2-6-2 0-1.3-.7-2-2-2s-2-.7-2-2c0-1.7-.7-2-4-2h-4v6c0 5.3.2 6 2 6 1.7 0 2 .7 2 4s.3 4 2 4c1.3 0 2 .7 2 2 0 1.8-.7 2-6 2s-6 .2-6 2c0 1.7-.7 2-4 2h-4v4c0 3.3.3 4 2 4 1.3 0 2 .7 2 2 0 1.8.7 2 8 2s8 .2 8 2c0 1.3-.7 2-2 2-1.8 0-2 .7-2 6s-.2 6-2 6c-1.3 0-2 .7-2 2s.7 2 2 2 2 .7 2 2 .7 2 2 2 2-.7 2-2 .7-2 2-2 2-.7 2-2c0-1.8.7-2 6-2h6v4c0 3.3.3 4 2 4 1.8 0 2 .7 2 6v6h8v-6c0-5.3.2-6 2-6 1.7 0 2-.7 2-4v-4h4c3.3 0 4 .3 4 2 0 1.8.7 2 6 2h6v-6c0-5.3-.2-6-2-6-1.7 0-2-.7-2-4s.3-4 2-4c1.3 0 2-.7 2-2 0-1.8.7-2 6-2h6v-12h-16v-6c0-5.3.2-6 2-6s2-.7 2-6v-6h-4c-3.3 0-4 .3-4 2 0 1.3-.7 2-2 2s-2 .7-2 2c0 1.7-.7 2-4 2s-4-.3-4-2c0-1.3-.7-2-2-2-1.8 0-2-.7-2-6v-6h-12v8zm336 176v8h-12v4c0 3.3.3 4 2 4 1.3 0 2 .7 2 2s.7 2 2 2 2 .7 2 2-.7 2-2 2c-1.7 0-2 .7-2 4v4h12v8h4c3.3 0 4-.3 4-2 0-1.8.7-2 8-2h8v-8h4c3.3 0 4-.3 4-2 0-1.3.7-2 2-2s2-.7 2-2-.7-2-2-2-2-.7-2-2-.7-2-2-2c-1.7 0-2-.7-2-4s.3-4 2-4c1.3 0 2-.7 2-2 0-1.7-.7-2-4-2s-4-.3-4-2c0-1.3-.7-2-2-2-1.7 0-2-.7-2-4v-4h-4c-3.3 0-4 .3-4 2 0 1.8-.7 2-6 2s-6-.2-6-2c0-1.3-.7-2-2-2-1.8 0-2 .7-2 8zm-256 46c0 1.3-.7 2-2 2-1.8 0-2 .7-2 6s.2 6 2 6c1.3 0 2 .7 2 2 0 1.8.7 2 6 2h6v-4c0-3.3.3-4 2-4s2-.7 2-4-.3-4-2-4c-1.3 0-2-.7-2-2 0-1.8-.7-2-6-2s-6 .2-6 2zm-528 64c0 1.3-.7 2-2 2s-2 .7-2 2c0 1.7-.7 2-4 2s-4-.3-4-2c0-1.3-.7-2-2-2s-2 .7-2 2-.7 2-2 2-2 .7-2 2 .7 2 2 2c1.7 0 2 .7 2 4v4h-12v8h8v4c0 3.3-.3 4-2 4s-2 .7-2 4v4h16v8h4c3.3 0 4-.3 4-2 0-1.8.7-2 8-2h8v-12h4c3.3 0 4-.3 4-2 0-1.3.7-2 2-2s2-.7 2-2c0-1.8-.7-2-6-2h-6v-12h4c3.3 0 4-.3 4-2 0-1.3-.7-2-2-2s-2-.7-2-2c0-1.7-.7-2-4-2s-4 .3-4 2c0 1.3-.7 2-2 2-1.8 0-2-.7-2-6v-6h-4c-3.3 0-4 .3-4 2zm4 200c0 1.7-.7 2-4 2s-4 .3-4 2c0 1.8-.7 2-6 2h-6v12h-4c-3.3 0-4 .3-4 2 0 1.3.7 2 2 2s2 .7 2 2 .7 2 2 2c1.7 0 2 .7 2 4s-.3 4-2 4c-1.3 0-2 .7-2 2 0 1.8.7 2 6 2s6 .2 6 2c0 1.3.7 2 2 2 1.7 0 2 .7 2 4s.3 4 2 4c1.3 0 2-.7 2-2s.7-2 2-2 2-.7 2-2c0-1.8.7-2 6-2h6v-12h8v-8h-4c-3.3 0-4-.3-4-2 0-1.3.7-2 2-2 1.7 0 2-.7 2-4v-4h-4c-3.3 0-4-.3-4-2 0-1.3-.7-2-2-2-1.7 0-2-.7-2-4s-.3-4-2-4c-1.3 0-2 .7-2 2zm268-144c0 1.3-.7 2-2 2-1.7 0-2 .7-2 4s-.3 4-2 4c-1.3 0-2 .7-2 2 0 1.7-.7 2-4 2s-4-.3-4-2c0-1.3-.7-2-2-2s-2-.7-2-2-.7-2-2-2-2-.7-2-2c0-1.7-.7-2-4-2h-4v8c0 7.3.2 8 2 8 1.7 0 2 .7 2 4v4h-10c-9.3 0-10 .1-10 2 0 1.3-.7 2-2 2s-2 .7-2 2 .7 2 2 2 2 .7 2 2c0 1.7.7 2 4 2s4 .3 4 2c0 1.3.7 2 2 2 1.7 0 2 .7 2 4s-.3 4-2 4c-1.3 0-2 .7-2 2s-.7 2-2 2-2 .7-2 2-.7 2-2 2-2 .7-2 2 .7 2 2 2 2 .7 2 2c0 1.8.7 2 6 2s6-.2 6-2c0-1.7.7-2 4-2s4 .3 4 2c0 1.3.7 2 2 2s2 .7 2 2-.7 2-2 2c-1.8 0-2 .7-2 6v6h12v-4c0-3.3.3-4 2-4 1.3 0 2-.7 2-2 0-1.8.7-2 6-2h6v8h6c5.3 0 6-.2 6-2 0-1.3.7-2 2-2s2-.7 2-2-.7-2-2-2c-1.8 0-2-.7-2-6v-6h6c5.3 0 6-.2 6-2 0-1.7.7-2 4-2s4-.3 4-2c0-1.3-.7-2-2-2s-2-.7-2-2c0-1.7-.7-2-4-2s-4-.3-4-2c0-1.3-.7-2-2-2-1.7 0-2-.7-2-4s.3-4 2-4c1.3 0 2-.7 2-2s.7-2 2-2c1.7 0 2-.7 2-4s.3-4 2-4c1.3 0 2-.7 2-2 0-1.9-.7-2-12-2h-12v-8c0-7.3-.2-8-2-8-1.3 0-2-.7-2-2s-.7-2-2-2-2 .7-2 2zm364 44c0 1.3-.7 2-2 2-1.8 0-2 .7-2 6s-.2 6-2 6c-1.7 0-2 .7-2 4v4h-4c-3.3 0-4-.3-4-2 0-1.3-.7-2-2-2s-2-.7-2-2-.7-2-2-2-2-.7-2-2-.7-2-2-2-2-.7-2-2-.7-2-2-2-2 .7-2 2c0 1.7-.7 2-4 2h-4v6c0 5.3.2 6 2 6 1.7 0 2 .7 2 4s.3 4 2 4 2 .7 2 4-.3 4-2 4c-1.3 0-2 .7-2 2 0 1.7-.7 2-4 2s-4-.3-4-2c0-1.8-.7-2-6-2s-6 .2-6 2c0 1.3-.7 2-2 2-1.8 0-2 .7-2 6s.2 6 2 6c1.3 0 2 .7 2 2 0 1.8.7 2 8 2s8 .2 8 2c0 1.3.7 2 2 2 1.7 0 2 .7 2 4s-.3 4-2 4c-1.3 0-2 .7-2 2s-.7 2-2 2-2 .7-2 2-.7 2-2 2-2 .7-2 2-.7 2-2 2c-1.7 0-2 .7-2 4s.3 4 2 4c1.3 0 2 .7 2 2 0 1.8.7 2 6 2s6-.2 6-2c0-1.7.7-2 4-2s4-.3 4-2 .7-2 4-2h4v4c0 3.3.3 4 2 4 1.3 0 2 .7 2 2s-.7 2-2 2c-1.7 0-2 .7-2 4s.3 4 2 4 2 .7 2 4v4h12v-4c0-3.3.3-4 2-4 1.8 0 2-.7 2-6s.2-6 2-6c1.3 0 2-.7 2-2 0-1.7.7-2 4-2s4 .3 4 2c0 1.3.7 2 2 2s2 .7 2 2 .7 2 2 2 2 .7 2 2 .7 2 2 2 2 .7 2 2c0 1.7.7 2 4 2s4-.3 4-2c0-1.3.7-2 2-2 1.8 0 2-.7 2-6s-.2-6-2-6c-1.3 0-2-.7-2-2s-.7-2-2-2c-1.8 0-2-.7-2-8v-8h6c5.3 0 6 .2 6 2s.7 2 6 2 6-.2 6-2c0-1.3.7-2 2-2 1.8 0 2-.7 2-6s-.2-6-2-6c-1.3 0-2-.7-2-2 0-1.8-.7-2-8-2s-8-.2-8-2c0-1.3-.7-2-2-2-1.8 0-2-.7-2-6v-6h4c3.3 0 4-.3 4-2 0-1.3.7-2 2-2s2-.7 2-2 .7-2 2-2c1.7 0 2-.7 2-4s-.3-4-2-4c-1.3 0-2-.7-2-2 0-1.8-.7-2-6-2s-6 .2-6 2c0 1.7-.7 2-4 2s-4 .3-4 2c0 1.8-.7 2-6 2h-6v-6c0-5.3.2-6 2-6 1.3 0 2-.7 2-2s-.7-2-2-2c-1.8 0-2-.7-2-6v-6h-6c-5.3 0-6 .2-6 2zm308-56c0 1.8-.7 2-8 2h-8v4c0 3.3-.3 4-2 4-1.3 0-2 .7-2 2 0 1.7-.7 2-4 2h-4v4c0 3.3.3 4 2 4 1.3 0 2 .7 2 2s.7 2 2 2 2 .7 2 2-.7 2-2 2c-1.7 0-2 .7-2 4v4h4c3.3 0 4 .3 4 2 0 1.3.7 2 2 2 1.7 0 2 .7 2 4s.3 4 2 4c1.3 0 2-.7 2-2 0-1.7.7-2 4-2s4-.3 4-2c0-1.3.7-2 2-2s2 .7 2 2c0 1.7.7 2 4 2h4v-12h8v-6c0-5.3-.2-6-2-6-1.3 0-2-.7-2-2s.7-2 2-2c1.7 0 2-.7 2-4v-4h-12v-4c0-3.3-.3-4-2-4-1.3 0-2-.7-2-2s-.7-2-2-2-2 .7-2 2zm-32 224c0 1.3-.7 2-2 2s-2 .7-2 2-.7 2-2 2-2 .7-2 2-.7 2-2 2-2-.7-2-2-.7-2-2-2-2-.7-2-2-.7-2-2-2-2 .7-2 2-.7 2-2 2-2 .7-2 2 .7 2 2 2c1.7 0 2 .7 2 4v4h-6c-5.3 0-6 .2-6 2 0 1.3-.7 2-2 2s-2 .7-2 2 .7 2 2 2 2 .7 2 2 .7 2 2 2c1.7 0 2 .7 2 4s-.3 4-2 4-2 .7-2 4v4h6c5.3 0 6 .2 6 2 0 1.3.7 2 2 2 1.7 0 2 .7 2 4v4h4c3.3 0 4-.3 4-2 0-1.8.7-2 6-2s6 .2 6 2c0 1.3.7 2 2 2s2-.7 2-2 .7-2 2-2c1.8 0 2-.7 2-6s.2-6 2-6c1.3 0 2-.7 2-2 0-1.7.7-2 4-2s4-.3 4-2c0-1.3-.7-2-2-2s-2-.7-2-2-.7-2-2-2c-1.8 0-2-.7-2-6s.2-6 2-6c1.3 0 2-.7 2-2 0-1.8-.7-2-6-2s-6-.2-6-2c0-1.3-.7-2-2-2-1.8 0-2-.7-2-6s-.2-6-2-6c-1.3 0-2 .7-2 2zm-724 66c0 3.3-.3 4-2 4-1.3 0-2 .7-2 2s-.7 2-2 2-2-.7-2-2-.7-2-2-2-2-.7-2-2c0-1.7-.7-2-4-2h-4v16h-8c-7.3 0-8 .2-8 2 0 1.3.7 2 2 2 1.7 0 2 .7 2 4v4h4c3.3 0 4 .3 4 2 0 1.3-.7 2-2 2-1.7 0-2 .7-2 4s-.3 4-2 4-2 .7-2 4v4h4c3.3 0 4-.3 4-2s.7-2 4-2 4 .3 4 2c0 1.3.7 2 2 2s2 .7 2 2-.7 2-2 2-2 .7-2 2 .7 2 2 2 2 .7 2 2c0 1.7.7 2 4 2h4v-8h6c5.3 0 6 .2 6 2 0 1.7.7 2 4 2h4v-16h6c5.3 0 6-.2 6-2 0-1.3.7-2 2-2s2-.7 2-2c0-1.7-.7-2-4-2s-4-.3-4-2c0-1.3-.7-2-2-2-1.7 0-2-.7-2-4s.3-4 2-4c1.3 0 2-.7 2-2s.7-2 2-2c1.7 0 2-.7 2-4v-4h-4c-3.3 0-4 .3-4 2s-.7 2-4 2-4-.3-4-2c0-1.3-.7-2-2-2-1.7 0-2-.7-2-4s.3-4 2-4c1.3 0 2-.7 2-2 0-1.8-.7-2-6-2h-6v4zm232 14c0 1.8-.7 2-6 2h-6v4c0 3.3-.3 4-2 4-1.3 0-2 .7-2 2s-.7 2-2 2c-1.8 0-2 .7-2 8v8h4c3.3 0 4 .3 4 2 0 1.3.7 2 2 2s2 .7 2 2c0 1.7.7 2 4 2s4-.3 4-2c0-1.3.7-2 2-2s2 .7 2 2c0 1.7.7 2 4 2h4v-12h8v-4c0-3.3-.3-4-2-4s-2-.7-2-4-.3-4-2-4c-1.3 0-2-.7-2-2s-.7-2-2-2-2-.7-2-2-.7-2-2-2-2-.7-2-2-.7-2-2-2-2 .7-2 2zm188 48c0 1.8-.7 2-6 2s-6 .2-6 2c0 1.3-.7 2-2 2s-2 .7-2 2-.7 2-2 2c-1.7 0-2 .7-2 4s.3 4 2 4 2 .7 2 4-.3 4-2 4c-1.3 0-2 .7-2 2 0 1.8.7 2 6 2h6v8h4c3.3 0 4-.3 4-2s.7-2 4-2 4-.3 4-2 .7-2 4-2h4v-10c0-9.3-.1-10-2-10-1.3 0-2-.7-2-2s-.7-2-2-2-2-.7-2-2-.7-2-2-2-2-.7-2-2-.7-2-2-2-2 .7-2 2z" />
</svg>
