<svg width="26" height="15" viewBox="0 0 26 15" fill="none" xmlns="http://www.w3.org/2000/svg">
<path d="M12.8968 5.71429H15.4762V3.57143H19.3452V2.14286H15.4762V0H12.8968V2.14286H9.02778V3.57143H12.8968V5.71429ZM7.7381 12.1429C6.31944 12.1429 5.17163 12.7857 5.17163 13.5714C5.17163 14.3571 6.31944 15 7.7381 15C9.15675 15 10.3175 14.3571 10.3175 13.5714C10.3175 12.7857 9.15675 12.1429 7.7381 12.1429ZM20.6349 12.1429C19.2163 12.1429 18.0685 12.7857 18.0685 13.5714C18.0685 14.3571 19.2163 15 20.6349 15C22.0536 15 23.2143 14.3571 23.2143 13.5714C23.2143 12.7857 22.0536 12.1429 20.6349 12.1429ZM7.95734 9.82143L7.99603 9.73571L9.15675 8.57143H18.7649C19.7321 8.57143 20.5833 8.27857 21.0218 7.83571L26 2.82857L23.756 2.14286H23.7431L22.3244 3.57143L18.7649 7.14286H9.71131L9.54365 6.95L6.65476 3.57143L5.42956 2.14286L4.21726 0.714286H0V2.14286H2.57937L7.22222 7.56429L5.48115 9.31429C5.2748 9.51429 5.15873 9.75 5.15873 10C5.15873 10.7857 6.31944 11.4286 7.7381 11.4286H23.2143V10H8.27976C8.1121 10 7.95734 9.92143 7.95734 9.82143Z" fill="#FFFBFB"/>
</svg>
