<svg width="30" height="28" viewBox="0 0 30 28" fill="none" xmlns="http://www.w3.org/2000/svg">
<path d="M25.08 17.76C25.605 16.485 25.89 15.12 25.89 13.62C25.89 12.54 25.725 11.505 25.44 10.545C24.465 10.77 23.445 10.89 22.38 10.89C17.79 10.89 13.725 8.625 11.25 5.13C9.915 8.37 7.365 11.01 4.155 12.45C4.095 12.825 4.095 13.23 4.095 13.62C4.095 16.5122 5.24392 19.2859 7.289 21.331C9.33408 23.3761 12.1078 24.525 15 24.525C16.575 24.525 18.09 24.18 19.455 23.565C20.31 25.2 20.7 26.01 20.67 26.01C18.21 26.835 16.305 27.24 15 27.24C11.37 27.24 7.905 25.815 5.355 23.25C3.795 21.69 2.64 19.785 1.995 17.715H0V10.89H1.635C2.895 4.68 8.4 0 15 0C18.6 0 22.065 1.425 24.63 3.99C26.535 5.88 27.81 8.295 28.335 10.89H30V17.625V17.655V17.715H29.91L24.57 22.62L16.62 21.72V19.215H23.865L25.08 17.76ZM10.905 13.275C11.355 13.275 11.79 13.455 12.105 13.785C12.42 14.1 12.6 14.535 12.6 14.985C12.6 15.435 12.42 15.87 12.105 16.185C11.79 16.5 11.355 16.68 10.905 16.68C9.96 16.68 9.195 15.93 9.195 14.985C9.195 14.04 9.96 13.275 10.905 13.275ZM19.08 13.275C20.025 13.275 20.775 14.04 20.775 14.985C20.775 15.93 20.025 16.68 19.08 16.68C18.135 16.68 17.37 15.93 17.37 14.985C17.37 14.5315 17.5502 14.0965 17.8708 13.7759C18.1915 13.4552 18.6265 13.275 19.08 13.275Z" fill="white"/>
</svg>
