<svg width="15" height="20" viewBox="0 0 15 20" fill="none" xmlns="http://www.w3.org/2000/svg">
<path d="M7.50001 0.375C5.58617 0.377365 3.75136 1.17489 2.39807 2.59262C1.04479 4.01035 0.283515 5.93253 0.281258 7.9375C0.278965 9.57597 0.789839 11.17 1.73551 12.475C1.73551 12.475 1.93238 12.7466 1.96454 12.7858L7.50001 19.625L13.0381 12.7823C13.067 12.7459 13.2645 12.475 13.2645 12.475L13.2652 12.4729C14.2104 11.1685 14.721 9.57522 14.7188 7.9375C14.7165 5.93253 13.9552 4.01035 12.6019 2.59262C11.2487 1.17489 9.41384 0.377365 7.50001 0.375ZM7.50001 10.6875C6.98083 10.6875 6.47331 10.5262 6.04164 10.224C5.60996 9.92187 5.2735 9.49238 5.07482 8.98988C4.87614 8.48738 4.82416 7.93445 4.92545 7.401C5.02673 6.86755 5.27674 6.37755 5.64385 5.99296C6.01096 5.60836 6.47869 5.34645 6.9879 5.24034C7.4971 5.13423 8.02489 5.18869 8.50455 5.39683C8.98421 5.60497 9.39418 5.95745 9.68261 6.40968C9.97105 6.86192 10.125 7.3936 10.125 7.9375C10.1241 8.66657 9.8473 9.36551 9.3552 9.88104C8.86311 10.3966 8.19593 10.6866 7.50001 10.6875Z" fill="#8516AF"/>
</svg>
