<svg width="68" height="62" viewBox="0 0 68 62" fill="none" xmlns="http://www.w3.org/2000/svg">
<path d="M56.3993 40.2C57.5659 37.3667 58.1993 34.3334 58.1993 31C58.1993 28.6001 57.8326 26.3001 57.1993 24.1667C55.0326 24.6667 52.7659 24.9334 50.3993 24.9334C40.1993 24.9334 31.166 19.9001 25.666 12.1334C22.6993 19.3334 17.0327 25.2001 9.89933 28.4001C9.766 29.2334 9.766 30.1334 9.766 31C9.766 37.4271 12.3191 43.591 16.8638 48.1356C21.4084 52.6802 27.5722 55.2334 33.9993 55.2334C37.4993 55.2334 40.866 54.4667 43.8993 53.1C45.7993 56.7334 46.6659 58.5334 46.5993 58.5334C41.1326 60.3667 36.8993 61.2667 33.9993 61.2667C25.9326 61.2667 18.2327 58.1 12.566 52.4C9.09934 48.9334 6.53267 44.7 5.09934 40.1H0.666016V24.9334H4.29934C7.09934 11.1334 19.3327 0.733398 33.9993 0.733398C41.9993 0.733398 49.6993 3.90006 55.3993 9.60006C59.6326 13.8001 62.4659 19.1667 63.6326 24.9334H67.3326V39.9V39.9667V40.1H67.1326L55.2659 51L37.5993 49V43.4334H53.6993L56.3993 40.2ZM24.8993 30.2334C25.8993 30.2334 26.866 30.6334 27.566 31.3667C28.266 32.0667 28.666 33.0334 28.666 34.0334C28.666 35.0334 28.266 36 27.566 36.7C26.866 37.4 25.8993 37.8 24.8993 37.8C22.7993 37.8 21.0993 36.1334 21.0993 34.0334C21.0993 31.9334 22.7993 30.2334 24.8993 30.2334ZM43.066 30.2334C45.1659 30.2334 46.8326 31.9334 46.8326 34.0334C46.8326 36.1334 45.1659 37.8 43.066 37.8C40.966 37.8 39.266 36.1334 39.266 34.0334C39.266 33.0256 39.6663 32.059 40.3789 31.3464C41.0916 30.6337 42.0581 30.2334 43.066 30.2334Z" fill="url(#paint0_linear_825_15507)"/>
<defs>
<linearGradient id="paint0_linear_825_15507" x1="0.666016" y1="0.733398" x2="59.1267" y2="68.3604" gradientUnits="userSpaceOnUse">
<stop stop-color="#701EB8"/>
<stop offset="1" stop-color="#A10CA4"/>
</linearGradient>
</defs>
</svg>
