<svg width="25" height="24" viewBox="0 0 25 24" fill="none" xmlns="http://www.w3.org/2000/svg">
    <path
        d="M5.8999 7C5.50208 7 5.12055 6.84196 4.83924 6.56066C4.55794 6.27936 4.3999 5.89782 4.3999 5.5C4.3999 5.10218 4.55794 4.72064 4.83924 4.43934C5.12055 4.15804 5.50208 4 5.8999 4C6.29773 4 6.67926 4.15804 6.96056 4.43934C7.24187 4.72064 7.3999 5.10218 7.3999 5.5C7.3999 5.89782 7.24187 6.27936 6.96056 6.56066C6.67926 6.84196 6.29773 7 5.8999 7ZM21.8099 11.58L12.8099 2.58C12.4499 2.22 11.9499 2 11.3999 2H4.3999C3.2899 2 2.3999 2.89 2.3999 4V11C2.3999 11.55 2.6199 12.05 2.9899 12.41L11.9799 21.41C12.3499 21.77 12.8499 22 13.3999 22C13.9499 22 14.4499 21.77 14.8099 21.41L21.8099 14.41C22.1799 14.05 22.3999 13.55 22.3999 13C22.3999 12.44 22.1699 11.94 21.8099 11.58Z"
        fill="white" />
</svg>
