<svg width="25" height="24" viewBox="0 0 25 24" fill="none" xmlns="http://www.w3.org/2000/svg">
    <path
        d="M3.19971 10H6.19971V7H3.19971V10ZM5.19971 5H8.19971V2H5.19971V5ZM8.19971 10H11.1997V7H8.19971V10ZM17.1997 1L12.1997 6H15.1997V10H19.1997V6H22.1997L17.1997 1ZM7.69971 22C6.91971 22 6.23971 21.55 5.90971 20.9L3.29971 13.44L3.19971 13C3.19971 12.7348 3.30506 12.4804 3.4926 12.2929C3.68014 12.1054 3.93449 12 4.19971 12H20.1997C20.4649 12 20.7193 12.1054 20.9068 12.2929C21.0944 12.4804 21.1997 12.7348 21.1997 13L21.1597 13.29L18.4897 20.9C18.1597 21.55 17.4797 22 16.6997 22H7.69971ZM7.80971 20H16.5897L18.7697 14H5.61971L7.80971 20Z"
        fill="white" />
</svg>
