<svg width="20" height="20" viewBox="0 0 20 20" fill="none" xmlns="http://www.w3.org/2000/svg">
    <path
        d="M9.80013 6C10.861 6 11.8784 6.42143 12.6286 7.17157C13.3787 7.92172 13.8001 8.93913 13.8001 10C13.8001 11.0609 13.3787 12.0783 12.6286 12.8284C11.8784 13.5786 10.861 14 9.80013 14C8.73927 14 7.72185 13.5786 6.9717 12.8284C6.22156 12.0783 5.80013 11.0609 5.80013 10C5.80013 8.93913 6.22156 7.92172 6.9717 7.17157C7.72185 6.42143 8.73927 6 9.80013 6M9.80013 8C9.2697 8 8.76099 8.21071 8.38592 8.58579C8.01085 8.96086 7.80013 9.46957 7.80013 10C7.80013 10.5304 8.01085 11.0391 8.38592 11.4142C8.76099 11.7893 9.2697 12 9.80013 12C10.3306 12 10.8393 11.7893 11.2143 11.4142C11.5894 11.0391 11.8001 10.5304 11.8001 10C11.8001 9.46957 11.5894 8.96086 11.2143 8.58579C10.8393 8.21071 10.3306 8 9.80013 8ZM7.80013 20C7.55013 20 7.34013 19.82 7.30013 19.58L6.93013 16.93C6.30013 16.68 5.76013 16.34 5.24013 15.94L2.75013 16.95C2.53013 17.03 2.26013 16.95 2.14013 16.73L0.140132 13.27C0.0101324 13.05 0.0701325 12.78 0.260132 12.63L2.37013 10.97L2.30013 10L2.37013 9L0.260132 7.37C0.0701325 7.22 0.0101324 6.95 0.140132 6.73L2.14013 3.27C2.26013 3.05 2.53013 2.96 2.75013 3.05L5.24013 4.05C5.76013 3.66 6.30013 3.32 6.93013 3.07L7.30013 0.42C7.34013 0.18 7.55013 0 7.80013 0H11.8001C12.0501 0 12.2601 0.18 12.3001 0.42L12.6701 3.07C13.3001 3.32 13.8401 3.66 14.3601 4.05L16.8501 3.05C17.0701 2.96 17.3401 3.05 17.4601 3.27L19.4601 6.73C19.5901 6.95 19.5301 7.22 19.3401 7.37L17.2301 9L17.3001 10L17.2301 11L19.3401 12.63C19.5301 12.78 19.5901 13.05 19.4601 13.27L17.4601 16.73C17.3401 16.95 17.0701 17.04 16.8501 16.95L14.3601 15.95C13.8401 16.34 13.3001 16.68 12.6701 16.93L12.3001 19.58C12.2601 19.82 12.0501 20 11.8001 20H7.80013ZM9.05013 2L8.68013 4.61C7.48013 4.86 6.42013 5.5 5.65013 6.39L3.24013 5.35L2.49013 6.65L4.60013 8.2C4.20013 9.37 4.20013 10.64 4.60013 11.8L2.48013 13.36L3.23013 14.66L5.66013 13.62C6.43013 14.5 7.48013 15.14 8.67013 15.38L9.04013 18H10.5601L10.9301 15.39C12.1201 15.14 13.1701 14.5 13.9401 13.62L16.3701 14.66L17.1201 13.36L15.0001 11.81C15.4001 10.64 15.4001 9.37 15.0001 8.2L17.1101 6.65L16.3601 5.35L13.9501 6.39C13.1801 5.5 12.1201 4.86 10.9201 4.62L10.5501 2H9.05013Z"
        fill="white" />
</svg>
