<svg width="27" height="15" viewBox="0 0 27 15" fill="none" xmlns="http://www.w3.org/2000/svg">
<path d="M4.725 0C3.60703 0 2.7 0.629883 2.7 1.40625V2.8125H0.675C0.30375 2.8125 0 3.02344 0 3.28125C0 3.53906 0.30375 3.75 0.675 3.75H11.475C11.8463 3.75 12.15 3.96094 12.15 4.21875C12.15 4.47656 11.8463 4.6875 11.475 4.6875H2.025C1.65375 4.6875 1.35 4.89844 1.35 5.15625C1.35 5.41406 1.65375 5.625 2.025 5.625H10.125C10.4963 5.625 10.8 5.83594 10.8 6.09375C10.8 6.35156 10.4963 6.5625 10.125 6.5625H0.675C0.30375 6.5625 0 6.77344 0 7.03125C0 7.28906 0.30375 7.5 0.675 7.5H8.775C9.14625 7.5 9.45 7.71094 9.45 7.96875C9.45 8.22656 9.14625 8.4375 8.775 8.4375H2.7V12.1875C2.7 13.7402 4.51406 15 6.75 15C8.98594 15 10.8 13.7402 10.8 12.1875H16.2C16.2 13.7402 18.0141 15 20.25 15C22.4859 15 24.3 13.7402 24.3 12.1875H25.65C26.3967 12.1875 27 11.7686 27 11.25C27 10.7314 26.3967 10.3125 25.65 10.3125V6.95215C25.65 6.4541 25.3673 5.97656 24.8611 5.625L21.6 3.36035C21.0938 3.00879 20.4061 2.8125 19.6889 2.8125H17.55V1.40625C17.55 0.629883 16.643 0 15.525 0H4.725ZM22.95 6.95215V7.5H17.55V4.6875H19.6889L22.95 6.95215ZM6.75 13.5938C5.63203 13.5938 4.725 12.9639 4.725 12.1875C4.725 11.4111 5.63203 10.7812 6.75 10.7812C7.86797 10.7812 8.775 11.4111 8.775 12.1875C8.775 12.9639 7.86797 13.5938 6.75 13.5938ZM22.275 12.1875C22.275 12.9639 21.368 13.5938 20.25 13.5938C19.132 13.5938 18.225 12.9639 18.225 12.1875C18.225 11.4111 19.132 10.7812 20.25 10.7812C21.368 10.7812 22.275 11.4111 22.275 12.1875Z" fill="#A72EBD"/>
</svg>
