<svg width="21" height="16" viewBox="0 0 21 16" fill="none" xmlns="http://www.w3.org/2000/svg">
<path d="M0 8.01421C0 6.56483 0.475577 5.22203 1.41741 3.9929C2.35924 2.76377 3.63677 1.79041 5.25 1.07282C6.86323 0.35524 8.61634 0 10.5093 0C11.9267 0 13.2882 0.213144 14.5844 0.632327C15.8805 1.05151 16.9902 1.627 17.9321 2.33748C18.8739 3.04796 19.6199 3.90053 20.1701 4.8952C20.7202 5.88988 21 6.92007 21 8.01421C21 9.09414 20.7202 10.1314 20.1701 11.119C19.6199 12.1066 18.8646 12.9591 17.9321 13.6696C16.9996 14.3801 15.8805 14.9485 14.5844 15.3677C13.2882 15.7869 11.9361 16 10.5093 16C9.08259 16 7.71181 15.7869 6.41563 15.3677C5.11945 14.9485 4.00044 14.373 3.05861 13.6625C2.11679 12.952 1.38011 12.0995 0.820604 11.119C0.261101 10.1385 0 9.10124 0 8.01421ZM2.31261 8.01421C2.31261 9.69805 3.11457 11.1616 4.7278 12.405C6.34103 13.6341 8.26199 14.2451 10.5093 14.2451C11.9827 14.2451 13.3535 13.968 14.603 13.4067C15.8526 12.8455 16.8597 12.0924 17.5964 11.1332C18.333 10.1741 18.706 9.13677 18.706 8.01421C18.706 6.89165 18.333 5.84725 17.5964 4.8881C16.8597 3.92895 15.8619 3.16874 14.603 2.60746C13.3441 2.04618 11.9827 1.76909 10.5093 1.76909C9.03597 1.76909 7.66519 2.04618 6.41563 2.60746C5.16607 3.16874 4.15897 3.92895 3.41297 4.8881C2.66696 5.84725 2.31261 6.89165 2.31261 8.01421ZM9.69805 8.01421V3.28242C9.69805 3.11901 9.77265 2.97691 9.92185 2.86323C10.071 2.74956 10.2575 2.69272 10.472 2.69272C10.6865 2.69272 10.873 2.74956 11.0222 2.86323C11.1714 2.97691 11.246 3.11901 11.246 3.28242V6.98401L13.8384 5.86856C14.0249 5.7833 14.2207 5.76199 14.4258 5.80462C14.631 5.84725 14.7895 5.94671 14.8921 6.09591C15.004 6.23801 15.0226 6.38721 14.9667 6.54352C14.9107 6.69982 14.7895 6.82771 14.603 6.90586L10.9849 8.4476C10.8436 8.54885 10.6567 8.60482 10.4627 8.60391C10.361 8.60519 10.2601 8.59076 10.1659 8.56148C10.0718 8.53221 9.9864 8.4887 9.91493 8.43359C9.84347 8.37848 9.78741 8.3129 9.75013 8.24082C9.71285 8.16874 9.69513 8.09165 9.69805 8.01421Z" fill="#8516AF"/>
</svg>
