<svg width="26" height="25" viewBox="0 0 26 25" fill="none" xmlns="http://www.w3.org/2000/svg">
<path d="M22.625 12.1216C23.1523 12.4552 23.6226 12.8337 24.0356 13.2568C24.4487 13.68 24.8047 14.1439 25.1035 14.6484C25.4023 15.153 25.6221 15.686 25.7627 16.2476C25.9033 16.8091 25.9824 17.3828 26 17.9688C26 18.9372 25.8022 19.8486 25.4067 20.7031C25.0112 21.5576 24.4663 22.3022 23.772 22.937C23.0776 23.5718 22.2734 24.0723 21.3594 24.4385C20.4453 24.8047 19.4609 24.9919 18.4062 25C17.6064 25 16.833 24.8901 16.0859 24.6704C15.3389 24.4507 14.6533 24.1333 14.0293 23.7183C13.4053 23.3032 12.8516 22.8068 12.3682 22.229C11.8848 21.6512 11.5112 21.0124 11.2476 20.3125H0.6875V1.5625H4.0625V0H5.75V1.5625H17.5625V0H19.25V1.5625H22.625V12.1216ZM2.375 3.125V6.25H20.9375V3.125H19.25V4.6875H17.5625V3.125H5.75V4.6875H4.0625V3.125H2.375ZM10.8521 18.75C10.8257 18.4977 10.8125 18.2373 10.8125 17.9688C10.8125 17.2689 10.918 16.5894 11.1289 15.9302C11.3398 15.271 11.6606 14.6484 12.0913 14.0625H10.8125V12.5H12.5V13.5498C12.8604 13.1348 13.2603 12.7686 13.6997 12.4512C14.1392 12.1338 14.6138 11.8612 15.1235 11.6333C15.6333 11.4054 16.165 11.2345 16.7188 11.1206C17.2725 11.0067 17.835 10.9456 18.4062 10.9375C19.2852 10.9375 20.1289 11.0718 20.9375 11.3403V7.8125H2.375V18.75H10.8521ZM18.4062 23.4375C19.2236 23.4375 19.9883 23.2951 20.7002 23.0103C21.4121 22.7254 22.0361 22.3348 22.5723 21.8384C23.1084 21.342 23.5303 20.7642 23.8379 20.105C24.1455 19.4458 24.3037 18.7337 24.3125 17.9688C24.3125 17.2119 24.1587 16.5039 23.8511 15.8447C23.5435 15.1855 23.1216 14.6077 22.5854 14.1113C22.0493 13.6149 21.4253 13.2243 20.7134 12.9395C20.0015 12.6546 19.2324 12.5081 18.4062 12.5C17.5889 12.5 16.8242 12.6424 16.1123 12.9272C15.4004 13.2121 14.7764 13.6027 14.2402 14.0991C13.7041 14.5955 13.2822 15.1733 12.9746 15.8325C12.667 16.4917 12.5088 17.2038 12.5 17.9688C12.5 18.7256 12.6538 19.4336 12.9614 20.0928C13.269 20.752 13.6909 21.3298 14.2271 21.8262C14.7632 22.3226 15.3872 22.7132 16.0991 22.998C16.811 23.2829 17.5801 23.4294 18.4062 23.4375ZM19.25 17.1875H21.7812V18.75H17.5625V14.0625H19.25V17.1875ZM4.0625 12.5H5.75V14.0625H4.0625V12.5ZM7.4375 12.5H9.125V14.0625H7.4375V12.5ZM7.4375 9.375H9.125V10.9375H7.4375V9.375ZM7.4375 15.625H9.125V17.1875H7.4375V15.625ZM12.5 10.9375H10.8125V9.375H12.5V10.9375ZM15.875 10.9375H14.1875V9.375H15.875V10.9375ZM4.0625 9.375H5.75V10.9375H4.0625V9.375Z" fill="white"/>
</svg>
