<svg width="18" height="18" viewBox="0 0 18 18" fill="none" xmlns="http://www.w3.org/2000/svg">
<path d="M15.4736 3.37519V3.09654C15.4736 2.40764 15.1989 1.74695 14.7099 1.25982C14.221 0.77269 13.5578 0.499023 12.8663 0.499023H2.20013C1.90732 0.499072 1.61765 0.559175 1.34917 0.67559C1.08068 0.792005 0.839132 0.96224 0.639551 1.17569C0.43997 1.38915 0.286635 1.64125 0.189093 1.9163C0.0915509 2.19135 0.0518912 2.48347 0.0725832 2.77445C0.0689548 2.80296 0.0670551 2.83167 0.0668945 2.86041V14.4312C0.0668945 15.2453 0.391534 16.0262 0.969397 16.6019C1.54726 17.1776 2.33101 17.501 3.14823 17.501H14.9995C15.691 17.501 16.3542 17.2273 16.8432 16.7402C17.3321 16.2531 17.6068 15.5924 17.6068 14.9035V5.9302C17.607 5.32309 17.3937 4.73509 17.004 4.26834C16.6143 3.80159 16.0728 3.48557 15.4736 3.37519ZM2.20013 1.91585H12.8663C13.5205 1.91585 14.0514 2.4448 14.0514 3.09654V3.33268H2.20013C2.01154 3.33268 1.83067 3.25805 1.69732 3.12519C1.56397 2.99234 1.48905 2.81215 1.48905 2.62427C1.48905 2.43638 1.56397 2.2562 1.69732 2.12334C1.83067 1.99049 2.01154 1.91585 2.20013 1.91585ZM12.6293 9.94455H14.5255C14.7141 9.94455 14.8949 10.0192 15.0283 10.152C15.1616 10.2849 15.2366 10.4651 15.2366 10.653C15.2366 10.8409 15.1616 11.021 15.0283 11.1539C14.8949 11.2867 14.7141 11.3614 14.5255 11.3614H12.6293C12.4407 11.3614 12.2598 11.2867 12.1265 11.1539C11.9931 11.021 11.9182 10.8409 11.9182 10.653C11.9182 10.4651 11.9931 10.2849 12.1265 10.152C12.2598 10.0192 12.4407 9.94455 12.6293 9.94455Z" fill="white"/>
</svg>
