<?xml version="1.0" standalone="no"?>
<!DOCTYPE svg PUBLIC "-//W3C//DTD SVG 20010904//EN"
 "http://www.w3.org/TR/2001/REC-SVG-20010904/DTD/svg10.dtd">
<svg version="1.0" xmlns="http://www.w3.org/2000/svg"
 width="49.000000pt" height="50.000000pt" viewBox="0 0 49.000000 50.000000"
 preserveAspectRatio="xMidYMid meet">

<g transform="translate(0.000000,50.000000) scale(0.100000,-0.100000)"
fill="#000000" stroke="none">
<path d="M168 420 c-84 -46 -122 -153 -84 -238 13 -29 15 -44 7 -65 -11 -29
-4 -33 34 -18 12 5 33 2 52 -6 63 -26 144 -13 192 30 32 30 61 94 61 137 0
128 -151 220 -262 160z m42 -90 c10 -24 10 -33 0 -45 -10 -12 -7 -20 20 -45
36 -34 43 -36 59 -16 10 11 19 12 42 4 38 -13 41 -53 4 -70 -65 -30 -195 74
-195 155 0 51 51 64 70 17z"/>
</g>
</svg>
